<?xml version="1.0" encoding="UTF-8"?>
<!DOCTYPE svg PUBLIC "-//W3C//DTD SVG 1.1//EN" "http://www.w3.org/Graphics/SVG/1.1/DTD/svg11.dtd">
<!-- Creator: CorelDRAW 2018 (64-Bit) -->
<svg xmlns="http://www.w3.org/2000/svg" xml:space="preserve" width="4.91327in" height="9.25538in" version="1.1" style="shape-rendering:geometricPrecision; text-rendering:geometricPrecision; image-rendering:optimizeQuality; fill-rule:evenodd; clip-rule:evenodd"
viewBox="0 0 41.23 77.66"
 xmlns:xlink="http://www.w3.org/1999/xlink">
 <defs>
  <style type="text/css">
   <![CDATA[
    .str0 {stroke:black;stroke-width:0.06;stroke-miterlimit:2.61313}
    .fil1 {fill:#E6E7E8}
    .fil4 {fill:#33CC33}
    .fil0 {fill:white}
    .fil2 {fill:#9933FF;fill-rule:nonzero}
    .fil3 {fill:white;fill-rule:nonzero}
   ]]>
  </style>
 </defs>
 <g id="Layer_x0020_1">
  <metadata id="CorelCorpID_0Corel-Layer"/>
  <rect class="fil0 str0" x="0.93" y="7.79" width="33.73" height="68.55" rx="4.59" ry="4.59"/>
  <polygon class="fil1" points="1.57,6.64 34.58,6.64 1.57,76.09 "/>
  <path class="fil2" d="M41.23 8.67c0,-4.79 -3.88,-8.67 -8.67,-8.67 -3.51,0 -6.52,2.08 -7.89,5.07l-19.31 0c-1.47,0 -2.81,0.6 -3.78,1.57 -0.97,0.97 -1.57,2.31 -1.57,3.78l0 61.89c0,1.47 0.6,2.81 1.57,3.78 0.97,0.97 2.31,1.57 3.78,1.57l25.45 0c1.47,0 2.81,-0.6 3.78,-1.57 0.97,-0.97 1.57,-2.31 1.57,-3.78l0 -55.75c2.99,-1.37 5.07,-4.39 5.07,-7.89zm-17.21 1.51c0.71,4.07 4.27,7.16 8.54,7.16 0.24,0 0.49,-0.01 0.73,-0.03l0 55c0,0.68 -0.28,1.3 -0.73,1.75l-0 0c-0.45,0.45 -1.07,0.73 -1.75,0.73l-25.45 0c-0.68,0 -1.3,-0.28 -1.75,-0.73 -0.45,-0.45 -0.73,-1.07 -0.73,-1.75l0 -61.89c0,-0.68 0.28,-1.3 0.73,-1.75l0 0c0.45,-0.45 1.07,-0.73 1.75,-0.73l3.82 0 0.03 0.17 0 -0 0 0.03c0.05,0.23 0.11,0.42 0.22,0.63 0.19,0.25 0.27,0.43 0.5,0.71l0.01 0 0.06 0.07 0.04 0c0.09,0.06 0.18,0.14 0.27,0.21 0.09,0.06 0.18,0.11 0.28,0.16l0 -0 0.13 0.06 0.03 0.01 -0 0.01c0.37,0.14 0.57,0.16 0.95,0.19l12.32 0z"/>
  <path class="fil3" d="M29.74 9.84l2.27 3.93c0.3,0.52 0.79,0.52 1.08,0l2.27 -3.93c0.3,-0.52 0.05,-0.94 -0.54,-0.94l-0.7 0 0 -4.13c0,-0.87 -0.7,-1.57 -1.57,-1.57 -0.87,0 -1.57,0.7 -1.57,1.57l0 4.13 -0.7 0c-0.6,0 -0.84,0.42 -0.54,0.94z"/>
  <path class="fil4" d="M24.92 39.19l-17.11 9.94 0.02 0 -0.02 -0.02 -0 0.02c-0.08,-0.04 -0.13,-0.09 -0.2,-0.12 -0.44,-0.21 -0.92,-0.22 -1.38,-0.04 -0.44,0.17 -0.84,0.57 -1,1.01 -0.27,0.72 -0.22,1.4 0.22,2.04 0.03,0.04 0.01,0.01 0.03,0.05 0.22,0.27 0.6,0.57 0.92,0.63 0.16,0.03 0.4,0.09 0.57,0.07 0.22,-0.02 0.34,-0.06 0.54,-0.13 0.23,-0.08 0.38,-0.24 0.53,-0.38 0.06,-0.05 -0.02,-0.02 0.06,-0.04 0,0.35 -0.06,0.49 0.32,0.47 0.16,-0 0.38,0.02 0.52,-0.01l0 -3.78 -0.83 0 0 0.49 -0.27 -0.26c-0,-0 -0.01,-0.01 -0.01,-0.01l17.11 -9.94zm0.98 -9.08l0 0 0 -0.02 -0.02 0.02 0.02 0 -1.13 1.94c-0.05,0.09 -0.09,0.16 -0.14,0.25l-0.35 0.61c-0.03,0.06 -0.04,0.08 -0.07,0.13l-0.3 0.51c-0.06,0.1 -0.22,0.36 -0.24,0.45 -0.05,-0.02 -0.09,-0.04 -0.14,-0.06l-0.74 -0.3c-0.31,-0.13 -0.66,-0.23 -0.98,-0.32 -0.34,-0.1 -0.69,-0.21 -1.05,-0.25 -0.26,-0.03 -0.47,-0.1 -0.73,-0.12 -0.25,-0.02 -0.45,-0.07 -0.71,-0.08 -0.1,-0 -0.31,-0.02 -0.39,-0.03 -0.09,-0.01 -0.27,-0 -0.4,-0.01l-0.43 -0.02c-0.44,0 -1.71,0.08 -2.1,0.16 -0.06,0.01 -0.11,0.02 -0.19,0.03 -0.37,0.06 -0.73,0.12 -1.08,0.22 -0.06,0.02 -0.11,0.03 -0.16,0.05l-0.82 0.24c-0.38,0.13 -0.9,0.31 -1.25,0.5 -0.02,-0.07 -0.11,-0.21 -0.15,-0.28l-1.88 -3.26c-0.07,-0.12 -0.13,-0.29 -0.25,-0.38 -0.15,-0.12 -0.35,-0.13 -0.51,-0.05 -0.12,0.06 -0.14,0.1 -0.2,0.22 -0.05,0.1 -0.05,0.26 0,0.36l0.9 1.57c0,0 0,0.01 0,0.01l0.53 0.92c0.04,0.08 0.09,0.12 0.12,0.21 0.02,0.04 -0.01,0 0.02,0.05 0.02,0.03 0.02,0.02 0.04,0.06l0.56 0.97 -0.83 0.5c-0.33,0.2 -0.62,0.43 -0.93,0.66l-0.47 0.38c-0,0 -0.01,0.01 -0.01,0.01l-0.06 0.05c-0.17,0.15 -0.66,0.6 -0.78,0.74 -0.22,0.27 -0.48,0.5 -0.69,0.77l-0.43 0.55c-0.18,0.23 -0.53,0.75 -0.67,1.01 -0.06,0.11 -0.12,0.22 -0.19,0.34 -0.31,0.52 -0.61,1.25 -0.83,1.81 -0.15,0.39 -0.34,0.98 -0.43,1.4l-0.27 1.52c-0.02,0.16 -0.05,0.34 -0.05,0.5l2.22 0c0.04,-0 0.06,-0 0.1,0 0.03,0 0.02,0 0.05,0l0.16 0c0.04,-0 0.06,-0 0.1,-0 0.06,0 0,0 0.05,0l2.08 -0c0.03,0 0.02,0 0.04,0l0.77 0c0.03,0 0.02,0 0.05,0l7.27 0c0.03,0 0.01,0 0.04,0l0.27 -0c0.01,0 0.05,0 0.05,0l0.46 -0c0.06,0 0,0 0.05,0 0.01,-0 0.05,-0 0.07,-0 0.05,-0 0.07,0 0.1,0l0.15 0c0.04,0 -0.01,0 0.05,-0 0.04,-0 0.08,0 0.12,0l1.01 -0c0.04,-0 0.06,-0 0.1,-0 0.06,0 0,0 0.05,0l0.16 0c0.03,-0 0.07,-0 0.1,-0l1.83 0c0.03,-0 0.07,-0 0.1,-0l1.72 0c0.04,-0 0.06,-0 0.1,-0l0.71 0c0.04,-0 0.06,-0 0.1,-0l0.71 0c0.04,-0 0.06,-0 0.1,-0l3.65 0c0.04,-0 0.08,0 0.12,0l1.24 -0.01c0,-0.34 -0.08,-0.83 -0.15,-1.17l-0.08 -0.41c-0.13,-0.64 -0.3,-1.26 -0.53,-1.87 -0.03,-0.08 -0.05,-0.12 -0.06,-0.18 -0,-0.01 -0.01,-0.02 -0.01,-0.03 -0.01,-0.03 0,0.01 -0.02,-0.04 -0.1,-0.21 -0.18,-0.44 -0.28,-0.66 -0.2,-0.41 -0.4,-0.82 -0.64,-1.21l-1.2 -1.68 -0.95 -1.02c-0,-0 -0.01,-0.01 -0.01,-0.01 -0,-0 -0.01,-0.01 -0.01,-0.01l-0.34 -0.31c-0.32,-0.3 -0.68,-0.56 -1.03,-0.82l-0.63 -0.42c-0.22,-0.14 -0.48,-0.26 -0.68,-0.4 0.06,-0.1 0.11,-0.19 0.17,-0.3l0.13 -0.23c0.01,-0.03 0.03,-0.05 0.04,-0.08l1.31 -2.27c0.02,-0.03 0.03,-0.05 0.04,-0.08l0.03 -0.04c0,-0 0,-0.01 0,-0.01l0.01 -0.03c0,-0.01 0.01,-0.03 0.02,-0.04l0.22 -0.39c0.03,-0.06 0.05,-0.09 0.09,-0.15 0.13,-0.23 0.23,-0.42 0.02,-0.67 -0.07,-0.09 -0.18,-0.16 -0.33,-0.16 -0.18,0 -0.24,0.08 -0.35,0.14zm-0.3 17.4l0 0c0,0.15 0.01,0.22 0.09,0.35l0.07 0.09c0.5,0.49 1.29,-0.24 0.81,-0.77 -0.35,-0.4 -0.98,-0.11 -0.98,0.33zm0.14 5l0 0c0,0.1 0.09,0.18 0.17,0.19 0.08,0.01 0.19,0 0.23,-0l0.33 0c0.07,-0 0.1,0.02 0.1,-0.05l0 -3.74 -0.83 0 0 3.6zm-6.18 -2.99l0 0c0,-0.11 -0,-0.22 0,-0.33 0,-0.36 0.14,-0.28 -0.79,-0.28 -0.05,0 -0.06,0.01 -0.06,0.06l0 3.52c0,0.25 0.28,0.22 0.4,0.21 0.08,-0 0.15,-0 0.22,-0l0.23 -0.01c0,-0.64 0,-1.29 -0,-1.93 -0,-0.61 0.44,-1.2 1.17,-1.02 0.19,0.05 0.15,0.18 0.15,-0.76 0,-0.12 -0.35,-0.1 -0.43,-0.09l-0.24 0.05c-0.1,0.04 -0.18,0.08 -0.27,0.14 -0.26,0.16 -0.34,0.41 -0.38,0.45zm-8.86 -0.12l0 0 0 -0.49 -0.83 0c-0.03,0.15 -0,3.18 -0.01,3.55 -0,0.3 0.26,0.23 0.54,0.24 0.07,0 0.24,0.02 0.31,-0.01l0 -1.77c-0,-0.24 0,-0.31 0.05,-0.49 0.07,-0.3 0.15,-0.52 0.45,-0.7 0.26,-0.16 0.6,-0.17 0.85,-0.02 0.55,0.33 0.39,1.32 0.39,1.96 0,0.2 0,0.39 0,0.59 0,0.07 -0.01,0.23 0,0.28 0.01,0.07 0.08,0.13 0.15,0.15l0.68 -0c0,-0.36 0.02,-2.32 -0.02,-2.58 -0.04,-0.3 -0.13,-0.53 -0.3,-0.76 -0.09,-0.12 -0.23,-0.26 -0.35,-0.32 -0.24,-0.12 -0.36,-0.17 -0.7,-0.19 -0.37,-0.02 -0.72,0.09 -0.99,0.31 -0.1,0.09 -0.13,0.15 -0.21,0.24zm12.52 2.58l0 0c-0.2,0 -0.28,0.02 -0.45,-0.04 -0.22,-0.08 -0.31,-0.12 -0.48,-0.29 -0.34,-0.33 -0.41,-1 -0.19,-1.4 0.02,-0.04 0.03,-0.04 0.04,-0.08 0.06,-0.12 0.05,-0.08 0.12,-0.17 0.03,-0.04 0.03,-0.04 0.06,-0.08 0.04,-0.04 0.11,-0.08 0.15,-0.11 0.43,-0.3 0.99,-0.23 1.4,0.11l0.17 0.22c0.33,0.53 0.21,1.41 -0.42,1.72 -0.11,0.05 -0.25,0.12 -0.41,0.12zm-2.09 -1.32l0 0c0,0.45 -0,0.6 0.2,1.04 0.15,0.33 0.44,0.61 0.75,0.8l0.06 0.04c0.26,0.16 0.69,0.24 1,0.24 0.7,0 1.28,-0.38 1.61,-0.87 0.04,-0.06 0.05,-0.1 0.09,-0.15 0.14,-0.23 0.22,-0.59 0.24,-0.87l-0.03 -0.47c-0.06,-0.35 -0.27,-0.73 -0.51,-0.97 -0.45,-0.44 -0.83,-0.58 -1.45,-0.6 -0.05,-0 -0.03,0 -0.09,0 -0.1,0 -0.14,0.01 -0.22,0.02 -0.18,0.02 -0.4,0.1 -0.56,0.17l-0.16 0.09c-0.18,0.11 -0.33,0.25 -0.47,0.4 -0,0 -0.01,0.01 -0.01,0.01 -0,0 -0.01,0.01 -0.01,0.01l-0.04 0.04c-0.09,0.11 -0.21,0.35 -0.27,0.49l-0.06 0.16c-0,0 -0,0.01 -0,0.01 -0.01,0.02 -0,-0 -0.01,0.03l-0.02 0.14c-0.02,0.09 -0.03,0.13 -0.03,0.23zm-12.97 0.14l0 0c0,0.14 -0.04,0.36 -0.09,0.48 -0.14,0.38 -0.53,0.72 -0.93,0.72 -0.25,0 -0.21,0.02 -0.44,-0.05 -0.05,-0.01 -0.14,-0.05 -0.19,-0.07 -0.09,-0.05 -0.24,-0.16 -0.3,-0.25 -0.12,-0.16 -0.22,-0.31 -0.25,-0.53 -0.07,-0.45 -0.03,-0.84 0.32,-1.19 0.2,-0.2 0.5,-0.32 0.81,-0.3 0.11,0 0.27,0.03 0.42,0.09 0.07,0.03 0.12,0.06 0.18,0.11 0.34,0.28 0.43,0.52 0.47,0.95l0.01 0.04zm7.8 1.2l0 0c-0.34,0 -0.64,-0.07 -0.88,-0.34 -0.29,-0.33 -0.39,-0.89 -0.23,-1.31 0.02,-0.05 0.02,-0.04 0.03,-0.07 0.12,-0.26 0.3,-0.49 0.6,-0.6 0.43,-0.14 0.87,-0.07 1.18,0.25 0.1,0.1 0.15,0.16 0.21,0.3 0.14,0.3 0.17,0.68 0.06,1.01 -0.04,0.12 -0.08,0.2 -0.14,0.28l-0.03 0.05c-0.17,0.25 -0.47,0.43 -0.81,0.43zm0.98 -2.6l0 0c-0,-0 -0.01,-0.01 -0.01,-0.01l-0.1 -0.12c-0.16,-0.15 -0.29,-0.23 -0.48,-0.31 -0.05,-0.02 -0.09,-0.03 -0.14,-0.04 -0.52,-0.16 -1.09,-0.04 -1.51,0.28l-0.21 0.18c-0,0 -0.01,0.01 -0.01,0.01 -0.35,0.37 -0.58,0.91 -0.56,1.43 0.01,0.29 0,0.22 0.07,0.53 0.07,0.32 0.28,0.69 0.51,0.91 0.07,0.07 0.11,0.1 0.18,0.16l0.07 0.05c0.61,0.39 1.29,0.44 1.89,0.03 0.14,-0.09 0.27,-0.26 0.3,-0.27 0,0.52 0.07,0.46 0.32,0.48 0.09,0 0.43,0.01 0.53,-0.01l0 -5.65 -0.85 0 0 2.36zm13.33 0l0 0c-0.06,-0.05 -0.13,-0.18 -0.37,-0.32 -0.5,-0.31 -1.12,-0.3 -1.63,-0.04 -0.33,0.16 -0.58,0.42 -0.77,0.73 -0,0 -0,0.01 -0.01,0.01 -0,0 -0,0.01 -0,0.01 -0.34,0.72 -0.38,1.4 0.05,2.13 0.3,0.51 0.95,0.89 1.53,0.87 0.19,-0.01 0.4,-0.05 0.57,-0.12 0.1,-0.04 0.15,-0.06 0.23,-0.11 0.08,-0.05 0.13,-0.08 0.2,-0.14l0.19 -0.18c0,0.16 -0.03,0.33 0.05,0.41 0.1,0.09 0.16,0.06 0.27,0.06 0.07,0 0.19,0 0.26,0l0.2 0c0.06,-0.01 0.03,0.05 0.04,-0.05l-0 -5.61 -0.83 0 0 2.36zm-1.14 0.21l0 0c0.65,0 1.18,0.53 1.18,1.18 0,0.65 -0.53,1.18 -1.18,1.18 -0.65,0 -1.18,-0.53 -1.18,-1.18 0,-0.65 0.53,-1.18 1.18,-1.18zm-5.28 -10.84l0 0c0.59,0 1.07,0.48 1.07,1.07 0,0.59 -0.48,1.07 -1.07,1.07 -0.59,0 -1.07,-0.48 -1.07,-1.07 0,-0.59 0.48,-1.07 1.07,-1.07zm-11.77 -0.01l0 0c0.62,0 1.1,0.5 1.1,1.08 0,0.08 -0.02,0.16 -0.03,0.22 -0.01,0.08 -0.02,0.11 -0.05,0.19 -0.05,0.12 -0.13,0.24 -0.22,0.33 -0.26,0.27 -0.58,0.38 -0.94,0.33l-0.29 -0.08c-0.28,-0.12 -0.52,-0.42 -0.6,-0.72 -0.08,-0.33 0.03,-0.61 0.03,-0.61 0.05,-0.12 0.08,-0.2 0.16,-0.3l0.13 -0.13c0,-0 0.01,-0.01 0.01,-0.01 0,-0 0.01,-0.01 0.01,-0.01l0.09 -0.08c0.05,-0.04 0.11,-0.07 0.17,-0.1 0.1,-0.05 0.27,-0.1 0.43,-0.1z"/>
 </g>
</svg>
