<?xml version="1.0" encoding="UTF-8"?>
<!DOCTYPE svg PUBLIC "-//W3C//DTD SVG 1.1//EN" "http://www.w3.org/Graphics/SVG/1.1/DTD/svg11.dtd">
<!-- Creator: CorelDRAW 2018 (64-Bit) -->
<svg xmlns="http://www.w3.org/2000/svg" xml:space="preserve" width="5.15652in" height="4.09708in" version="1.1" style="shape-rendering:geometricPrecision; text-rendering:geometricPrecision; image-rendering:optimizeQuality; fill-rule:evenodd; clip-rule:evenodd"
viewBox="0 0 297.03 236"
 xmlns:xlink="http://www.w3.org/1999/xlink">
 <defs>
  <style type="text/css">
   <![CDATA[
    .fil3 {fill:#6666FF}
    .fil1 {fill:#9933FF}
    .fil2 {fill:#99CC00}
    .fil0 {fill:#FF6600}
   ]]>
  </style>
 </defs>
 <g id="Layer_x0020_1">
  <metadata id="CorelCorpID_0Corel-Layer"/>
  <polygon class="fil0" points="209.81,17.24 211.42,21.28 297.01,235.61 246.55,235.61 225.23,182.24 151.51,182.24 150.8,182.24 158.75,158.32 164.52,142.38 166.35,142.38 209.31,142.38 187.07,86.69 185.82,83.54 "/>
  <polygon class="fil1" points="24.56,121.36 67.98,0 16.48,0.12 -0,48.15 "/>
  <polygon class="fil2" points="65.19,227.66 31.8,134.31 31.11,132.39 55.67,59.19 56.94,62.88 89.27,157.12 "/>
  <polygon class="fil3" points="137.86,45.46 152.8,0.09 153.34,0.09 "/>
  <path class="fil1" d="M291.34 196.14l0.69 0 4.99 0 0 13.14 0 1.23 -5.68 -14.38zm-77.5 -196.04l3.7 0 79.17 -0.06 0 39.87 -64.02 0.06 -3.09 0 -15.76 -39.87zm36.47 92.25l2.28 0 44.2 0 0 39.87 -29.05 0 -1.67 0 -15.76 -39.87z"/>
  <polygon class="fil2" points="137.86,45.46 153.34,0.09 156.57,0.09 203.54,0.09 119.63,236 73.67,236 72.84,236 "/>
 </g>
</svg>
