<?xml version="1.0" encoding="UTF-8"?>
<!DOCTYPE svg PUBLIC "-//W3C//DTD SVG 1.1//EN" "http://www.w3.org/Graphics/SVG/1.1/DTD/svg11.dtd">
<!-- Creator: CorelDRAW 2018 (64-Bit) -->
<svg xmlns="http://www.w3.org/2000/svg" xml:space="preserve" width="5.15652in" height="4.09708in" version="1.1" style="shape-rendering:geometricPrecision; text-rendering:geometricPrecision; image-rendering:optimizeQuality; fill-rule:evenodd; clip-rule:evenodd"
viewBox="0 0 4477.08 3557.24"
 xmlns:xlink="http://www.w3.org/1999/xlink">
 <defs>
  <style type="text/css">
   <![CDATA[
    .fil0 {fill:#26004D}
   ]]>
  </style>
 </defs>
 <g id="Layer_x0020_1">
  <metadata id="CorelCorpID_0Corel-Layer"/>
  <g id="_1989029725824">
   <polygon class="fil0" points="3162.43,259.85 3186.77,320.79 4476.84,3551.32 3716.2,3551.32 3394.94,2746.91 2283.7,2746.91 2272.97,2746.91 2392.86,2386.41 2479.85,2146.04 2507.36,2146.04 3154.98,2146.04 2819.76,1306.68 2800.81,1259.16 "/>
   <polygon class="fil0" points="370.12,1829.24 1024.6,0 248.35,1.88 -0,725.75 "/>
   <polygon class="fil0" points="982.66,3431.54 479.28,2024.5 468.95,1995.59 839.07,892.1 858.19,947.82 1345.5,2368.23 "/>
   <polygon class="fil0" points="2078,685.16 2303.12,1.41 2311.33,1.41 "/>
   <path class="fil0" d="M4391.44 2956.43l10.38 0 75.26 0 0 198.08 0 18.6 -85.64 -216.68zm-1168.13 -2954.9l55.84 0 1193.35 -0.94 0 600.93 -965.01 0.94 -46.63 0 -237.56 -600.93zm549.72 1390.55l34.43 0 666.16 0 0 600.93 -437.81 0 -25.22 0 -237.56 -600.93z"/>
   <polygon class="fil0" points="2078,685.16 2311.33,1.41 2359.96,1.41 3067.93,1.41 1803.2,3557.24 1110.41,3557.24 1097.98,3557.24 "/>
  </g>
 </g>
</svg>
