<?xml version="1.0" encoding="UTF-8"?>
<!DOCTYPE svg PUBLIC "-//W3C//DTD SVG 1.1//EN" "http://www.w3.org/Graphics/SVG/1.1/DTD/svg11.dtd">
<!-- Creator: CorelDRAW 2018 (64-Bit) -->
<svg xmlns="http://www.w3.org/2000/svg" xml:space="preserve" width="5.71888in" height="5.71878in" version="1.1" style="shape-rendering:geometricPrecision; text-rendering:geometricPrecision; image-rendering:optimizeQuality; fill-rule:evenodd; clip-rule:evenodd"
viewBox="0 0 105 105"
 xmlns:xlink="http://www.w3.org/1999/xlink">
 <defs>
  <style type="text/css">
   <![CDATA[
    .fil3 {fill:#CB4F4C;fill-rule:nonzero}
    .fil5 {fill:#C9C6CB;fill-rule:nonzero}
    .fil6 {fill:#434959;fill-rule:nonzero}
    .fil0 {fill:#9933FF;fill-rule:nonzero}
    .fil4 {fill:#99CC00;fill-rule:nonzero}
    .fil1 {fill:#E6E6E6;fill-rule:nonzero}
    .fil2 {fill:#FF6600;fill-rule:nonzero}
   ]]>
  </style>
 </defs>
 <g id="Layer_x0020_1">
  <metadata id="CorelCorpID_0Corel-Layer"/>
  <path class="fil0" d="M105 52.5c0,28.99 -23.51,52.5 -52.5,52.5 -28.99,0 -52.5,-23.5 -52.5,-52.5 0,-28.99 23.51,-52.5 52.5,-52.5 28.99,0 52.5,23.51 52.5,52.5z"/>
  <path class="fil1" d="M89.1 45.61l0 1.15c0,9.46 -7.49,17.03 -16.95,17.03l-6.14 0 3.85 10.18 -14.66 -10.18 -2.02 0c-1.15,0 -2.27,-0.11 -3.35,-0.33 -0.51,-0.1 -0.97,-0.22 -1.47,-0.37 -7.04,-2.08 -12.05,-8.58 -12.05,-16.34l0 -1.15c0,-0.14 -0.04,-0.24 -0.03,-0.38 0.21,-9.26 7.6,-16.63 16.9,-16.63l18.96 0c9.46,0 16.95,7.55 16.95,17.01z"/>
  <path class="fil2" d="M49.32 57.85l0 0.76c0,1.61 -0.37,3.07 -0.96,4.44 -1.71,3.95 -5.66,6.62 -10.26,6.62l-1.32 0 -9.51 6.66 -0.12 0.12 2.22 -5.93 0.3 -0.85 -4.02 0c-6.21,0 -11.26,-4.85 -11.26,-11.06l0 -0.76c0,-6.21 5.04,-11.13 11.26,-11.13l12.45 0c6.21,0 11.23,4.92 11.23,11.13z"/>
  <path class="fil3" d="M49.78 63.47c-0.51,-0.1 -0.96,-0.22 -1.45,-0.37 0.01,-0 0.01,-0.01 0.01,-0.01 0.01,0 0.02,0.01 0.03,0.01 0.48,0.14 0.93,0.26 1.43,0.36 0,0 -0.01,0.01 -0.01,0.01zm-13.46 -17.87c-0.01,-0.14 -0.09,-0.17 -0.08,-0.42l0.04 0c0,0.02 0,0.04 0,0.05 -0.01,0.14 0.03,0.23 0.03,0.37z"/>
  <path class="fil4" d="M49.79 63.46c-0.5,-0.1 -0.95,-0.22 -1.43,-0.36 -0.01,-0 -0.02,-0.01 -0.03,-0.01 0.05,-0.11 0.1,-0.22 0.14,-0.34 0.53,-1.29 0.84,-2.66 0.84,-4.15l0 -0.76c0,-6.21 -5.02,-11.13 -11.23,-11.13l-1.77 0 0 -1.1c0,-0 0,-0.01 0,-0.01 -0.01,-0.14 -0.04,-0.23 -0.03,-0.37 0,-0.02 0,-0.04 0,-0.05l2.42 0c6.81,0 12.15,5.49 12.15,12.3l0 0.83c0,1.84 -0.35,3.59 -1.06,5.15z"/>
  <path class="fil5" d="M48.48 62.75c0.51,-1.28 0.84,-2.68 0.84,-4.15 0,1.49 -0.31,2.86 -0.84,4.15zm0.84 -4.91c0,-6.21 -5.02,-11.13 -11.23,-11.13l-1.77 0 1.77 0c6.21,0 11.23,4.92 11.23,11.13l0 0z"/>
  <path class="fil6" d="M26.02 58.53c0,1.36 -1.1,2.47 -2.47,2.47 -1.36,0 -2.48,-1.11 -2.48,-2.47 0,-1.36 1.11,-2.47 2.48,-2.47 1.36,0 2.47,1.11 2.47,2.47z"/>
  <path class="fil6" d="M34.03 58.53c0,1.36 -1.1,2.47 -2.47,2.47 -1.36,0 -2.47,-1.11 -2.47,-2.47 0,-1.36 1.1,-2.47 2.47,-2.47 1.36,0 2.47,1.11 2.47,2.47z"/>
  <path class="fil6" d="M42.04 58.53c0,1.36 -1.1,2.47 -2.47,2.47 -1.36,0 -2.48,-1.11 -2.48,-2.47 0,-1.36 1.11,-2.47 2.48,-2.47 1.36,0 2.47,1.11 2.47,2.47z"/>
 </g>
</svg>
