<?xml version="1.0" encoding="UTF-8"?>
<!DOCTYPE svg PUBLIC "-//W3C//DTD SVG 1.1//EN" "http://www.w3.org/Graphics/SVG/1.1/DTD/svg11.dtd">
<!-- Creator: CorelDRAW 2018 (64-Bit) -->
<svg xmlns="http://www.w3.org/2000/svg" xml:space="preserve" width="10.4986in" height="5.59859in" version="1.1" style="shape-rendering:geometricPrecision; text-rendering:geometricPrecision; image-rendering:optimizeQuality; fill-rule:evenodd; clip-rule:evenodd"
viewBox="0 0 1052.5 561.27"
 xmlns:xlink="http://www.w3.org/1999/xlink">
 <defs>
  <style type="text/css">
   <![CDATA[
    .fil0 {fill:black}
    .fil5 {fill:#6666FF}
    .fil3 {fill:#9933FF}
    .fil4 {fill:#99CC00}
    .fil2 {fill:#FF6600}
    .fil1 {fill:#CCCCCC;fill-rule:nonzero}
   ]]>
  </style>
 </defs>
 <g id="Layer_x0020_1">
  <metadata id="CorelCorpID_0Corel-Layer"/>
  <g id="_2358113460128">
   <polygon class="fil0" points="-0,413.88 370.16,397.87 370.58,397.87 371,397.87 371.42,397.87 371.84,397.87 372.26,397.87 372.69,397.87 373.11,397.87 373.53,397.87 373.95,397.87 374.37,397.87 374.79,397.87 375.21,397.87 375.63,397.87 376.05,397.87 376.47,397.87 376.9,397.87 377.32,397.87 377.74,397.87 378.16,397.87 378.58,397.87 379,397.87 379.43,397.87 379.85,397.87 380.27,397.87 380.69,397.87 381.11,397.87 381.54,397.87 381.96,397.87 382.38,397.87 382.81,397.87 383.23,397.87 383.65,397.87 383.8,398.34 383.94,398.81 383.97,398.89 402.45,397.87 402.87,397.87 403.28,397.87 403.69,397.87 404.1,397.87 404.51,397.87 404.93,397.87 405.34,397.87 405.75,397.87 406.16,397.87 406.57,397.87 406.99,397.87 407.4,397.87 407.81,397.87 408.22,397.87 408.63,397.87 409.04,397.87 409.45,397.87 409.87,397.87 410.28,397.87 410.69,397.87 411.1,397.87 411.51,397.87 411.92,397.87 412.33,397.87 412.74,397.87 413.15,397.87 413.56,397.87 413.97,397.87 414.38,397.87 414.79,397.87 415.2,397.87 415.61,397.87 415.36,398.53 415.27,398.77 428.09,397.87 428.54,397.87 428.98,397.87 429.42,397.87 429.87,397.87 430.31,397.87 430.75,397.87 431.2,397.87 431.64,397.87 432.09,397.87 432.53,397.87 432.97,397.87 433.42,397.87 433.86,397.87 434.31,397.87 434.75,397.87 435.2,397.87 435.64,397.87 436.09,397.87 436.53,397.87 436.98,397.87 437.42,397.87 437.87,397.87 438.32,397.87 438.76,397.87 439.21,397.87 439.66,397.87 440.11,397.87 440.55,397.87 441,397.87 441.45,397.87 441.9,397.87 442.35,397.87 442.59,398.53 442.84,399.19 443.09,399.84 443.14,399.98 462.19,397.87 463.27,397.87 464.35,397.87 465.43,397.87 466.51,397.87 467.6,397.87 468.68,397.88 469.76,397.88 470.85,397.88 471.93,397.88 473.01,397.88 474.1,397.88 475.18,397.88 476.26,397.88 477.35,397.88 478.43,397.88 479.52,397.88 480.6,397.88 481.69,397.88 482.77,397.88 483.86,397.88 484.94,397.88 486.03,397.88 487.11,397.88 488.2,397.88 489.28,397.88 490.37,397.88 491.46,397.88 492.54,397.88 493.63,397.88 494.72,397.88 495.8,397.88 496.89,397.88 496.89,398.16 496.89,398.44 496.89,398.72 496.89,399 496.89,399.28 496.89,399.44 501.59,397.88 502.82,397.88 504.06,397.88 505.29,397.88 506.53,397.88 507.76,397.88 509,397.88 510.23,397.88 511.47,397.88 512.7,397.88 513.94,397.88 515.17,397.88 516.41,397.88 517.65,397.88 518.88,397.88 520.12,397.88 521.35,397.88 522.59,397.88 523.83,397.88 525.06,397.88 526.3,397.88 527.53,397.88 528.77,397.88 530.01,397.88 531.24,397.88 532.48,397.88 533.71,397.88 534.95,397.88 536.18,397.88 537.42,397.88 538.65,397.88 539.88,397.88 541.12,397.88 546.92,399.8 546.92,399.19 546.92,398.54 546.92,397.88 548,397.88 549.09,397.88 550.17,397.88 551.26,397.88 552.34,397.88 553.42,397.88 554.51,397.88 555.59,397.88 556.68,397.88 557.76,397.88 558.85,397.88 559.93,397.88 561.02,397.88 562.1,397.88 563.19,397.88 564.27,397.88 565.36,397.88 566.44,397.88 567.53,397.88 568.61,397.88 569.7,397.88 570.79,397.88 571.87,397.88 572.96,397.88 574.04,397.88 575.13,397.88 576.22,397.88 577.3,397.88 578.39,397.88 579.48,397.88 580.56,397.88 581.65,397.88 597.69,399.63 597.75,399.59 598.2,399.37 598.66,399.15 599.13,398.95 599.61,398.76 600.09,398.58 600.59,398.41 601.09,398.25 601.6,398.1 602.12,397.96 602.65,397.83 603.19,397.72 603.73,397.61 604.29,397.52 604.85,397.44 605.42,397.37 606,397.3 606.59,397.25 607.19,397.22 607.79,397.19 608.41,397.17 609.03,397.17 609.52,397.17 610.01,397.18 610.49,397.2 610.97,397.22 611.43,397.25 635.04,398.8 635.04,398.54 635.04,397.88 635.44,397.88 635.84,397.88 636.25,397.88 636.65,397.88 637.05,397.88 637.46,397.88 637.86,397.88 638.27,397.88 638.67,397.88 639.08,397.88 639.48,397.88 639.89,397.88 640.29,397.88 640.7,397.88 641.1,397.88 641.51,397.88 641.91,397.88 642.32,397.88 642.72,397.88 643.13,397.88 643.53,397.88 643.94,397.88 644.34,397.89 644.74,397.89 645.15,397.89 645.55,397.89 645.96,397.89 646.36,397.89 646.77,397.89 647.17,397.89 647.57,397.89 647.98,397.89 662.23,398.63 662.23,398.58 662.23,398.35 662.23,398.12 662.23,397.89 662.64,397.89 663.04,397.89 663.45,397.89 663.86,397.89 664.27,397.89 664.67,397.89 665.08,397.89 665.49,397.89 665.9,397.89 666.31,397.89 666.72,397.89 667.13,397.89 667.54,397.89 667.95,397.89 668.36,397.89 668.77,397.89 669.19,397.89 669.6,397.89 670.01,397.89 670.42,397.89 670.83,397.89 671.25,397.89 671.66,397.89 672.07,397.89 672.49,397.89 672.9,397.89 673.31,397.89 673.73,397.89 674.14,397.89 674.56,397.89 674.97,397.89 675.39,397.89 1052.5,413.94 1051.07,413.94 1049.64,413.94 1048.21,413.94 1046.78,413.94 1045.35,413.94 1043.93,413.94 1042.5,413.94 1041.07,413.94 1039.65,413.94 1038.22,413.94 1036.8,413.94 1035.38,413.94 1033.96,413.94 1032.54,413.94 1031.12,413.94 1029.7,413.94 1028.28,413.94 1026.86,413.94 1025.45,413.94 1024.03,413.94 1022.62,413.94 1021.21,413.94 1019.79,413.94 1018.38,413.94 1016.97,413.94 1015.56,413.94 1014.16,413.94 1012.75,413.94 1011.34,413.94 1009.94,413.94 1008.54,413.94 1007.14,413.94 1007.14,414.74 1007.14,415.53 1007.14,416.32 1007.14,417.12 1007.14,417.91 1007.14,418.71 1007.14,419.5 1007.14,420.3 1007.14,421.09 1007.14,421.89 1007.14,422.68 1007.14,423.47 1007.14,424.27 1007.14,425.06 1007.14,425.85 1007.14,426.65 1007.14,427.44 1007.14,428.23 1007.14,429.03 1007.14,429.82 1007.14,430.61 1007.14,431.4 1007.14,432.2 1007.14,432.99 1007.14,433.78 1007.14,434.57 1007.14,435.36 1007.14,436.15 1007.14,436.95 1007.14,437.74 1007.14,438.53 1007.14,439.32 1007.14,440.11 1007.14,440.9 1007.14,441.69 1007.14,442.48 1007.14,443.27 1007.14,444.05 1007.14,444.84 1007.14,445.63 1007.14,446.42 1007.14,447.21 1007.14,448 1007.14,448.79 1007.14,449.58 1007.14,450.37 1007.14,451.16 1007.14,451.95 1007.14,452.74 1007.14,453.53 1007.14,454.32 1007.14,455.11 1007.14,455.89 1007.14,456.68 1007.14,457.47 1007.14,458.26 1007.14,459.05 1007.14,459.84 1007.14,460.63 1007.14,461.42 1007.14,462.21 1007.14,463 1007.14,463.79 1007.14,464.58 1005.61,464.58 1004.08,464.58 1002.54,464.58 1001.01,464.58 999.48,464.58 997.95,464.58 996.42,464.58 994.88,464.58 993.35,464.58 991.82,464.58 990.28,464.58 988.75,464.58 987.21,464.58 985.68,464.58 984.15,464.58 982.61,464.58 981.08,464.58 979.54,464.58 978.01,464.58 976.48,464.58 974.94,464.58 973.41,464.58 971.87,464.58 970.34,464.58 968.81,464.58 967.28,464.58 965.74,464.58 964.21,464.58 962.68,464.58 961.15,464.58 959.62,464.58 958.09,464.58 913.46,457.09 913.46,459.26 913.46,461.52 913.46,463.78 913.46,466.04 913.46,468.3 913.46,470.57 913.46,472.82 913.46,475.08 913.46,477.34 913.46,479.14 1007.14,500.11 1007.14,501.03 1007.14,501.94 1007.14,502.86 1007.14,503.77 1007.14,504.69 1007.15,505.61 1007.15,506.52 1007.15,507.44 1007.16,508.35 1007.16,509.27 1007.16,510.18 1007.17,511.1 1007.17,512.01 1007.18,512.93 1007.18,513.84 1007.19,514.76 1007.19,515.67 1007.2,516.59 1007.2,517.5 1007.21,518.42 1007.21,519.34 1007.22,520.25 1007.22,521.17 1007.22,522.08 1007.23,523 1007.23,523.92 1007.23,524.83 1007.24,525.75 1007.24,526.67 1007.24,527.58 1007.24,528.5 1007.24,529.42 1007.24,530.33 1007.24,531.25 1007.24,532.17 1007.24,533.09 1007.24,534 1007.24,534.92 1007.24,535.84 1007.24,536.76 1007.24,537.67 1007.24,538.59 1007.24,539.51 1007.24,540.43 1007.24,541.35 1007.24,542.27 1007.24,543.18 1007.24,544.1 1007.24,545.02 1007.24,545.94 1007.24,546.86 1007.24,547.78 1007.24,548.7 1007.24,549.62 1007.24,550.54 1007.24,551.46 1007.24,552.38 1007.24,553.3 1007.24,554.22 1007.24,555.14 1007.24,556.06 1007.24,556.98 1007.24,557.9 1007.24,558.82 913.52,526.52 913.53,527.1 913.53,529.37 913.53,531.63 913.54,533.9 913.54,536.16 913.55,538.43 913.55,540.69 913.56,542.96 913.56,545.23 913.56,547.5 913.56,549.76 913.57,552.03 913.57,554.3 913.57,556.57 913.57,558.84 835.49,525.49 835.27,525.59 834.66,525.82 834.05,526.04 833.43,526.24 832.79,526.43 832.14,526.61 831.48,526.77 830.81,526.92 830.13,527.05 829.43,527.17 828.73,527.28 828.01,527.37 827.28,527.44 826.54,527.51 825.79,527.56 825.03,527.59 824.26,527.61 823.47,527.62 822.65,527.61 821.84,527.58 821.04,527.54 820.25,527.48 819.47,527.4 818.71,527.31 817.95,527.2 817.21,527.07 816.47,526.92 815.75,526.76 815.04,526.58 814.35,526.38 813.66,526.17 812.99,525.94 812.32,525.69 811.67,525.42 811.03,525.13 751.03,497.42 751.1,498.14 751.18,498.91 751.26,499.67 751.35,500.43 751.45,501.19 751.55,501.94 751.65,502.68 751.76,503.42 751.88,504.16 752,504.89 752.13,505.62 752.26,506.34 752.4,507.06 752.54,507.77 752.69,508.48 752.84,509.18 753,509.88 753.17,510.57 753.34,511.26 753.52,511.94 753.7,512.62 753.89,513.29 754.08,513.96 754.28,514.62 754.49,515.28 754.71,515.94 754.93,516.58 755.15,517.23 755.38,517.87 755.62,518.5 755.86,519.14 756.11,519.76 756.36,520.38 756.62,521 756.89,521.61 757.16,522.22 757.43,522.82 757.71,523.42 758,524.01 758.29,524.6 758.59,525.19 758.89,525.77 759.2,526.34 759.51,526.91 759.83,527.48 760.15,528.04 760.47,528.6 760.81,529.15 761.14,529.7 761.48,530.24 762.17,531.31 762.87,532.35 763.57,533.38 764.28,534.39 765,535.38 765.73,536.34 766.47,537.29 767.21,538.22 767.96,539.13 768.73,540.01 769.5,540.88 770.27,541.73 771.06,542.55 771.85,543.36 772.65,544.15 773.46,544.91 774.28,545.66 775.11,546.39 775.94,547.09 776.78,547.78 777.63,548.44 778.49,549.09 779.35,549.71 780.22,550.31 781.1,550.9 781.99,551.46 609.54,445.51 609.54,445.64 609.55,447.8 731.7,526.02 729.28,526.02 726.86,526.02 724.45,526.02 722.03,526.02 719.62,526.02 717.2,526.02 714.79,526.02 712.38,526.02 709.96,526.02 707.55,526.03 705.14,526.03 702.73,526.03 700.31,526.03 697.9,526.03 695.49,526.03 693.08,526.03 690.67,526.03 688.26,526.03 685.85,526.03 683.45,526.03 681.04,526.03 678.63,526.03 676.22,526.03 673.81,526.03 671.4,526.03 668.99,526.03 666.59,526.03 664.18,526.03 661.77,526.03 659.36,526.03 656.96,526.03 654.55,526.03 609.6,480.58 609.61,481.86 609.61,484.13 609.61,486.39 609.61,488.65 609.61,490.92 609.61,493.18 609.61,495.45 609.61,497.71 609.61,499.97 609.61,502.24 609.61,504.5 609.61,506.77 609.61,509.03 609.61,511.29 609.61,513.56 609.61,515.82 609.61,518.09 609.61,520.35 609.61,522.62 609.61,524.88 609.61,527.15 609.61,529.41 609.61,531.67 609.61,533.94 609.61,536.2 609.61,538.47 609.61,540.73 609.61,543 609.61,545.26 609.61,547.53 609.61,549.79 609.61,552.06 609.61,554.32 609.61,556.59 609.61,558.85 546.95,439.91 546.95,439.26 546.95,438.6 546.95,437.94 546.95,437.29 546.95,436.63 546.95,435.97 546.95,435.31 546.95,434.66 546.95,434 546.95,433.34 546.95,432.69 546.95,432.03 546.95,431.37 546.95,430.72 546.95,430.06 546.95,429.4 546.95,428.75 546.95,428.09 546.95,427.43 546.95,426.78 546.95,426.12 546.95,425.46 546.95,424.81 546.95,424.15 546.95,423.49 546.95,422.84 546.95,422.18 546.95,421.52 546.95,420.87 546.95,420.21 546.95,419.55 546.95,418.9 546.95,418.24 546.95,417.59 546.95,416.93 546.95,416.27 546.95,415.62 546.94,414.96 546.94,414.3 546.94,413.91 546.93,413.91 542.67,413.91 538.4,413.91 534.14,413.91 529.88,413.91 525.62,413.91 521.35,413.91 517.09,413.91 512.83,413.91 508.57,413.91 504.31,413.91 500.04,413.91 495.78,413.91 495.3,413.91 495.3,414.09 495.3,414.36 495.3,414.62 495.3,414.89 495.3,415.16 495.3,415.43 495.3,415.7 495.3,415.96 495.3,416.23 495.3,416.5 495.3,416.77 495.3,417.04 495.3,417.31 495.3,417.57 495.3,417.84 495.3,418.11 495.3,418.38 495.3,418.65 495.3,418.91 495.3,419.18 495.29,419.45 495.29,419.72 495.29,419.99 495.29,420.25 495.29,420.52 495.29,420.79 495.28,421.06 495.28,421.33 495.28,421.59 495.28,421.86 495.27,422.13 488.26,430.41 488.43,430.41 489.13,430.41 489.83,430.41 490.53,430.41 491.22,430.41 491.92,430.41 492.62,430.41 493.31,430.41 494.01,430.41 494.71,430.41 495.41,430.41 496.11,430.41 496.8,430.41 497.5,430.41 497.5,430.7 497.5,431 497.5,431.3 497.5,431.6 497.5,431.89 497.5,432.19 497.5,432.49 497.5,432.79 497.5,433.08 497.5,433.38 497.5,433.68 497.5,433.97 497.5,434.27 497.5,434.57 497.5,434.87 497.5,435.16 497.5,435.46 497.5,435.76 497.5,436.05 497.5,436.35 497.5,436.65 497.5,436.95 497.5,437.24 497.5,437.54 497.5,437.84 497.5,438.13 497.5,438.43 497.5,438.73 497.5,439.02 497.5,439.32 497.5,439.62 497.5,439.91 439.1,558.85 439.1,557.83 439.1,556.81 439.1,555.79 439.1,554.76 439.1,553.74 439.1,552.72 439.1,551.69 439.1,550.67 439.1,549.65 439.1,548.62 439.1,547.6 439.1,546.57 439.1,545.55 439.1,544.52 439.1,543.5 439.1,542.48 439.1,541.45 439.1,540.43 439.1,539.4 439.1,538.38 439.1,537.35 439.1,536.33 439.1,535.3 439.1,534.28 439.1,533.25 439.1,532.23 439.1,531.2 439.1,530.18 439.1,529.15 439.1,528.13 439.1,527.1 439.1,526.08 436.69,526.08 434.29,526.08 431.88,526.08 429.48,526.08 427.07,526.08 424.67,526.08 422.26,526.08 419.86,526.08 417.45,526.08 415.05,526.08 412.64,526.08 410.24,526.08 407.83,526.08 405.43,526.08 403.02,526.08 400.62,526.08 398.21,526.08 395.81,526.08 393.4,526.08 391,526.09 388.59,526.09 386.18,526.09 383.77,526.09 381.36,526.09 378.95,526.09 376.54,526.09 374.13,526.09 371.72,526.09 369.31,526.09 366.89,526.09 364.48,526.09 362.06,526.09 362.06,525.2 362.06,524.31 362.06,523.41 362.06,522.52 362.06,521.63 362.06,520.74 362.06,519.85 362.06,518.95 362.06,518.06 362.06,517.17 362.06,516.28 362.06,515.38 362.06,514.49 362.06,513.6 362.06,513.5 302.91,558.87 302.06,556.61 301.21,554.35 300.37,552.08 299.52,549.82 298.67,547.56 297.83,545.3 296.98,543.03 296.14,540.77 295.29,538.51 294.45,536.24 293.61,533.98 292.77,531.72 291.92,529.45 291.08,527.19 290.24,524.92 289.4,522.66 288.56,520.39 287.72,518.13 286.88,515.86 286.04,513.59 285.2,511.33 285.08,511.01 190.61,558.87 190.84,558.13 191.08,557.39 191.32,556.64 191.55,555.9 191.78,555.16 192.02,554.42 192.25,553.67 192.48,552.93 192.72,552.19 192.95,551.44 193.18,550.7 193.41,549.96 193.64,549.21 193.87,548.47 194.1,547.73 194.33,546.98 194.56,546.24 194.79,545.49 195.02,544.75 195.25,544 195.47,543.26 195.7,542.51 195.93,541.77 196.16,541.02 196.38,540.27 196.61,539.53 196.84,538.78 197.07,538.04 197.29,537.29 197.52,536.54 197.75,535.8 197.97,535.05 280.41,498.41 280.16,497.73 279.32,495.46 278.48,493.19 277.64,490.93 276.98,489.13 102.72,558.87 103.57,556.61 104.42,554.35 105.27,552.09 106.12,549.84 106.97,547.58 107.81,545.31 108.66,543.05 109.51,540.79 110.36,538.53 111.21,536.27 112.05,534 112.9,531.74 113.75,529.47 114.59,527.21 115.44,524.95 116.29,522.68 117.13,520.41 117.98,518.15 118.82,515.88 119.67,513.61 120.51,511.35 121.36,509.08 122.2,506.81 122.58,505.79 78.94,518.31 78.43,516.68 77.93,515.05 77.42,513.42 76.92,511.78 76.41,510.15 75.9,508.52 75.39,506.89 74.88,505.25 74.37,503.62 73.86,501.98 73.34,500.35 72.83,498.72 72.32,497.08 71.81,495.45 71.29,493.81 70.78,492.18 70.27,490.55 69.75,488.91 69.24,487.28 68.73,485.64 68.22,484.01 67.7,482.38 67.19,480.74 66.68,479.11 66.17,477.47 65.66,475.84 65.15,474.21 64.64,472.58 64.14,470.94 63.63,469.31 63.13,467.68 62.62,466.05 62.12,464.41 61.62,462.78 61.11,461.15 60.61,459.51 60.11,457.88 59.6,456.25 59.1,454.61 58.6,452.98 58.09,451.35 57.59,449.72 57.09,448.09 56.58,446.45 56.08,444.82 55.58,443.19 55.07,441.56 54.57,439.93 54.07,438.3 53.56,436.67 53.06,435.04 52.56,433.41 52.06,431.78 51.55,430.15 51.05,428.52 50.55,426.89 50.04,425.27 49.54,423.64 49.04,422.01 48.53,420.38 48.03,418.76 47.53,417.13 47.02,415.51 46.52,413.88 45.06,413.88 43.6,413.88 42.14,413.88 40.68,413.88 39.23,413.88 37.77,413.88 36.31,413.88 34.86,413.88 33.4,413.88 31.94,413.88 30.49,413.88 29.03,413.88 27.58,413.88 26.13,413.88 24.67,413.88 23.22,413.88 21.77,413.88 20.32,413.88 18.86,413.88 17.41,413.88 15.96,413.88 14.51,413.88 13.06,413.88 11.61,413.88 10.15,413.88 8.7,413.88 7.25,413.88 5.8,413.88 4.35,413.88 2.9,413.88 1.45,413.88 "/>
   <path class="fil1" d="M-0 413.88c15.47,0 30.94,0 46.52,0 5.37,17.33 10.73,34.74 16.1,52.16 5.37,17.41 10.95,34.86 16.31,52.27 5.37,-17.41 10.69,-34.88 16.1,-52.27 5.42,-17.42 10.84,-34.82 16.31,-52.15 15.16,0 30.31,0 45.36,0 -9.05,24.1 -18,48.3 -26.94,72.49 -8.95,24.21 -18,48.4 -27.05,72.48 -16.1,0.01 -32.31,0.01 -48.31,0.01 -9.16,-24.07 -18.37,-48.29 -27.37,-72.49 -9,-24.23 -18.1,-48.42 -27.05,-72.51zm249.02 121.15c-17.16,0 -34.1,0 -51.05,0.01 -2.42,7.97 -4.84,15.91 -7.37,23.82 -15.26,0 -30.52,0 -45.57,0 9.05,-24.09 18.05,-48.29 27.15,-72.48 9.11,-24.2 18.31,-48.37 27.58,-72.49 16.31,0 32.63,0 49.15,0 9.05,24.13 18.11,48.31 27.05,72.49 8.95,24.19 17.89,48.36 26.94,72.48 -15.58,0 -31.05,0 -46.63,0 -2.42,-7.92 -4.84,-15.86 -7.26,-23.83zm-9.58 -31.42c-2.74,-8.69 -5.37,-17.41 -8,-26.08 -2.63,-8.69 -5.26,-17.38 -7.89,-26.1 -2.74,8.72 -5.37,17.41 -8,26.1 -2.63,8.67 -5.26,17.41 -8,26.08 10.63,0 21.26,0 31.89,0zm77.89 -89.72c39.78,0 79.67,0.01 119.67,0.01 0,10.31 0,20.63 0,30.95 -24.94,-0.01 -49.89,-0.01 -74.83,-0.01 0,7.7 0,15.42 0,23.1 23.05,0 46.2,0 69.36,0 0,9.87 0,19.73 -0.11,29.59 -23.05,0 -46.2,0 -69.36,0 0,9.51 0,19.04 0,28.55 25.79,0 51.36,-0.01 77.04,-0.01 0,10.94 0,21.87 0,32.78 -40.73,0 -81.36,0.01 -121.98,0.01 0.11,-24.12 0.11,-48.3 0.11,-72.48 0,-24.16 0,-48.34 0.11,-72.49zm135.88 0.01c45.36,0 90.94,0 136.3,0 0,11.97 0,23.91 0,35.85 -15.26,0 -30.52,-0.01 -45.68,-0.01 0,18.19 0,36.39 0,54.56 0,18.17 0,36.37 0,54.55 -14.84,0 -29.79,0 -44.84,0 0,-18.16 0,-36.37 0,-54.55 0,-18.17 0,-36.37 0,-54.56 -15.26,-0.01 -30.52,-0.01 -45.78,-0.01 0,-11.94 0,-23.88 0,-35.82zm156.3 0c39.89,0 79.78,0.01 119.77,0.01 0.11,10.34 0.11,20.67 0.11,31 -25.05,-0.01 -49.99,-0.01 -74.83,-0.01 0,7.69 0,15.4 0,23.07 23.05,0 46.2,0 69.36,0 0,9.86 0,19.7 0,29.54 -23.15,0 -46.31,0 -69.36,0 0,9.5 0,19.01 0,28.51 25.68,0 51.36,0 77.15,-0.01 0,10.94 0.11,21.89 0.11,32.82 -40.84,0 -81.57,0.01 -122.19,0.01 0,-24.16 0,-48.31 0,-72.46 0,-24.13 -0.11,-48.3 -0.11,-72.48zm242.81 85.62c13.05,3.94 26,7.88 39.26,11.81 -2.63,11 -6.75,20.2 -12.42,27.55 -5.7,7.39 -12.74,12.95 -21.15,16.73 -8.32,3.74 -18.95,5.65 -32,5.65 -15.68,0 -28.53,-2.29 -38.52,-6.86 -10,-4.58 -18.71,-12.67 -26,-24.16 -3.66,-5.77 -6.53,-12.31 -8.31,-19.67 -1.79,-7.37 -2.63,-15.55 -2.63,-24.52 0,-11.96 1.58,-22.55 4.74,-31.73 3.16,-9.2 8,-17.04 14.42,-23.48 12.85,-12.88 30.94,-19.39 53.99,-19.39 18.31,0 32.62,3.74 43.05,11.15 10.42,7.41 18.21,18.74 23.37,34.05 -13.16,2.92 -26.31,5.81 -39.47,8.72 -1.37,-4.39 -2.83,-7.59 -4.32,-9.6 -2.51,-3.41 -5.68,-6.05 -9.26,-7.86 -3.68,-1.86 -7.68,-2.76 -12.21,-2.76 -10,0 -17.74,4.09 -23.15,12.19 -4.06,6.07 -6,15.54 -6,28.43 0,16.04 2.35,27.06 7.16,32.96 4.87,5.98 11.79,8.88 20.63,8.88 8.42,0 14.96,-2.38 19.37,-7.22 4.33,-4.76 7.47,-11.75 9.47,-20.87zm61.04 -85.6c14.84,0 29.79,0 44.63,0.01 0,8.48 0.05,16.93 0.11,25.36 0.05,8.42 0,16.85 0,25.27 16.31,0 32.73,0 49.05,0 0,-8.42 0,-16.84 0,-25.26 0,-8.43 0,-16.9 0,-25.38 14.95,0 30.1,0 45.36,0 0,24.24 0,48.37 0,72.43 0,24.1 0,48.22 0,72.45 -15.16,0 -30.31,0 -45.26,0 0,-9.83 0,-19.63 0,-29.41 0,-9.78 -0.11,-19.54 -0.11,-29.3 -16.31,0 -32.63,0 -49.05,0 0,9.78 0.1,19.54 0.1,29.3 0,9.78 0,19.6 0,29.42 -14.95,0 -29.79,0 -44.63,0 0,-24.21 -0.1,-48.34 -0.1,-72.46 0,-24.07 0,-48.22 -0.11,-72.45z"/>
  </g>
  <g id="_2358113461504">
   <path class="fil0" d="M581.99 0.4l-18.39 73.22 -117.03 328.39 -10.87 8.88 146.29 -410.49zm-41.34 193.62l-1.75 -4.39 12.22 -44.21 2.18 5.48 38.66 96.92 -20.38 23.73 -30.92 -77.54zm-49.6 133.04l-0.99 -0 0.01 -9.85 1.24 0 128.34 0.04 37.08 92.98 -33.34 -8.75 -29.67 -74.38 -102.67 -0.03zm-131.56 -166.31l44.88 131.26 -33.68 98.35 -29.84 5.97 42.09 -122.93 -38.96 -113.95 -29.74 82.7 -43.95 -31.08 75.91 -211.08 28.76 73.3 -25.1 69.8 7.85 12.52 1.76 5.15zm135.23 -160.45l-0.94 73.23 -21.59 63.06 -4.46 -57.47 26.99 -78.82zm155.85 257.15l-21.93 -55.5 34.65 -41.13 27.41 69.37 2.91 0 50.51 0.03 -50.82 27.25 -40.41 -0.02 -2.33 -0zm-50.73 -128.38l-21.91 -55.44 21.97 -73.21 27.38 69.3 5.38 0 111.27 -0.01 -50.78 59.35 -89.02 0.01 -4.3 -0zm144.72 237.45l-50.9 -0.01 -7.91 -20.03 48.93 -5 9.89 25.04z"/>
   <g>
    <polygon class="fil2" points="592.87,30.2 595.68,37.23 744.54,410.24 656.72,410.23 619.63,317.25 491.3,317.21 490.06,317.21 503.94,275.56 514,247.8 517.18,247.8 591.95,247.84 553.29,150.91 551.11,145.43 "/>
    <polygon class="fil3" points="270.3,211.08 346.21,0 256.57,0.13 227.74,83.62 "/>
    <polygon class="fil4" points="340.85,396.34 282.88,233.65 281.69,230.3 324.65,102.9 326.85,109.33 382.94,273.41 "/>
    <polygon class="fil5" points="467.73,79.14 493.76,0.31 494.71,0.31 "/>
    <path class="fil3" d="M734.66 341.49l1.2 0 8.68 0 0.01 22.89 0 2.15 -9.89 -25.04zm-134.76 -341.06l6.44 0.01 137.57 0.03 0.02 69.26 -111.27 0.01 -5.38 -0 -27.38 -69.3zm63.38 160.41l3.97 0 76.83 0.05 0.02 69.35 -50.51 -0.03 -2.91 -0 -27.41 -69.37z"/>
    <polygon class="fil4" points="467.73,79.14 494.71,0.31 500.32,0.32 581.99,0.4 435.7,410.9 355.6,410.89 354.16,410.89 "/>
   </g>
  </g>
 </g>
</svg>
