<?xml version="1.0" encoding="UTF-8"?>
<!DOCTYPE svg PUBLIC "-//W3C//DTD SVG 1.1//EN" "http://www.w3.org/Graphics/SVG/1.1/DTD/svg11.dtd">
<!-- Creator: CorelDRAW 2018 (64-Bit) -->
<svg xmlns="http://www.w3.org/2000/svg" xml:space="preserve" width="18.1228in" height="1.98535in" version="1.1" style="shape-rendering:geometricPrecision; text-rendering:geometricPrecision; image-rendering:optimizeQuality; fill-rule:evenodd; clip-rule:evenodd"
viewBox="0 0 744.69 81.58"
 xmlns:xlink="http://www.w3.org/1999/xlink">
 <defs>
  <style type="text/css">
   <![CDATA[
    .fil0 {fill:#99CC00}
   ]]>
  </style>
 </defs>
 <g id="Layer_x0020_1">
  <metadata id="CorelCorpID_0Corel-Layer"/>
  <path class="fil0" d="M483.56 28.88l0 0c1.41,0 2.45,3.85 2.56,5.26l2.32 29.43 -9.56 0 2.12 -29.43c0.1,-1.4 1.15,-5.26 2.56,-5.26l-0 0zm228.45 16.85l4.96 24.57 0.02 0.08 -9.39 0 -2.44 -21.5c-4.66,-41.02 -14.97,-39.6 -18.9,1.05l-1.97 20.44 60.4 0 0 11.2 -83.58 0 -13.82 0 -80.13 0 -3.45 0 -82.85 0 -11.1 0 -86.2 0 -0.1 0 -96.63 0 -0.67 0 -48.03 0 -37.99 0 -10.7 0 -92.04 0 -17.61 0 -79.78 0 0 -11.2 19.86 0 -2.79 -3.48c13.87,-6.56 16.8,-27.44 17.76,-50.89l-0 0 6.75 -0.02 -0.04 7.82 1.93 1.49 2.02 -1.53 0.19 -7.97 3.26 0.03 -0.08 2.25 2.7 0.01 0.08 -2.2 3.16 -0.03 -0.05 8.18 2.02 1.4 2.39 -1.31 0.55 -8.19 5.67 0.06c0.58,25.88 4.37,46.14 16.5,51.77l-2.77 2.62 -4.01 0.01 22.28 0 0 5.21 32.65 0c0.16,-0.24 0.39,-0.42 0.67,-0.56 0.45,-0.21 1.05,-0.3 1.82,-0.46 0.76,-0.17 1.67,-0.41 2.42,-0.52 0.75,-0.11 1.34,-0.09 1.97,-0.18 0.63,-0.08 1.31,-0.27 1.82,-0.48 0.5,-0.21 0.83,-0.46 1.16,-0.61 0.33,-0.15 0.67,-0.21 0.94,-0.21 0.28,0 0.5,0.06 1.45,-0.08 0.95,-0.13 2.62,-0.47 3.69,-0.72 1.07,-0.25 1.55,-0.43 2.53,-0.72 0.75,-0.23 1.8,-0.53 2.68,-0.76 -0.4,0.02 -1.01,0.06 -1.46,0.16 -0.54,0.11 -0.88,0.31 -1.05,0.37 -0.18,0.07 -0.18,0.01 -0.23,-0.25 -0.05,-0.25 -0.15,-0.7 -0.29,-1.47 -0.14,-0.77 -0.32,-1.87 -0.46,-2.76 -0.15,-0.89 -0.27,-1.58 -0.42,-2.41 -0.14,-0.83 -0.31,-1.81 -0.41,-2.44 -0.11,-0.62 -0.15,-0.88 -0.24,-1.03 -0.08,-0.15 -0.2,-0.2 -0.29,-0.25 -0.09,-0.06 -0.15,-0.11 -0.22,-0.22l-0.01 -0.01c0.11,0.01 0.26,0 0.44,-0.05 0.27,-0.07 0.62,-0.22 0.97,-0.36 0.35,-0.13 0.7,-0.25 0.9,-0.32 0.2,-0.07 0.25,-0.11 0.34,-0.08 0.08,0.03 0.2,0.12 0.42,0.19 0.22,0.07 0.55,0.11 0.81,0.11 0.27,0 0.46,-0.06 0.71,-0.16 0.24,-0.11 0.52,-0.27 0.72,-0.48 0.2,-0.2 0.33,-0.45 0.42,-0.73 0.09,-0.28 0.15,-0.6 0.08,-0.92 -0.07,-0.33 -0.28,-0.67 -0.46,-0.88 -0.18,-0.2 -0.32,-0.25 -0.42,-0.28 -0.11,-0.03 -0.18,-0.03 -0.14,0.13 0.03,0.15 0.18,0.46 0.27,0.73 0.08,0.27 0.1,0.5 0.03,0.7 -0.06,0.2 -0.2,0.38 -0.39,0.55 -0.18,0.17 -0.41,0.32 -0.63,0.41 -0.22,0.08 -0.46,0.1 -0.64,0.12 -0.18,0.02 -0.31,0.04 -0.42,-0.06 -0.11,-0.09 -0.22,-0.3 -0.33,-0.45 -0.12,-0.15 -0.25,-0.22 -0.34,-0.19 -0.1,0.04 -0.17,0.2 -0.21,0.3 -0.05,0.11 -0.07,0.17 -0.24,0.25 -0.17,0.08 -0.48,0.18 -0.77,0.27 -0.29,0.09 -0.55,0.17 -0.71,0.23 -0.17,0.06 -0.25,0.1 -0.34,0.2 -0.06,0.06 -0.12,0.14 -0.17,0.22 0.01,-0.11 0.03,-0.22 0.02,-0.32 -0.01,-0.13 -0.09,-0.24 -0.16,-0.41 -0.07,-0.18 -0.14,-0.43 -0.15,-0.81 -0.01,-0.37 0.03,-0.86 0.04,-1.16 0.01,-0.29 -0.01,-0.4 -0.13,-0.47 -0.11,-0.08 -0.31,-0.13 -0.6,-0.18 -0.29,-0.06 -0.66,-0.14 -1.04,-0.29 -0.38,-0.16 -0.76,-0.4 -1.05,-0.62 -0.29,-0.22 -0.5,-0.41 -0.63,-0.6 -0.13,-0.18 -0.19,-0.34 -0.23,-0.44 -0.04,-0.1 -0.07,-0.12 -0.13,-0.11 -0.06,0.01 -0.14,0.05 -0.23,-0.02 -0.09,-0.07 -0.18,-0.24 -0.19,-0.39 -0.01,-0.15 0.08,-0.26 0.21,-0.44 0.13,-0.18 0.32,-0.43 0.42,-0.64 0.1,-0.22 0.11,-0.4 0.13,-0.58 0.02,-0.18 0.06,-0.35 0.01,-0.51 -0.03,-0.16 -0.15,-0.31 -0.27,-0.39 -0.12,-0.08 -0.25,-0.09 -0.51,-0.15 -0.27,-0.07 -0.67,-0.19 -0.99,-0.36 -0.32,-0.18 -0.57,-0.39 -0.73,-0.68 -0.15,-0.29 -0.22,-0.64 -0.25,-0.9 -0.04,-0.26 -0.04,-0.43 -0.1,-0.58 -0.06,-0.15 -0.18,-0.29 -0.27,-0.51 -0.09,-0.22 -0.16,-0.52 -0.22,-0.76 -0.05,-0.25 -0.08,-0.46 -0.04,-0.69 0.04,-0.23 0.15,-0.48 0.53,-1.01 0.39,-0.53 1.04,-1.32 1.51,-1.88 0.48,-0.55 0.76,-0.87 0.92,-1.13 0.15,-0.27 0.17,-0.48 0.12,-0.76 -0.05,-0.28 -0.16,-0.63 -0.28,-0.91 -0.13,-0.28 -0.26,-0.49 -0.39,-0.64 -0.13,-0.15 -0.26,-0.25 -0.33,-0.35 -0.07,-0.1 -0.09,-0.21 -0.12,-0.47l-0.01 -0.06c0.16,-0.09 0.43,-0.32 0.85,-0.57 0.48,-0.29 1.13,-0.62 1.71,-0.95 0.58,-0.33 1.08,-0.65 1.76,-0.91 0.68,-0.26 1.54,-0.46 2.36,-0.59 0.82,-0.13 1.6,-0.19 2.4,-0.22 0.79,-0.04 1.6,-0.05 2.28,0.1 0.68,0.14 1.24,0.43 1.55,0.65 0.31,0.22 0.38,0.35 0.43,0.39 0.06,0.03 0.11,-0.02 0.08,-0.27 -0.01,-0.18 -0.07,-0.44 -0.2,-0.72l0.05 0.06c0.25,0.33 0.4,0.64 0.43,0.92 0.03,0.28 -0.07,0.53 -0.16,0.71 -0.1,0.18 -0.2,0.27 -0.25,0.38 -0.05,0.11 -0.05,0.22 -0.03,0.72 0.01,0.5 0.04,1.39 0.03,2.08 -0.01,0.69 -0.07,1.18 -0.15,1.74 -0.08,0.57 -0.18,1.21 -0.29,1.72 -0.12,0.52 -0.25,0.92 -0.32,1.3 -0.06,0.38 -0.05,0.73 -0.08,1.09 -0.01,0.13 -0.03,0.26 -0.05,0.4 0.09,-2.44 0.39,-5.73 0.54,-7.47 0.15,-1.8 0.13,-1.93 -0.12,-2.12 -0.25,-0.19 -0.72,-0.46 -1.25,-0.63 -0.53,-0.18 -1.12,-0.28 -1.69,-0.35 -0.57,-0.07 -1.11,-0.11 -1.82,-0.05 -0.7,0.06 -1.55,0.23 -2.28,0.38 -0.74,0.15 -1.36,0.28 -1.84,0.53 -0.48,0.25 -0.83,0.61 -1.3,0.95 -0.47,0.34 -1.07,0.65 -1.43,0.88 -0.36,0.23 -0.48,0.39 -0.45,0.62 0.03,0.23 0.19,0.55 0.31,0.93 0.12,0.38 0.18,0.83 0.23,1.04 0.05,0.22 0.08,0.2 0.13,0.18 0.05,-0.02 0.11,-0.06 0.19,-0.12 0.07,-0.06 0.15,-0.15 0.42,-0.48 0.27,-0.32 0.75,-0.89 1.23,-1.4 0.48,-0.51 0.98,-0.98 1.28,-1.22 0.3,-0.24 0.41,-0.25 0.46,-0.17 0.05,0.08 0.05,0.25 -0.05,0.42 -0.1,0.18 -0.29,0.35 -0.5,0.67 -0.22,0.32 -0.46,0.78 -0.68,1.28 -0.22,0.5 -0.43,1.02 -0.59,1.39 -0.15,0.37 -0.24,0.6 -0.34,0.81 -0.11,0.2 -0.22,0.4 -0.18,0.64 0.04,0.24 0.1,0.85 0.32,1.02 0.22,0.18 0.17,1.28 0.48,1.42 0.32,0.14 1.53,1.64 1.93,1.81 0.9,0.38 1.04,1.39 1.69,3.02 0.71,1.75 2.56,4.04 3.21,4.72 0.12,0.13 0.3,0.17 0.5,0.14l-0.01 0.02c-0.05,0.12 0.03,0.29 0.08,0.43 0.06,0.14 0.1,0.25 0.16,0.34 0.06,0.09 0.15,0.15 0.36,0.26 0.21,0.11 0.54,0.25 0.8,0.39 0.26,0.13 0.45,0.23 0.6,0.49 0.15,0.25 0.27,0.66 0.33,1.1 0.06,0.44 0.04,0.93 0.01,1.49 -0.04,0.55 -0.11,1.18 -0.13,1.64 -0.03,0.46 -0.01,0.75 -0.04,1.04 -0.03,0.29 -0.11,0.57 -0.34,1.02 -0.24,0.45 -0.63,1.05 -0.95,1.43 -0.33,0.38 -0.59,0.52 -0.73,0.62 -0.15,0.11 -0.18,0.18 -0.18,0.45 -0.01,0.27 0.01,0.76 0.03,1.37 0.02,0.61 0.06,1.34 0.07,1.71 0.01,0.13 0.01,0.22 -0.01,0.28l0.2 -0.05c0.95,-0.21 1.35,-0.21 2.04,-0.36 0.69,-0.15 1.66,-0.46 3.26,-0.34 1.6,0.11 3.81,0.64 5.66,1.09 1.85,0.46 3.34,0.84 4.52,1.12 1.18,0.28 2.05,0.45 2.56,0.5 0.5,0.05 0.64,-0.03 0.82,-0.12 0.18,-0.08 0.37,-0.16 0.67,0.01 0.29,0.17 0.68,0.58 1.84,0.95 1.16,0.36 3.09,0.68 4.24,0.93 1.14,0.25 1.5,0.45 1.81,0.63 0.31,0.18 0.57,0.36 0.72,0.67 0.06,0.12 0.1,0.27 0.12,0.41l9.25 0 0 -5.19 2.48 0c3.14,-7.33 6.23,-13.84 9.27,-19.57l-2.95 -0.01 0.02 -1.99 -4.59 -0.19 0.26 -3.41 -2.02 -1.52 1.74 -2.04 2.47 1.65 2.18 -0.06 0.06 -2.46 1.06 -0.06 0.24 -0.81 -5.74 -5.62 1.17 -2.25 18 -0.1c18.23,-23.48 34.73,-19.46 49.84,-0l18.32 0.1 -0 0 1.17 2.25 -5.74 5.62 0.24 0.81 1.06 0.06 0.06 2.46 2.18 0.06 2.47 -1.65 1.74 2.04 -2.02 1.52 0.26 3.41 -4.59 0.19 0.02 1.99 -3.24 0.01c3.19,5.97 6.32,12.54 9.39,19.57l1.92 0 0 -0 15.9 0 0 -4.55 2.11 0 0 -24.32 -3.68 -3.99 3.68 -0.01 0 -5.56 -1.74 0 0 -1.9 1.74 0 0 -0.42 -0.01 -0 21.58 0 0 -3.6 3.01 0 0 -6.07 0 0 -0.01 -4.08 2.7 4.07 2.35 0.01 1.35 -4.16 1.35 4.16 1.95 -0 2.69 -4.05 -0.01 4.08 -0 0 0 6.05 2.8 0 0 3.6 22.23 0 0 0.42 1.53 0 0 1.9 -1.53 0 0 5.77 3.1 0 -3.1 3.36 0 24.75 1.37 0 0 4.55 15.96 0 0 -0 0 0 0.1 0 0 0.03 4.87 0c0.27,-3.96 0.86,-8.91 1.71,-14.21l-2.69 0c-0.5,0 -0.91,-0.41 -0.91,-0.91l0 0c0,-0.5 0.41,-0.91 0.91,-0.91l3 0c0.24,-1.39 0.49,-2.78 0.76,-4.19l-3.7 0c-0.5,0 -0.91,-0.41 -0.91,-0.91l0 0c0,-0.5 0.41,-0.91 0.91,-0.91l4.06 0c0.24,-1.18 0.48,-2.35 0.74,-3.53l-3.68 0c-0.5,0 -0.91,-0.41 -0.91,-0.91l0 0c0,-0.5 0.41,-0.91 0.91,-0.91l4.09 0c0.37,-1.59 0.75,-3.16 1.15,-4.7l-3.5 0c-0.5,0 -0.91,-0.41 -0.91,-0.91l0 0c0,-0.5 0.41,-0.91 0.91,-0.91l3.99 0c0.38,-1.36 0.77,-2.68 1.17,-3.97l-3.05 0c-0.5,0 -0.91,-0.41 -0.91,-0.91l0 0c0,-0.5 0.41,-0.91 0.91,-0.91l3.64 0c0.48,-1.41 0.96,-2.76 1.47,-4.03l-4.98 0c-0.5,0 -0.91,-0.41 -0.91,-0.91l0 0c0,-0.5 0.41,-0.91 0.91,-0.91l5.75 0c0.71,-1.6 1.44,-3.05 2.2,-4.28l-3.94 0c-0.5,0 -0.91,-0.41 -0.91,-0.91l0 0c0,-0.5 0.41,-0.91 0.91,-0.91l5.2 0c1.46,-1.87 3,-2.94 4.59,-2.94l0 0c0.54,0 1.92,0.93 3.59,2.94l6.9 0c0.5,0 0.91,0.41 0.91,0.91l0 0c0,0.5 -0.41,0.91 -0.91,0.91l-5.52 0c0.82,1.19 1.66,2.61 2.47,4.28l4.65 0c0.5,0 0.91,0.41 0.91,0.91l0 0c0,0.5 -0.41,0.91 -0.91,0.91l-3.81 0c0.53,1.23 1.04,2.57 1.52,4.03l3.94 0c0.5,0 0.91,0.41 0.91,0.91l0 0c0,0.5 -0.41,0.91 -0.91,0.91l-3.38 0 0.02 0.06 1.23 3.01 7.39 0 -2.2 27.95c-0.01,0.15 0.04,0.29 0.14,0.41 0.1,0.11 0.24,0.17 0.39,0.17l9.56 0c0.15,0 0.29,-0.06 0.39,-0.17 0.1,-0.11 0.15,-0.25 0.14,-0.41l-2.01 -27.96 10.27 0 -2.19 27.81c-0.01,0.15 0.04,0.29 0.14,0.41 0.1,0.11 0.24,0.17 0.39,0.17l4.87 0 0 6.44 12.28 0 0 -6.84 4.07 0c0,0.14 0.05,0.26 0.14,0.37 0.1,0.11 0.24,0.17 0.39,0.17l9.56 0c0.15,0 0.29,-0.06 0.39,-0.17 0.1,-0.1 0.14,-0.23 0.14,-0.37l0.54 0 4.96 0 0.54 0c0,0.14 0.05,0.26 0.14,0.37 0.1,0.11 0.24,0.17 0.39,0.17l9.56 0c0.15,0 0.29,-0.06 0.39,-0.17 0.1,-0.1 0.14,-0.23 0.14,-0.37l4.07 0 0 6.84 12.28 0 0 -6.44 4.87 0c0.15,0 0.29,-0.06 0.39,-0.17 0.1,-0.11 0.15,-0.25 0.14,-0.41l-2.19 -27.81 10.27 0 -2.01 27.96c-0.01,0.16 0.04,0.29 0.14,0.41 0.1,0.11 0.24,0.17 0.39,0.17l9.56 0c0.15,0 0.29,-0.06 0.39,-0.17 0.1,-0.11 0.15,-0.25 0.14,-0.41l-2.2 -27.95 7.39 0 1.23 -3.01 0.02 -0.06 -3.38 0c-0.5,0 -0.91,-0.41 -0.91,-0.91l0 0c0,-0.5 0.41,-0.91 0.91,-0.91l3.94 0c0.48,-1.46 0.99,-2.8 1.52,-4.03l-3.81 0c-0.5,0 -0.91,-0.41 -0.91,-0.91l0 0c0,-0.5 0.41,-0.91 0.91,-0.91l4.65 0c0.82,-1.67 1.66,-3.1 2.47,-4.28l-5.52 0c-0.5,0 -0.91,-0.41 -0.91,-0.91l0 0c0,-0.5 0.41,-0.91 0.91,-0.91l6.9 0c1.66,-2.01 3.04,-2.94 3.59,-2.94l0 0c1.59,0 3.13,1.08 4.59,2.94l5.2 0c0.5,0 0.91,0.41 0.91,0.91l0 0c0,0.5 -0.41,0.91 -0.91,0.91l-3.94 0c0.76,1.24 1.49,2.68 2.2,4.28l5.75 0c0.5,0 0.91,0.41 0.91,0.91l0 0c0,0.5 -0.41,0.91 -0.91,0.91l-4.98 0c0.51,1.27 1,2.62 1.47,4.03l3.64 0c0.5,0 0.91,0.41 0.91,0.91l0 0c0,0.5 -0.41,0.91 -0.91,0.91l-3.05 0c0.4,1.29 0.79,2.61 1.17,3.97l3.99 0c0.5,0 0.91,0.41 0.91,0.91l0 0c0,0.5 -0.41,0.91 -0.91,0.91l-3.5 0c0.4,1.54 0.79,3.12 1.15,4.7l4.09 0c0.5,0 0.91,0.41 0.91,0.91l0 0c0,0.5 -0.41,0.91 -0.91,0.91l-3.68 0c0.26,1.17 0.51,2.35 0.74,3.53l4.06 0c0.5,0 0.91,0.41 0.91,0.91l0 0c0,0.5 -0.41,0.91 -0.91,0.91l-3.7 0c0.27,1.41 0.52,2.81 0.76,4.19l3 0c0.5,0 0.91,0.41 0.91,0.91l0 0c0,0.5 -0.41,0.91 -0.91,0.91l-2.69 0c0.86,5.3 1.44,10.26 1.71,14.21l1.52 0 0 -0.03 3.45 0 0 -0 0 0 3.29 0 0.02 -1.85 -2.03 -0.1 -0.01 -2.49 6.36 -1.25 0.08 -2.52c-3.39,-0.52 -6.05,-2.61 -7.05,-8.24 27.07,-25.55 43.26,-38.13 43.92,-38.13 0.37,0 17.27,12.31 44.79,36.68l-0 0c1.06,4.45 -2.52,7.59 -10.7,9.44l11.04 2.71 0.41 5.75 3.82 0 0 0 13.88 0 4.01 -23.6c6.86,-40.43 24.77,-41.86 33.01,-1.05zm-244.93 -16.85l0 0c-1.41,0 -2.45,3.85 -2.56,5.26l-2.32 29.43 9.56 0 -2.12 -29.43c-0.1,-1.4 -1.15,-5.26 -2.56,-5.26l0 0zm-17.29 24.13l12.7 0 1.37 -17.43 -4.71 0c-0.96,-3.91 -2.09,-7.32 -3.12,-7.32l0 0c-1.07,0 -2.17,3.4 -3.09,7.32l-4.4 0 1.26 17.43 -0 0zm9.28 -4.1c-0.21,0 -0.4,0.09 -0.53,0.22 -0.14,0.14 -0.22,0.33 -0.22,0.53 0,0.21 0.09,0.4 0.22,0.53 0.14,0.14 0.33,0.22 0.54,0.22 0.21,0 0.4,-0.09 0.53,-0.22 0.14,-0.14 0.22,-0.33 0.22,-0.54 0,-0.21 -0.09,-0.4 -0.22,-0.53 -0.14,-0.14 -0.33,-0.22 -0.54,-0.22l0 0zm-6.95 0c-0.21,0 -0.4,0.09 -0.53,0.22 -0.14,0.14 -0.22,0.33 -0.22,0.53 0,0.21 0.09,0.4 0.22,0.53 0.14,0.14 0.33,0.22 0.54,0.22 0.21,0 0.4,-0.09 0.53,-0.22 0.14,-0.14 0.22,-0.33 0.22,-0.54 0,-0.21 -0.09,-0.4 -0.22,-0.53 -0.14,-0.14 -0.33,-0.22 -0.53,-0.22l-0 0zm-0.28 0.48c0.07,-0.07 0.17,-0.12 0.28,-0.12 0.11,0 0.21,0.05 0.28,0.12 0.07,0.07 0.12,0.17 0.12,0.28 0,0.11 -0.05,0.21 -0.12,0.28 -0.07,0.07 -0.17,0.12 -0.28,0.12 -0.11,0 -0.21,-0.05 -0.28,-0.12 -0.07,-0.07 -0.12,-0.17 -0.12,-0.28 0,-0.11 0.05,-0.21 0.12,-0.28zm2.44 -0.48c-0.21,0 -0.4,0.09 -0.53,0.22 -0.14,0.14 -0.22,0.33 -0.22,0.53 0,0.21 0.09,0.4 0.22,0.53 0.14,0.14 0.33,0.22 0.54,0.22 0.21,0 0.4,-0.09 0.53,-0.22 0.14,-0.14 0.22,-0.33 0.22,-0.54 0,-0.21 -0.09,-0.4 -0.22,-0.53 -0.14,-0.14 -0.33,-0.22 -0.54,-0.22l0 0zm-0.28 0.48c0.07,-0.07 0.17,-0.12 0.28,-0.12 0.11,0 0.21,0.05 0.28,0.12 0.07,0.07 0.12,0.17 0.12,0.28 0,0.11 -0.05,0.21 -0.12,0.28 -0.07,0.07 -0.17,0.12 -0.28,0.12 -0.11,0 -0.21,-0.05 -0.28,-0.12 -0.07,-0.07 -0.12,-0.17 -0.12,-0.28 0,-0.11 0.05,-0.21 0.12,-0.28zm2.54 -0.48c-0.21,0 -0.4,0.09 -0.53,0.22 -0.14,0.14 -0.22,0.33 -0.22,0.53 0,0.21 0.09,0.4 0.22,0.53 0.14,0.14 0.33,0.22 0.54,0.22 0.21,0 0.4,-0.09 0.53,-0.22 0.14,-0.14 0.22,-0.33 0.22,-0.54 0,-0.21 -0.09,-0.4 -0.22,-0.53 -0.14,-0.14 -0.33,-0.22 -0.53,-0.22l-0 0zm-0.28 0.48c0.07,-0.07 0.17,-0.12 0.28,-0.12 0.11,0 0.21,0.05 0.28,0.12 0.07,0.07 0.12,0.17 0.12,0.28 0,0.11 -0.05,0.21 -0.12,0.28 -0.07,0.07 -0.17,0.12 -0.28,0.12 -0.11,0 -0.21,-0.05 -0.28,-0.12 -0.07,-0.07 -0.12,-0.17 -0.12,-0.28 0,-0.11 0.05,-0.21 0.12,-0.28zm2.53 0c0.07,-0.07 0.17,-0.12 0.28,-0.12 0.11,0 0.21,0.05 0.28,0.12 0.07,0.07 0.12,0.17 0.12,0.28 0,0.11 -0.05,0.21 -0.12,0.28 -0.07,0.07 -0.17,0.12 -0.28,0.12 -0.11,0 -0.21,-0.05 -0.28,-0.12 -0.07,-0.07 -0.12,-0.17 -0.12,-0.28 0,-0.11 0.05,-0.21 0.12,-0.28zm-0.1 -6.42c-0.24,0 -0.43,0.35 -0.43,0.79 0,0.43 0.19,0.79 0.43,0.79 0.24,0 0.43,-0.35 0.43,-0.79 0,-0.43 -0.19,-0.79 -0.43,-0.79zm-2.79 -7.74c-0.24,0 -0.43,0.35 -0.43,0.79 0,0.43 0.19,0.79 0.43,0.79 0.24,0 0.43,-0.35 0.43,-0.79 0,-0.43 -0.19,-0.79 -0.43,-0.79zm-0.76 2.37c-0.24,0 -0.43,0.35 -0.43,0.79 0,0.43 0.19,0.79 0.43,0.79 0.24,0 0.43,-0.35 0.43,-0.79 0,-0.43 -0.19,-0.79 -0.43,-0.79zm1.82 0c-0.24,0 -0.43,0.35 -0.43,0.79 0,0.43 0.19,0.79 0.43,0.79 0.24,0 0.43,-0.35 0.43,-0.79 0,-0.43 -0.19,-0.79 -0.43,-0.79zm-2.68 2.68c-0.24,0 -0.43,0.35 -0.43,0.79 0,0.43 0.19,0.79 0.43,0.79 0.24,0 0.43,-0.35 0.43,-0.79 0,-0.43 -0.19,-0.79 -0.43,-0.79zm1.72 0c-0.24,0 -0.43,0.35 -0.43,0.79 0,0.43 0.19,0.79 0.43,0.79 0.24,0 0.43,-0.35 0.43,-0.79 0,-0.43 -0.19,-0.79 -0.43,-0.79zm1.82 0c-0.24,0 -0.43,0.35 -0.43,0.79 0,0.43 0.19,0.79 0.43,0.79 0.24,0 0.43,-0.35 0.43,-0.79 0,-0.43 -0.19,-0.79 -0.43,-0.79zm-4.69 2.68c-0.24,0 -0.43,0.35 -0.43,0.79 0,0.43 0.19,0.79 0.43,0.79 0.24,0 0.43,-0.35 0.43,-0.79 0,-0.43 -0.19,-0.79 -0.43,-0.79zm2 0c-0.24,0 -0.43,0.35 -0.43,0.79 0,0.43 0.19,0.79 0.43,0.79 0.24,0 0.43,-0.35 0.43,-0.79 0,-0.43 -0.19,-0.79 -0.43,-0.79zm1.72 0c-0.24,0 -0.43,0.35 -0.43,0.79 0,0.43 0.19,0.79 0.43,0.79 0.24,0 0.43,-0.35 0.43,-0.79 0,-0.43 -0.19,-0.79 -0.43,-0.79zm-48.85 -14.15l0 0c-1.41,0 -2.28,4.02 -2.56,5.45l-6 30.5 16.92 0 -5.79 -30.5c-0.27,-1.43 -1.15,-5.45 -2.56,-5.45l-0 0zm-0.1 15.53c-0.35,0 -0.67,0.14 -0.9,0.37l0 0c-0.23,0.23 -0.37,0.55 -0.37,0.9 0,0.35 0.14,0.67 0.37,0.9 0.23,0.23 0.55,0.37 0.9,0.37 0.35,0 0.67,-0.14 0.9,-0.37 0.23,-0.23 0.37,-0.55 0.37,-0.9 0,-0.35 -0.14,-0.67 -0.37,-0.9 -0.23,-0.23 -0.55,-0.37 -0.9,-0.37l0 0.01zm3.21 14.86c-0.35,0 -0.67,0.14 -0.9,0.37l0 0c-0.23,0.23 -0.37,0.55 -0.37,0.9 0,0.35 0.14,0.67 0.37,0.9 0.23,0.23 0.55,0.37 0.9,0.37 0.35,0 0.67,-0.14 0.9,-0.37 0.23,-0.23 0.37,-0.55 0.37,-0.9 0,-0.35 -0.14,-0.67 -0.37,-0.9 -0.23,-0.23 -0.55,-0.37 -0.9,-0.37l0 0.01zm-0.39 0.88c0.1,-0.1 0.24,-0.16 0.39,-0.16 0.15,0 0.29,0.06 0.39,0.16l0 0c0.1,0.1 0.16,0.24 0.16,0.39 0,0.15 -0.06,0.29 -0.16,0.39 -0.1,0.1 -0.24,0.16 -0.39,0.16 -0.15,0 -0.29,-0.06 -0.39,-0.16l0 0c-0.1,-0.1 -0.16,-0.24 -0.16,-0.39 0,-0.15 0.06,-0.29 0.16,-0.39l0 0zm0.6 -7.41c-0.35,0 -0.67,0.14 -0.9,0.37l0 0c-0.23,0.23 -0.37,0.55 -0.37,0.9 0,0.35 0.14,0.67 0.37,0.9 0.23,0.23 0.55,0.37 0.9,0.37 0.35,0 0.67,-0.14 0.9,-0.37 0.23,-0.23 0.37,-0.55 0.37,-0.9 0,-0.35 -0.14,-0.67 -0.37,-0.9 -0.23,-0.23 -0.55,-0.37 -0.9,-0.37l0 0.01zm-0.39 0.88c0.1,-0.1 0.24,-0.16 0.39,-0.16 0.15,0 0.29,0.06 0.39,0.16l0 0c0.1,0.1 0.16,0.24 0.16,0.39 0,0.15 -0.06,0.29 -0.16,0.39 -0.1,0.1 -0.24,0.16 -0.39,0.16 -0.15,0 -0.29,-0.06 -0.39,-0.16l0 0c-0.1,-0.1 -0.16,-0.24 -0.16,-0.39 0,-0.15 0.06,-0.29 0.16,-0.39l0 0zm-6.21 5.86c-0.35,0 -0.67,0.14 -0.9,0.37l0 0c-0.23,0.23 -0.37,0.55 -0.37,0.9 0,0.35 0.14,0.67 0.37,0.9 0.23,0.23 0.55,0.37 0.9,0.37 0.35,0 0.67,-0.14 0.9,-0.37 0.23,-0.23 0.37,-0.55 0.37,-0.9 0,-0.35 -0.14,-0.67 -0.37,-0.9 -0.23,-0.23 -0.55,-0.37 -0.9,-0.37l0 0.01zm-0.39 0.88c0.1,-0.1 0.24,-0.16 0.39,-0.16 0.15,0 0.29,0.06 0.39,0.16l0 0c0.1,0.1 0.16,0.24 0.16,0.39 0,0.15 -0.06,0.29 -0.16,0.39 -0.1,0.1 -0.24,0.16 -0.39,0.16 -0.15,0 -0.29,-0.06 -0.39,-0.16l0 0c-0.1,-0.1 -0.16,-0.24 -0.16,-0.39 0,-0.15 0.06,-0.29 0.16,-0.39l0 0zm3.76 -26.15c-0.35,0 -0.67,0.14 -0.9,0.37l0 0c-0.23,0.23 -0.37,0.55 -0.37,0.9 0,0.35 0.14,0.67 0.37,0.9 0.23,0.23 0.55,0.37 0.9,0.37 0.35,0 0.67,-0.14 0.9,-0.37 0.23,-0.23 0.37,-0.55 0.37,-0.9 0,-0.35 -0.14,-0.67 -0.37,-0.9 -0.23,-0.23 -0.55,-0.37 -0.9,-0.37l0 0.01zm-0.39 0.88c0.1,-0.1 0.24,-0.16 0.39,-0.16 0.15,0 0.29,0.06 0.39,0.16l0 0c0.1,0.1 0.16,0.24 0.16,0.39 0,0.15 -0.06,0.29 -0.16,0.39 -0.1,0.1 -0.24,0.16 -0.39,0.16 -0.15,0 -0.29,-0.06 -0.39,-0.16l0 0c-0.1,-0.1 -0.16,-0.24 -0.16,-0.39 0,-0.15 0.06,-0.29 0.16,-0.39l0 0zm-2.77 17.72c-0.35,0 -0.67,0.14 -0.9,0.37l0 0c-0.23,0.23 -0.37,0.55 -0.37,0.9 0,0.35 0.14,0.67 0.37,0.9 0.23,0.23 0.55,0.37 0.9,0.37 0.35,0 0.67,-0.14 0.9,-0.37 0.23,-0.23 0.37,-0.55 0.37,-0.9 0,-0.35 -0.14,-0.67 -0.37,-0.9 -0.23,-0.23 -0.55,-0.37 -0.9,-0.37l0 0.01zm-0.39 0.88c0.1,-0.1 0.24,-0.16 0.39,-0.16 0.15,0 0.29,0.06 0.39,0.16l0 0c0.1,0.1 0.16,0.24 0.16,0.39 0,0.15 -0.06,0.29 -0.16,0.39 -0.1,0.1 -0.24,0.16 -0.39,0.16 -0.15,0 -0.29,-0.06 -0.39,-0.16l0 0c-0.1,-0.1 -0.16,-0.24 -0.16,-0.39 0,-0.15 0.06,-0.29 0.16,-0.39l0 0zm2.97 -8.4c0.1,-0.1 0.24,-0.16 0.39,-0.16 0.15,0 0.29,0.06 0.39,0.16l0 0c0.1,0.1 0.16,0.24 0.16,0.39 0,0.15 -0.06,0.29 -0.16,0.39 -0.1,0.1 -0.24,0.16 -0.39,0.16 -0.15,0 -0.29,-0.06 -0.39,-0.16l0 0c-0.1,-0.1 -0.16,-0.24 -0.16,-0.39 0,-0.15 0.06,-0.29 0.16,-0.39l0 0zm21.1 -16.34l0 0c-1.41,0 -2.45,3.85 -2.56,5.26l-2.32 29.43 9.56 0 -2.12 -29.43c-0.1,-1.4 -1.15,-5.26 -2.56,-5.26l0 0zm-0.2 4.89c-0.35,0 -0.67,0.14 -0.9,0.37l0 0c-0.23,0.23 -0.37,0.55 -0.37,0.9 0,0.35 0.14,0.67 0.37,0.9 0.23,0.23 0.55,0.37 0.9,0.37 0.35,0 0.67,-0.14 0.9,-0.37 0.23,-0.23 0.37,-0.55 0.37,-0.9 0,-0.35 -0.14,-0.67 -0.37,-0.9 -0.23,-0.23 -0.55,-0.37 -0.9,-0.37l0 0.01zm0.19 21.7c-0.35,0 -0.67,0.14 -0.9,0.37l0 0c-0.23,0.23 -0.37,0.55 -0.37,0.9 0,0.35 0.14,0.67 0.37,0.9 0.23,0.23 0.55,0.37 0.9,0.37 0.35,0 0.67,-0.14 0.9,-0.37 0.23,-0.23 0.37,-0.55 0.37,-0.9 0,-0.35 -0.14,-0.67 -0.37,-0.9 -0.23,-0.23 -0.55,-0.37 -0.9,-0.37l0 0.01zm-0.39 0.88c0.1,-0.1 0.24,-0.16 0.39,-0.16 0.15,0 0.29,0.06 0.39,0.16l0 0c0.1,0.1 0.16,0.24 0.16,0.39 0,0.15 -0.06,0.29 -0.16,0.39 -0.1,0.1 -0.24,0.16 -0.39,0.16 -0.15,0 -0.29,-0.06 -0.39,-0.16l0 0c-0.1,-0.1 -0.16,-0.24 -0.16,-0.39 0,-0.15 0.06,-0.29 0.16,-0.39l0 0zm0.53 -12.32c-0.35,0 -0.67,0.14 -0.9,0.37l0 0c-0.23,0.23 -0.37,0.55 -0.37,0.9 0,0.35 0.14,0.67 0.37,0.9 0.23,0.23 0.55,0.37 0.9,0.37 0.35,0 0.67,-0.14 0.9,-0.37 0.23,-0.23 0.37,-0.55 0.37,-0.9 0,-0.35 -0.14,-0.67 -0.37,-0.9 -0.23,-0.23 -0.55,-0.37 -0.9,-0.37l0 0.01zm-0.39 0.88c0.1,-0.1 0.24,-0.16 0.39,-0.16 0.15,0 0.29,0.06 0.39,0.16l0 0c0.1,0.1 0.16,0.24 0.16,0.39 0,0.15 -0.06,0.29 -0.16,0.39 -0.1,0.1 -0.24,0.16 -0.39,0.16 -0.15,0 -0.29,-0.06 -0.39,-0.16l0 0c-0.1,-0.1 -0.16,-0.24 -0.16,-0.39 0,-0.15 0.06,-0.29 0.16,-0.39l0 0zm-0.34 -10.26c0.1,-0.1 0.24,-0.16 0.39,-0.16 0.15,0 0.29,0.06 0.39,0.16l0 0c0.1,0.1 0.16,0.24 0.16,0.39 0,0.15 -0.06,0.29 -0.16,0.39 -0.1,0.1 -0.24,0.16 -0.39,0.16 -0.15,0 -0.29,-0.06 -0.39,-0.16l0 0c-0.1,-0.1 -0.16,-0.24 -0.16,-0.39 0,-0.15 0.06,-0.29 0.16,-0.39l0 0zm-14.87 -4.15c-0.35,0 -0.67,0.14 -0.9,0.37l0 0c-0.23,0.23 -0.37,0.55 -0.37,0.9 0,0.35 0.14,0.67 0.37,0.9 0.23,0.23 0.55,0.37 0.9,0.37 0.35,0 0.67,-0.14 0.9,-0.37 0.23,-0.23 0.37,-0.55 0.37,-0.9 0,-0.35 -0.14,-0.67 -0.37,-0.9 -0.23,-0.23 -0.55,-0.37 -0.9,-0.37l0 0.01zm-17.34 23.51c-0.35,0 -0.67,0.14 -0.9,0.37l0 0c-0.23,0.23 -0.37,0.55 -0.37,0.9 0,0.35 0.14,0.67 0.37,0.9 0.23,0.23 0.55,0.37 0.9,0.37 0.35,0 0.67,-0.14 0.9,-0.37 0.23,-0.23 0.37,-0.55 0.37,-0.9 0,-0.35 -0.14,-0.67 -0.37,-0.9 -0.23,-0.23 -0.55,-0.37 -0.9,-0.37l0 0.01zm-0.39 0.88c0.1,-0.1 0.24,-0.16 0.39,-0.16 0.15,0 0.29,0.06 0.39,0.16l0 0c0.1,0.1 0.16,0.24 0.16,0.39 0,0.15 -0.06,0.29 -0.16,0.39 -0.1,0.1 -0.24,0.16 -0.39,0.16 -0.15,0 -0.29,-0.06 -0.39,-0.16l0 0c-0.1,-0.1 -0.16,-0.24 -0.16,-0.39 0,-0.15 0.06,-0.29 0.16,-0.39l0 0zm1.25 -6.65c-0.35,0 -0.67,0.14 -0.9,0.37l0 0c-0.23,0.23 -0.37,0.55 -0.37,0.9 0,0.35 0.14,0.67 0.37,0.9 0.23,0.23 0.55,0.38 0.9,0.38 0.35,0 0.67,-0.14 0.9,-0.37 0.23,-0.23 0.37,-0.55 0.37,-0.9 0,-0.35 -0.14,-0.67 -0.37,-0.9 -0.23,-0.23 -0.55,-0.37 -0.9,-0.37l0 0zm-0.39 0.88c0.1,-0.1 0.24,-0.16 0.39,-0.16 0.15,0 0.29,0.06 0.39,0.16l0 0c0.1,0.1 0.16,0.24 0.16,0.39 0,0.15 -0.06,0.29 -0.16,0.39 -0.1,0.1 -0.24,0.16 -0.39,0.16 -0.15,0 -0.29,-0.06 -0.39,-0.16l0 0c-0.1,-0.1 -0.16,-0.24 -0.16,-0.39 0,-0.15 0.06,-0.29 0.16,-0.39l0 0zm3.12 -13.01c-0.35,0 -0.67,0.14 -0.9,0.37l0 0c-0.23,0.23 -0.37,0.55 -0.37,0.9 0,0.35 0.14,0.67 0.37,0.9 0.23,0.23 0.55,0.38 0.9,0.38 0.35,0 0.67,-0.14 0.9,-0.37 0.23,-0.23 0.37,-0.55 0.37,-0.9 0,-0.35 -0.14,-0.67 -0.37,-0.9 -0.23,-0.23 -0.55,-0.37 -0.9,-0.37l0 0zm-0.39 0.88c0.1,-0.1 0.24,-0.16 0.39,-0.16 0.15,0 0.29,0.06 0.39,0.16l0 0c0.1,0.1 0.16,0.24 0.16,0.39 0,0.15 -0.06,0.29 -0.16,0.39 -0.1,0.1 -0.24,0.16 -0.39,0.16 -0.15,0 -0.29,-0.06 -0.39,-0.16l0 0c-0.1,-0.1 -0.16,-0.24 -0.16,-0.39 0,-0.15 0.06,-0.29 0.16,-0.39l0 0zm-1.36 5.65c-0.35,0 -0.67,0.14 -0.9,0.37l0 0c-0.23,0.23 -0.37,0.55 -0.37,0.9 0,0.35 0.14,0.67 0.37,0.9 0.23,0.23 0.55,0.37 0.9,0.37 0.35,0 0.67,-0.14 0.9,-0.37 0.23,-0.23 0.37,-0.55 0.37,-0.9 0,-0.35 -0.14,-0.67 -0.37,-0.9 -0.23,-0.23 -0.55,-0.37 -0.9,-0.37l0 0.01zm-0.39 0.88c0.1,-0.1 0.24,-0.16 0.39,-0.16 0.15,0 0.29,0.06 0.39,0.16l0 0c0.1,0.1 0.16,0.24 0.16,0.39 0,0.15 -0.06,0.29 -0.16,0.39 -0.1,0.1 -0.24,0.16 -0.39,0.16 -0.15,0 -0.29,-0.06 -0.39,-0.16l0 0c-0.1,-0.1 -0.16,-0.24 -0.16,-0.39 0,-0.15 0.06,-0.29 0.16,-0.39l0 0zm3.97 -13.09c-0.35,0 -0.67,0.14 -0.9,0.37l0 0c-0.23,0.23 -0.37,0.55 -0.37,0.9 0,0.35 0.14,0.67 0.37,0.9 0.23,0.23 0.55,0.37 0.9,0.37 0.35,0 0.67,-0.14 0.9,-0.37 0.23,-0.23 0.37,-0.55 0.37,-0.9 0,-0.35 -0.14,-0.67 -0.37,-0.9 -0.23,-0.23 -0.55,-0.37 -0.9,-0.37l0 0.01zm-0.39 0.88c0.1,-0.1 0.24,-0.16 0.39,-0.16 0.15,0 0.29,0.06 0.39,0.16l0 0c0.1,0.1 0.16,0.24 0.16,0.39 0,0.15 -0.06,0.29 -0.16,0.39 -0.1,0.1 -0.24,0.16 -0.39,0.16 -0.15,0 -0.29,-0.06 -0.39,-0.16l0 0c-0.1,-0.1 -0.16,-0.24 -0.16,-0.39 0,-0.15 0.06,-0.29 0.16,-0.39l0 0zm1.93 -6.85c-0.35,0 -0.67,0.14 -0.9,0.37l0 0c-0.23,0.23 -0.37,0.55 -0.37,0.9 0,0.35 0.14,0.67 0.37,0.9 0.23,0.23 0.55,0.37 0.9,0.37 0.35,0 0.67,-0.14 0.9,-0.37 0.23,-0.23 0.37,-0.55 0.37,-0.9 0,-0.35 -0.14,-0.67 -0.37,-0.9 -0.23,-0.23 -0.55,-0.37 -0.9,-0.37l0 0.01zm-0.39 0.88c0.1,-0.1 0.24,-0.16 0.39,-0.16 0.15,0 0.29,0.06 0.39,0.16l0 0c0.1,0.1 0.16,0.24 0.16,0.39 0,0.15 -0.06,0.29 -0.16,0.39 -0.1,0.1 -0.24,0.16 -0.39,0.16 -0.15,0 -0.29,-0.06 -0.39,-0.16l0 0c-0.1,-0.1 -0.16,-0.24 -0.16,-0.39 0,-0.15 0.06,-0.29 0.16,-0.39l0 0zm4.39 -6.99c-0.35,0 -0.67,0.14 -0.9,0.37l0 0c-0.23,0.23 -0.37,0.55 -0.37,0.9 0,0.35 0.14,0.67 0.37,0.9 0.23,0.23 0.55,0.37 0.9,0.37 0.35,0 0.67,-0.14 0.9,-0.37 0.23,-0.23 0.37,-0.55 0.37,-0.9 0,-0.35 -0.14,-0.67 -0.37,-0.9 -0.23,-0.23 -0.55,-0.37 -0.9,-0.37l0 0.01zm-0.39 0.88c0.1,-0.1 0.24,-0.16 0.39,-0.16 0.15,0 0.29,0.06 0.39,0.16l0 0c0.1,0.1 0.16,0.24 0.16,0.39 0,0.15 -0.06,0.29 -0.16,0.39 -0.1,0.1 -0.24,0.16 -0.39,0.16 -0.15,0 -0.29,-0.06 -0.39,-0.16l0 0c-0.1,-0.1 -0.16,-0.24 -0.16,-0.39 0,-0.15 0.06,-0.29 0.16,-0.39l0 0zm3.83 5.08c-0.35,0 -0.67,0.14 -0.9,0.37l0 0c-0.23,0.23 -0.37,0.55 -0.37,0.9 0,0.35 0.14,0.67 0.37,0.9 0.23,0.23 0.55,0.38 0.9,0.38 0.35,0 0.67,-0.14 0.9,-0.37 0.23,-0.23 0.37,-0.55 0.37,-0.9 0,-0.35 -0.14,-0.67 -0.37,-0.9 -0.23,-0.23 -0.55,-0.37 -0.9,-0.37l0 0zm-0.39 0.88c0.1,-0.1 0.24,-0.16 0.39,-0.16 0.15,0 0.29,0.06 0.39,0.16l0 0c0.1,0.1 0.16,0.24 0.16,0.39 0,0.15 -0.06,0.29 -0.16,0.39 -0.1,0.1 -0.24,0.16 -0.39,0.16 -0.15,0 -0.29,-0.06 -0.39,-0.16l0 0c-0.1,-0.1 -0.16,-0.24 -0.16,-0.39 0,-0.15 0.06,-0.29 0.16,-0.39l0 0zm2.95 6.18c0.1,-0.1 0.24,-0.16 0.39,-0.16 0.15,0 0.29,0.06 0.39,0.16l0 0c0.1,0.1 0.16,0.24 0.16,0.39 0,0.15 -0.06,0.29 -0.16,0.39 -0.1,0.1 -0.24,0.16 -0.39,0.16 -0.15,0 -0.29,-0.06 -0.39,-0.16l0 0c-0.1,-0.1 -0.16,-0.24 -0.16,-0.39 0,-0.15 0.06,-0.29 0.16,-0.39l0 0zm-4.75 -3.1c-1.93,0 -2.8,4.41 -3.09,5.88l-6 30.5c-0.03,0.16 0,0.32 0.11,0.45 0.1,0.13 0.25,0.19 0.42,0.19l16.92 0c0.17,0 0.31,-0.07 0.42,-0.19 0.1,-0.13 0.14,-0.28 0.11,-0.44l-5.79 -30.5c-0.28,-1.48 -1.16,-5.89 -3.09,-5.89l-0 0zm37.45 15.61c-0.35,0 -0.67,0.14 -0.9,0.37l0 0c-0.23,0.23 -0.37,0.55 -0.37,0.9 0,0.35 0.14,0.67 0.37,0.9 0.23,0.23 0.55,0.38 0.9,0.38 0.35,0 0.67,-0.14 0.9,-0.37 0.23,-0.23 0.37,-0.55 0.37,-0.9 0,-0.35 -0.14,-0.67 -0.37,-0.9 -0.23,-0.23 -0.55,-0.37 -0.9,-0.37l0 0zm-0.34 -10.26c-0.35,0 -0.67,0.14 -0.9,0.37l0 0c-0.23,0.23 -0.37,0.55 -0.37,0.9 0,0.35 0.14,0.67 0.37,0.9 0.23,0.23 0.55,0.38 0.9,0.38 0.35,0 0.67,-0.14 0.9,-0.37 0.23,-0.23 0.37,-0.55 0.37,-0.9 0,-0.35 -0.14,-0.67 -0.37,-0.9 -0.23,-0.23 -0.55,-0.37 -0.9,-0.37l0 0zm-0.39 0.88c0.1,-0.1 0.24,-0.16 0.39,-0.16 0.15,0 0.29,0.06 0.39,0.16l0 0c0.1,0.1 0.16,0.24 0.16,0.39 0,0.15 -0.06,0.29 -0.16,0.39 -0.1,0.1 -0.24,0.16 -0.39,0.16 -0.15,0 -0.29,-0.06 -0.39,-0.16l0 0c-0.1,-0.1 -0.16,-0.24 -0.16,-0.39 0,-0.15 0.06,-0.29 0.16,-0.39l0 0zm0.59 20.82c-0.35,0 -0.67,0.14 -0.9,0.37l0 0c-0.23,0.23 -0.37,0.55 -0.37,0.9 0,0.35 0.14,0.67 0.37,0.9 0.23,0.23 0.55,0.37 0.9,0.37 0.35,0 0.67,-0.14 0.9,-0.37 0.23,-0.23 0.37,-0.55 0.37,-0.9 0,-0.35 -0.14,-0.67 -0.37,-0.9 -0.23,-0.23 -0.55,-0.37 -0.9,-0.37l0 0.01zm-0.39 0.88c0.1,-0.1 0.24,-0.16 0.39,-0.16 0.15,0 0.29,0.06 0.39,0.16l0 0c0.1,0.1 0.16,0.24 0.16,0.39 0,0.15 -0.06,0.29 -0.16,0.39 -0.1,0.1 -0.24,0.16 -0.39,0.16 -0.15,0 -0.29,-0.06 -0.39,-0.16l0 0c-0.1,-0.1 -0.16,-0.24 -0.16,-0.39 0,-0.15 0.06,-0.29 0.16,-0.39l0 0zm0.14 -11.44c0.1,-0.1 0.24,-0.16 0.39,-0.16 0.15,0 0.29,0.06 0.39,0.16l0 0c0.1,0.1 0.16,0.24 0.16,0.39 0,0.15 -0.06,0.29 -0.16,0.39 -0.1,0.1 -0.24,0.16 -0.39,0.16 -0.15,0 -0.29,-0.06 -0.39,-0.16l0 0c-0.1,-0.1 -0.16,-0.24 -0.16,-0.39 0,-0.15 0.06,-0.29 0.16,-0.39l0 0zm0.25 -16.03l0 0c-1.41,0 -2.45,3.85 -2.56,5.26l-2.32 29.43 9.56 0 -2.12 -29.43c-0.1,-1.4 -1.15,-5.26 -2.56,-5.26l0 0zm21.9 15.29c-0.35,0 -0.67,0.14 -0.9,0.37l0 0c-0.23,0.23 -0.37,0.55 -0.37,0.9 0,0.35 0.14,0.67 0.37,0.9 0.23,0.23 0.55,0.37 0.9,0.37 0.35,0 0.67,-0.14 0.9,-0.37 0.23,-0.23 0.37,-0.55 0.37,-0.9 0,-0.35 -0.14,-0.67 -0.37,-0.9 -0.23,-0.23 -0.55,-0.37 -0.9,-0.37l0 0.01zm-0.34 -10.26c-0.35,0 -0.67,0.14 -0.9,0.37l0 0c-0.23,0.23 -0.37,0.55 -0.37,0.9 0,0.35 0.14,0.67 0.37,0.9 0.23,0.23 0.55,0.37 0.9,0.37 0.35,0 0.67,-0.14 0.9,-0.37 0.23,-0.23 0.37,-0.55 0.37,-0.9 0,-0.35 -0.14,-0.67 -0.37,-0.9 -0.23,-0.23 -0.55,-0.37 -0.9,-0.37l0 0.01zm-0.39 0.88c0.1,-0.1 0.24,-0.16 0.39,-0.16 0.15,0 0.29,0.06 0.39,0.16l0 0c0.1,0.1 0.16,0.24 0.16,0.39 0,0.15 -0.06,0.29 -0.16,0.39 -0.1,0.1 -0.24,0.16 -0.39,0.16 -0.15,0 -0.29,-0.06 -0.39,-0.16l0 0c-0.1,-0.1 -0.16,-0.24 -0.16,-0.39 0,-0.15 0.06,-0.29 0.16,-0.39l0 0zm0.59 20.82c-0.35,0 -0.67,0.14 -0.9,0.37l0 0c-0.23,0.23 -0.37,0.55 -0.37,0.9 0,0.35 0.14,0.67 0.37,0.9 0.23,0.23 0.55,0.37 0.9,0.37 0.35,0 0.67,-0.14 0.9,-0.37 0.23,-0.23 0.37,-0.55 0.37,-0.9 0,-0.35 -0.14,-0.67 -0.37,-0.9 -0.23,-0.23 -0.55,-0.37 -0.9,-0.37l0 0.01zm-0.39 0.88c0.1,-0.1 0.24,-0.16 0.39,-0.16 0.15,0 0.29,0.06 0.39,0.16l0 0c0.1,0.1 0.16,0.24 0.16,0.39 0,0.15 -0.06,0.29 -0.16,0.39 -0.1,0.1 -0.24,0.16 -0.39,0.16 -0.15,0 -0.29,-0.06 -0.39,-0.16l0 0c-0.1,-0.1 -0.16,-0.24 -0.16,-0.39 0,-0.15 0.06,-0.29 0.16,-0.39l0 0zm0.14 -11.44c0.1,-0.1 0.24,-0.16 0.39,-0.16 0.15,0 0.29,0.06 0.39,0.16l0 0c0.1,0.1 0.16,0.24 0.16,0.39 0,0.15 -0.06,0.29 -0.16,0.39 -0.1,0.1 -0.24,0.16 -0.39,0.16 -0.15,0 -0.29,-0.06 -0.39,-0.16l0 0c-0.1,-0.1 -0.16,-0.24 -0.16,-0.39 0,-0.15 0.06,-0.29 0.16,-0.39l0 0zm34 8.12l-12.7 0 -1.37 -17.43 4.71 0c0.96,-3.91 2.09,-7.32 3.12,-7.32l0 0c1.07,0 2.17,3.4 3.09,7.32l4.4 0 -1.26 17.43 0 0zm-9.28 -4.1c0.21,0 0.4,0.09 0.53,0.22 0.14,0.14 0.22,0.33 0.22,0.53 0,0.21 -0.09,0.4 -0.22,0.53 -0.14,0.14 -0.33,0.22 -0.54,0.22 -0.21,0 -0.4,-0.09 -0.53,-0.22 -0.14,-0.14 -0.22,-0.33 -0.22,-0.54 0,-0.21 0.09,-0.4 0.22,-0.53 0.14,-0.14 0.33,-0.22 0.54,-0.22l0 0zm6.95 0c0.21,0 0.4,0.09 0.53,0.22 0.14,0.14 0.22,0.33 0.22,0.53 0,0.21 -0.09,0.4 -0.22,0.53 -0.14,0.14 -0.33,0.22 -0.54,0.22 -0.21,0 -0.4,-0.09 -0.53,-0.22 -0.14,-0.14 -0.22,-0.33 -0.22,-0.54 0,-0.21 0.09,-0.4 0.22,-0.53 0.14,-0.14 0.33,-0.22 0.53,-0.22l0 0zm0.28 0.48c-0.07,-0.07 -0.17,-0.12 -0.28,-0.12 -0.11,0 -0.21,0.05 -0.28,0.12 -0.07,0.07 -0.12,0.17 -0.12,0.28 0,0.11 0.05,0.21 0.12,0.28 0.07,0.07 0.17,0.12 0.28,0.12 0.11,0 0.21,-0.05 0.28,-0.12 0.07,-0.07 0.12,-0.17 0.12,-0.28 0,-0.11 -0.05,-0.21 -0.12,-0.28zm-2.44 -0.48c0.21,0 0.4,0.09 0.53,0.22 0.14,0.14 0.22,0.33 0.22,0.53 0,0.21 -0.09,0.4 -0.22,0.53 -0.14,0.14 -0.33,0.22 -0.54,0.22 -0.21,0 -0.4,-0.09 -0.53,-0.22 -0.14,-0.14 -0.22,-0.33 -0.22,-0.54 0,-0.21 0.09,-0.4 0.22,-0.53 0.14,-0.14 0.33,-0.22 0.54,-0.22l0 0zm0.28 0.48c-0.07,-0.07 -0.17,-0.12 -0.28,-0.12 -0.11,0 -0.21,0.05 -0.28,0.12 -0.07,0.07 -0.12,0.17 -0.12,0.28 0,0.11 0.05,0.21 0.12,0.28 0.07,0.07 0.17,0.12 0.28,0.12 0.11,0 0.21,-0.05 0.28,-0.12 0.07,-0.07 0.12,-0.17 0.12,-0.28 0,-0.11 -0.05,-0.21 -0.12,-0.28zm-2.54 -0.48c0.21,0 0.4,0.09 0.53,0.22 0.14,0.14 0.22,0.33 0.22,0.53 0,0.21 -0.09,0.4 -0.22,0.53 -0.14,0.14 -0.33,0.22 -0.54,0.22 -0.21,0 -0.4,-0.09 -0.53,-0.22 -0.14,-0.14 -0.22,-0.33 -0.22,-0.54 0,-0.21 0.09,-0.4 0.22,-0.53 0.14,-0.14 0.33,-0.22 0.53,-0.22l0 0zm0.28 0.48c-0.07,-0.07 -0.17,-0.12 -0.28,-0.12 -0.11,0 -0.21,0.05 -0.28,0.12 -0.07,0.07 -0.12,0.17 -0.12,0.28 0,0.11 0.05,0.21 0.12,0.28 0.07,0.07 0.17,0.12 0.28,0.12 0.11,0 0.21,-0.05 0.28,-0.12 0.07,-0.07 0.12,-0.17 0.12,-0.28 0,-0.11 -0.05,-0.21 -0.12,-0.28zm-2.53 0c-0.07,-0.07 -0.17,-0.12 -0.28,-0.12 -0.11,0 -0.21,0.05 -0.28,0.12 -0.07,0.07 -0.12,0.17 -0.12,0.28 0,0.11 0.05,0.21 0.12,0.28 0.07,0.07 0.17,0.12 0.28,0.12 0.11,0 0.21,-0.05 0.28,-0.12 0.07,-0.07 0.12,-0.17 0.12,-0.28 0,-0.11 -0.05,-0.21 -0.12,-0.28zm0.1 -6.42c0.24,0 0.43,0.35 0.43,0.79 0,0.43 -0.19,0.79 -0.43,0.79 -0.24,0 -0.43,-0.35 -0.43,-0.79 0,-0.43 0.19,-0.79 0.43,-0.79zm2.79 -7.74c0.24,0 0.43,0.35 0.43,0.79 0,0.43 -0.19,0.79 -0.43,0.79 -0.24,0 -0.43,-0.35 -0.43,-0.79 0,-0.43 0.19,-0.79 0.43,-0.79zm0.76 2.37c0.24,0 0.43,0.35 0.43,0.79 0,0.43 -0.19,0.79 -0.43,0.79 -0.24,0 -0.43,-0.35 -0.43,-0.79 0,-0.43 0.19,-0.79 0.43,-0.79zm-1.82 0c0.24,0 0.43,0.35 0.43,0.79 0,0.43 -0.19,0.79 -0.43,0.79 -0.24,0 -0.43,-0.35 -0.43,-0.79 0,-0.43 0.19,-0.79 0.43,-0.79zm2.68 2.68c0.24,0 0.43,0.35 0.43,0.79 0,0.43 -0.19,0.79 -0.43,0.79 -0.24,0 -0.43,-0.35 -0.43,-0.79 0,-0.43 0.19,-0.79 0.43,-0.79zm-1.72 0c0.24,0 0.43,0.35 0.43,0.79 0,0.43 -0.19,0.79 -0.43,0.79 -0.24,0 -0.43,-0.35 -0.43,-0.79 0,-0.43 0.19,-0.79 0.43,-0.79zm-1.82 0c0.24,0 0.43,0.35 0.43,0.79 0,0.43 -0.19,0.79 -0.43,0.79 -0.24,0 -0.43,-0.35 -0.43,-0.79 0,-0.43 0.19,-0.79 0.43,-0.79zm4.69 2.68c0.24,0 0.43,0.35 0.43,0.79 0,0.43 -0.19,0.79 -0.43,0.79 -0.24,0 -0.43,-0.35 -0.43,-0.79 0,-0.43 0.19,-0.79 0.43,-0.79zm-2 0c0.24,0 0.43,0.35 0.43,0.79 0,0.43 -0.19,0.79 -0.43,0.79 -0.24,0 -0.43,-0.35 -0.43,-0.79 0,-0.43 0.19,-0.79 0.43,-0.79zm-1.72 0c0.24,0 0.43,0.35 0.43,0.79 0,0.43 -0.19,0.79 -0.43,0.79 -0.24,0 -0.43,-0.35 -0.43,-0.79 0,-0.43 0.19,-0.79 0.43,-0.79zm48.85 -14.15l0 0c1.41,0 2.28,4.02 2.56,5.45l6 30.5 -16.92 0 5.79 -30.5c0.27,-1.43 1.15,-5.45 2.56,-5.45l0 0zm0.1 15.53c0.35,0 0.67,0.14 0.9,0.37l0 0c0.23,0.23 0.37,0.55 0.37,0.9 0,0.35 -0.14,0.67 -0.37,0.9 -0.23,0.23 -0.55,0.37 -0.9,0.37 -0.35,0 -0.67,-0.14 -0.9,-0.37 -0.23,-0.23 -0.37,-0.55 -0.37,-0.9 0,-0.35 0.14,-0.67 0.37,-0.9 0.23,-0.23 0.55,-0.37 0.9,-0.37l0 0.01zm-3.21 14.86c0.35,0 0.67,0.14 0.9,0.37l0 0c0.23,0.23 0.37,0.55 0.37,0.9 0,0.35 -0.14,0.67 -0.37,0.9 -0.23,0.23 -0.55,0.37 -0.9,0.37 -0.35,0 -0.67,-0.14 -0.9,-0.37 -0.23,-0.23 -0.37,-0.55 -0.37,-0.9 0,-0.35 0.14,-0.67 0.37,-0.9 0.23,-0.23 0.55,-0.37 0.9,-0.37l0 0.01zm0.39 0.88c-0.1,-0.1 -0.24,-0.16 -0.39,-0.16 -0.15,0 -0.29,0.06 -0.39,0.16l0 0c-0.1,0.1 -0.16,0.24 -0.16,0.39 0,0.15 0.06,0.29 0.16,0.39 0.1,0.1 0.24,0.16 0.39,0.16 0.15,0 0.29,-0.06 0.39,-0.16l0 0c0.1,-0.1 0.16,-0.24 0.16,-0.39 0,-0.15 -0.06,-0.29 -0.16,-0.39l0 0zm-0.6 -7.41c0.35,0 0.67,0.14 0.9,0.37l0 0c0.23,0.23 0.37,0.55 0.37,0.9 0,0.35 -0.14,0.67 -0.37,0.9 -0.23,0.23 -0.55,0.37 -0.9,0.37 -0.35,0 -0.67,-0.14 -0.9,-0.37 -0.23,-0.23 -0.37,-0.55 -0.37,-0.9 0,-0.35 0.14,-0.67 0.37,-0.9 0.23,-0.23 0.55,-0.37 0.9,-0.37l0 0.01zm0.39 0.88c-0.1,-0.1 -0.24,-0.16 -0.39,-0.16 -0.15,0 -0.29,0.06 -0.39,0.16l0 0c-0.1,0.1 -0.16,0.24 -0.16,0.39 0,0.15 0.06,0.29 0.16,0.39 0.1,0.1 0.24,0.16 0.39,0.16 0.15,0 0.29,-0.06 0.39,-0.16l0 0c0.1,-0.1 0.16,-0.24 0.16,-0.39 0,-0.15 -0.06,-0.29 -0.16,-0.39l0 0zm6.21 5.86c0.35,0 0.67,0.14 0.9,0.37l0 0c0.23,0.23 0.37,0.55 0.37,0.9 0,0.35 -0.14,0.67 -0.37,0.9 -0.23,0.23 -0.55,0.37 -0.9,0.37 -0.35,0 -0.67,-0.14 -0.9,-0.37 -0.23,-0.23 -0.37,-0.55 -0.37,-0.9 0,-0.35 0.14,-0.67 0.37,-0.9 0.23,-0.23 0.55,-0.37 0.9,-0.37l0 0.01zm0.39 0.88c-0.1,-0.1 -0.24,-0.16 -0.39,-0.16 -0.15,0 -0.29,0.06 -0.39,0.16l0 0c-0.1,0.1 -0.16,0.24 -0.16,0.39 0,0.15 0.06,0.29 0.16,0.39 0.1,0.1 0.24,0.16 0.39,0.16 0.15,0 0.29,-0.06 0.39,-0.16l0 0c0.1,-0.1 0.16,-0.24 0.16,-0.39 0,-0.15 -0.06,-0.29 -0.16,-0.39l0 0zm-3.76 -26.15c0.35,0 0.67,0.14 0.9,0.37l0 0c0.23,0.23 0.37,0.55 0.37,0.9 0,0.35 -0.14,0.67 -0.37,0.9 -0.23,0.23 -0.55,0.37 -0.9,0.37 -0.35,0 -0.67,-0.14 -0.9,-0.37 -0.23,-0.23 -0.37,-0.55 -0.37,-0.9 0,-0.35 0.14,-0.67 0.37,-0.9 0.23,-0.23 0.55,-0.37 0.9,-0.37l0 0.01zm0.39 0.88c-0.1,-0.1 -0.24,-0.16 -0.39,-0.16 -0.15,0 -0.29,0.06 -0.39,0.16l0 0c-0.1,0.1 -0.16,0.24 -0.16,0.39 0,0.15 0.06,0.29 0.16,0.39 0.1,0.1 0.24,0.16 0.39,0.16 0.15,0 0.29,-0.06 0.39,-0.16l0 0c0.1,-0.1 0.16,-0.24 0.16,-0.39 0,-0.15 -0.06,-0.29 -0.16,-0.39l0 0zm2.77 17.72c0.35,0 0.67,0.14 0.9,0.37l0 0c0.23,0.23 0.37,0.55 0.37,0.9 0,0.35 -0.14,0.67 -0.37,0.9 -0.23,0.23 -0.55,0.37 -0.9,0.37 -0.35,0 -0.67,-0.14 -0.9,-0.37 -0.23,-0.23 -0.37,-0.55 -0.37,-0.9 0,-0.35 0.14,-0.67 0.37,-0.9 0.23,-0.23 0.55,-0.37 0.9,-0.37l0 0.01zm0.39 0.88c-0.1,-0.1 -0.24,-0.16 -0.39,-0.16 -0.15,0 -0.29,0.06 -0.39,0.16l0 0c-0.1,0.1 -0.16,0.24 -0.16,0.39 0,0.15 0.06,0.29 0.16,0.39 0.1,0.1 0.24,0.16 0.39,0.16 0.15,0 0.29,-0.06 0.39,-0.16l0 0c0.1,-0.1 0.16,-0.24 0.16,-0.39 0,-0.15 -0.06,-0.29 -0.16,-0.39l0 0zm-2.97 -8.4c-0.1,-0.1 -0.24,-0.16 -0.39,-0.16 -0.15,0 -0.29,0.06 -0.39,0.16l0 0c-0.1,0.1 -0.16,0.24 -0.16,0.39 0,0.15 0.06,0.29 0.16,0.39 0.1,0.1 0.24,0.16 0.39,0.16 0.15,0 0.29,-0.06 0.39,-0.16l0 0c0.1,-0.1 0.16,-0.24 0.16,-0.39 0,-0.15 -0.06,-0.29 -0.16,-0.39l0 0zm-21.1 -16.34l0 0c1.41,0 2.45,3.85 2.56,5.26l2.32 29.43 -9.56 0 2.12 -29.43c0.1,-1.4 1.15,-5.26 2.56,-5.26l-0 0zm0.2 4.89c0.35,0 0.67,0.14 0.9,0.37l0 0c0.23,0.23 0.37,0.55 0.37,0.9 0,0.35 -0.14,0.67 -0.37,0.9 -0.23,0.23 -0.55,0.37 -0.9,0.37 -0.35,0 -0.67,-0.14 -0.9,-0.37 -0.23,-0.23 -0.37,-0.55 -0.37,-0.9 0,-0.35 0.14,-0.67 0.37,-0.9 0.23,-0.23 0.55,-0.37 0.9,-0.37l0 0.01zm-0.19 21.7c0.35,0 0.67,0.14 0.9,0.37l0 0c0.23,0.23 0.37,0.55 0.37,0.9 0,0.35 -0.14,0.67 -0.37,0.9 -0.23,0.23 -0.55,0.37 -0.9,0.37 -0.35,0 -0.67,-0.14 -0.9,-0.37 -0.23,-0.23 -0.37,-0.55 -0.37,-0.9 0,-0.35 0.14,-0.67 0.37,-0.9 0.23,-0.23 0.55,-0.37 0.9,-0.37l0 0.01zm0.39 0.88c-0.1,-0.1 -0.24,-0.16 -0.39,-0.16 -0.15,0 -0.29,0.06 -0.39,0.16l0 0c-0.1,0.1 -0.16,0.24 -0.16,0.39 0,0.15 0.06,0.29 0.16,0.39 0.1,0.1 0.24,0.16 0.39,0.16 0.15,0 0.29,-0.06 0.39,-0.16l0 0c0.1,-0.1 0.16,-0.24 0.16,-0.39 0,-0.15 -0.06,-0.29 -0.16,-0.39l0 0zm-0.53 -12.32c0.35,0 0.67,0.14 0.9,0.37l0 0c0.23,0.23 0.37,0.55 0.37,0.9 0,0.35 -0.14,0.67 -0.37,0.9 -0.23,0.23 -0.55,0.37 -0.9,0.37 -0.35,0 -0.67,-0.14 -0.9,-0.37 -0.23,-0.23 -0.37,-0.55 -0.37,-0.9 0,-0.35 0.14,-0.67 0.37,-0.9 0.23,-0.23 0.55,-0.37 0.9,-0.37l0 0.01zm0.39 0.88c-0.1,-0.1 -0.24,-0.16 -0.39,-0.16 -0.15,0 -0.29,0.06 -0.39,0.16l0 0c-0.1,0.1 -0.16,0.24 -0.16,0.39 0,0.15 0.06,0.29 0.16,0.39 0.1,0.1 0.24,0.16 0.39,0.16 0.15,0 0.29,-0.06 0.39,-0.16l0 0c0.1,-0.1 0.16,-0.24 0.16,-0.39 0,-0.15 -0.06,-0.29 -0.16,-0.39l0 0zm0.34 -10.26c-0.1,-0.1 -0.24,-0.16 -0.39,-0.16 -0.15,0 -0.29,0.06 -0.39,0.16l0 0c-0.1,0.1 -0.16,0.24 -0.16,0.39 0,0.15 0.06,0.29 0.16,0.39 0.1,0.1 0.24,0.16 0.39,0.16 0.15,0 0.29,-0.06 0.39,-0.16l0 0c0.1,-0.1 0.16,-0.24 0.16,-0.39 0,-0.15 -0.06,-0.29 -0.16,-0.39l0 0zm14.87 -4.15c0.35,0 0.67,0.14 0.9,0.37l0 0c0.23,0.23 0.37,0.55 0.37,0.9 0,0.35 -0.14,0.67 -0.37,0.9 -0.23,0.23 -0.55,0.37 -0.9,0.37 -0.35,0 -0.67,-0.14 -0.9,-0.37 -0.23,-0.23 -0.37,-0.55 -0.37,-0.9 0,-0.35 0.14,-0.67 0.37,-0.9 0.23,-0.23 0.55,-0.37 0.9,-0.37l0 0.01zm17.34 23.51c0.35,0 0.67,0.14 0.9,0.37l0 0c0.23,0.23 0.37,0.55 0.37,0.9 0,0.35 -0.14,0.67 -0.37,0.9 -0.23,0.23 -0.55,0.37 -0.9,0.37 -0.35,0 -0.67,-0.14 -0.9,-0.37 -0.23,-0.23 -0.37,-0.55 -0.37,-0.9 0,-0.35 0.14,-0.67 0.37,-0.9 0.23,-0.23 0.55,-0.37 0.9,-0.37l0 0.01zm0.39 0.88c-0.1,-0.1 -0.24,-0.16 -0.39,-0.16 -0.15,0 -0.29,0.06 -0.39,0.16l0 0c-0.1,0.1 -0.16,0.24 -0.16,0.39 0,0.15 0.06,0.29 0.16,0.39 0.1,0.1 0.24,0.16 0.39,0.16 0.15,0 0.29,-0.06 0.39,-0.16l0 0c0.1,-0.1 0.16,-0.24 0.16,-0.39 0,-0.15 -0.06,-0.29 -0.16,-0.39l0 0zm-1.25 -6.65c0.35,0 0.67,0.14 0.9,0.37l0 0c0.23,0.23 0.37,0.55 0.37,0.9 0,0.35 -0.14,0.67 -0.37,0.9 -0.23,0.23 -0.55,0.38 -0.9,0.38 -0.35,0 -0.67,-0.14 -0.9,-0.37 -0.23,-0.23 -0.37,-0.55 -0.37,-0.9 0,-0.35 0.14,-0.67 0.37,-0.9 0.23,-0.23 0.55,-0.37 0.9,-0.37l0 0zm0.39 0.88c-0.1,-0.1 -0.24,-0.16 -0.39,-0.16 -0.15,0 -0.29,0.06 -0.39,0.16l0 0c-0.1,0.1 -0.16,0.24 -0.16,0.39 0,0.15 0.06,0.29 0.16,0.39 0.1,0.1 0.24,0.16 0.39,0.16 0.15,0 0.29,-0.06 0.39,-0.16l0 0c0.1,-0.1 0.16,-0.24 0.16,-0.39 0,-0.15 -0.06,-0.29 -0.16,-0.39l0 0zm-3.12 -13.01c0.35,0 0.67,0.14 0.9,0.37l0 0c0.23,0.23 0.37,0.55 0.37,0.9 0,0.35 -0.14,0.67 -0.37,0.9 -0.23,0.23 -0.55,0.38 -0.9,0.38 -0.35,0 -0.67,-0.14 -0.9,-0.37 -0.23,-0.23 -0.37,-0.55 -0.37,-0.9 0,-0.35 0.14,-0.67 0.37,-0.9 0.23,-0.23 0.55,-0.37 0.9,-0.37l0 0zm0.39 0.88c-0.1,-0.1 -0.24,-0.16 -0.39,-0.16 -0.15,0 -0.29,0.06 -0.39,0.16l0 0c-0.1,0.1 -0.16,0.24 -0.16,0.39 0,0.15 0.06,0.29 0.16,0.39 0.1,0.1 0.24,0.16 0.39,0.16 0.15,0 0.29,-0.06 0.39,-0.16l0 0c0.1,-0.1 0.16,-0.24 0.16,-0.39 0,-0.15 -0.06,-0.29 -0.16,-0.39l0 0zm1.36 5.65c0.35,0 0.67,0.14 0.9,0.37l0 0c0.23,0.23 0.37,0.55 0.37,0.9 0,0.35 -0.14,0.67 -0.37,0.9 -0.23,0.23 -0.55,0.37 -0.9,0.37 -0.35,0 -0.67,-0.14 -0.9,-0.37 -0.23,-0.23 -0.37,-0.55 -0.37,-0.9 0,-0.35 0.14,-0.67 0.37,-0.9 0.23,-0.23 0.55,-0.37 0.9,-0.37l0 0.01zm0.39 0.88c-0.1,-0.1 -0.24,-0.16 -0.39,-0.16 -0.15,0 -0.29,0.06 -0.39,0.16l0 0c-0.1,0.1 -0.16,0.24 -0.16,0.39 0,0.15 0.06,0.29 0.16,0.39 0.1,0.1 0.24,0.16 0.39,0.16 0.15,0 0.29,-0.06 0.39,-0.16l0 0c0.1,-0.1 0.16,-0.24 0.16,-0.39 0,-0.15 -0.06,-0.29 -0.16,-0.39l0 0zm-3.97 -13.09c0.35,0 0.67,0.14 0.9,0.37l0 0c0.23,0.23 0.37,0.55 0.37,0.9 0,0.35 -0.14,0.67 -0.37,0.9 -0.23,0.23 -0.55,0.37 -0.9,0.37 -0.35,0 -0.67,-0.14 -0.9,-0.37 -0.23,-0.23 -0.37,-0.55 -0.37,-0.9 0,-0.35 0.14,-0.67 0.37,-0.9 0.23,-0.23 0.55,-0.37 0.9,-0.37l0 0.01zm0.39 0.88c-0.1,-0.1 -0.24,-0.16 -0.39,-0.16 -0.15,0 -0.29,0.06 -0.39,0.16l0 0c-0.1,0.1 -0.16,0.24 -0.16,0.39 0,0.15 0.06,0.29 0.16,0.39 0.1,0.1 0.24,0.16 0.39,0.16 0.15,0 0.29,-0.06 0.39,-0.16l0 0c0.1,-0.1 0.16,-0.24 0.16,-0.39 0,-0.15 -0.06,-0.29 -0.16,-0.39l0 0zm-1.93 -6.85c0.35,0 0.67,0.14 0.9,0.37l0 0c0.23,0.23 0.37,0.55 0.37,0.9 0,0.35 -0.14,0.67 -0.37,0.9 -0.23,0.23 -0.55,0.37 -0.9,0.37 -0.35,0 -0.67,-0.14 -0.9,-0.37 -0.23,-0.23 -0.37,-0.55 -0.37,-0.9 0,-0.35 0.14,-0.67 0.37,-0.9 0.23,-0.23 0.55,-0.37 0.9,-0.37l0 0.01zm0.39 0.88c-0.1,-0.1 -0.24,-0.16 -0.39,-0.16 -0.15,0 -0.29,0.06 -0.39,0.16l0 0c-0.1,0.1 -0.16,0.24 -0.16,0.39 0,0.15 0.06,0.29 0.16,0.39 0.1,0.1 0.24,0.16 0.39,0.16 0.15,0 0.29,-0.06 0.39,-0.16l0 0c0.1,-0.1 0.16,-0.24 0.16,-0.39 0,-0.15 -0.06,-0.29 -0.16,-0.39l0 0zm-4.39 -6.99c0.35,0 0.67,0.14 0.9,0.37l0 0c0.23,0.23 0.37,0.55 0.37,0.9 0,0.35 -0.14,0.67 -0.37,0.9 -0.23,0.23 -0.55,0.37 -0.9,0.37 -0.35,0 -0.67,-0.14 -0.9,-0.37 -0.23,-0.23 -0.37,-0.55 -0.37,-0.9 0,-0.35 0.14,-0.67 0.37,-0.9 0.23,-0.23 0.55,-0.37 0.9,-0.37l0 0.01zm0.39 0.88c-0.1,-0.1 -0.24,-0.16 -0.39,-0.16 -0.15,0 -0.29,0.06 -0.39,0.16l0 0c-0.1,0.1 -0.16,0.24 -0.16,0.39 0,0.15 0.06,0.29 0.16,0.39 0.1,0.1 0.24,0.16 0.39,0.16 0.15,0 0.29,-0.06 0.39,-0.16l0 0c0.1,-0.1 0.16,-0.24 0.16,-0.39 0,-0.15 -0.06,-0.29 -0.16,-0.39l0 0zm-3.83 5.08c0.35,0 0.67,0.14 0.9,0.37l0 0c0.23,0.23 0.37,0.55 0.37,0.9 0,0.35 -0.14,0.67 -0.37,0.9 -0.23,0.23 -0.55,0.38 -0.9,0.38 -0.35,0 -0.67,-0.14 -0.9,-0.37 -0.23,-0.23 -0.37,-0.55 -0.37,-0.9 0,-0.35 0.14,-0.67 0.37,-0.9 0.23,-0.23 0.55,-0.37 0.9,-0.37l0 0zm0.39 0.88c-0.1,-0.1 -0.24,-0.16 -0.39,-0.16 -0.15,0 -0.29,0.06 -0.39,0.16l0 0c-0.1,0.1 -0.16,0.24 -0.16,0.39 0,0.15 0.06,0.29 0.16,0.39 0.1,0.1 0.24,0.16 0.39,0.16 0.15,0 0.29,-0.06 0.39,-0.16l0 0c0.1,-0.1 0.16,-0.24 0.16,-0.39 0,-0.15 -0.06,-0.29 -0.16,-0.39l0 0zm-2.95 6.18c-0.1,-0.1 -0.24,-0.16 -0.39,-0.16 -0.15,0 -0.29,0.06 -0.39,0.16l0 0c-0.1,0.1 -0.16,0.24 -0.16,0.39 0,0.15 0.06,0.29 0.16,0.39 0.1,0.1 0.24,0.16 0.39,0.16 0.15,0 0.29,-0.06 0.39,-0.16l0 0c0.1,-0.1 0.16,-0.24 0.16,-0.39 0,-0.15 -0.06,-0.29 -0.16,-0.39l0 0zm4.75 -3.1c1.93,0 2.8,4.41 3.09,5.88l6 30.5c0.03,0.16 -0,0.32 -0.11,0.45 -0.1,0.13 -0.25,0.19 -0.42,0.19l-16.92 0c-0.17,0 -0.31,-0.07 -0.42,-0.19 -0.1,-0.13 -0.14,-0.28 -0.11,-0.44l5.79 -30.5c0.28,-1.48 1.16,-5.89 3.09,-5.89l0 0zm-37.45 15.61c0.35,0 0.67,0.14 0.9,0.37l0 0c0.23,0.23 0.37,0.55 0.37,0.9 0,0.35 -0.14,0.67 -0.37,0.9 -0.23,0.23 -0.55,0.38 -0.9,0.38 -0.35,0 -0.67,-0.14 -0.9,-0.37 -0.23,-0.23 -0.37,-0.55 -0.37,-0.9 0,-0.35 0.14,-0.67 0.37,-0.9 0.23,-0.23 0.55,-0.37 0.9,-0.37l0 0zm0.34 -10.26c0.35,0 0.67,0.14 0.9,0.37l0 0c0.23,0.23 0.37,0.55 0.37,0.9 0,0.35 -0.14,0.67 -0.37,0.9 -0.23,0.23 -0.55,0.38 -0.9,0.38 -0.35,0 -0.67,-0.14 -0.9,-0.37 -0.23,-0.23 -0.37,-0.55 -0.37,-0.9 0,-0.35 0.14,-0.67 0.37,-0.9 0.23,-0.23 0.55,-0.37 0.9,-0.37l0 0zm0.39 0.88c-0.1,-0.1 -0.24,-0.16 -0.39,-0.16 -0.15,0 -0.29,0.06 -0.39,0.16l0 0c-0.1,0.1 -0.16,0.24 -0.16,0.39 0,0.15 0.06,0.29 0.16,0.39 0.1,0.1 0.24,0.16 0.39,0.16 0.15,0 0.29,-0.06 0.39,-0.16l0 0c0.1,-0.1 0.16,-0.24 0.16,-0.39 0,-0.15 -0.06,-0.29 -0.16,-0.39l0 0zm-0.59 20.82c0.35,0 0.67,0.14 0.9,0.37l0 0c0.23,0.23 0.37,0.55 0.37,0.9 0,0.35 -0.14,0.67 -0.37,0.9 -0.23,0.23 -0.55,0.37 -0.9,0.37 -0.35,0 -0.67,-0.14 -0.9,-0.37 -0.23,-0.23 -0.37,-0.55 -0.37,-0.9 0,-0.35 0.14,-0.67 0.37,-0.9 0.23,-0.23 0.55,-0.37 0.9,-0.37l0 0.01zm0.39 0.88c-0.1,-0.1 -0.24,-0.16 -0.39,-0.16 -0.15,0 -0.29,0.06 -0.39,0.16l0 0c-0.1,0.1 -0.16,0.24 -0.16,0.39 0,0.15 0.06,0.29 0.16,0.39 0.1,0.1 0.24,0.16 0.39,0.16 0.15,0 0.29,-0.06 0.39,-0.16l0 0c0.1,-0.1 0.16,-0.24 0.16,-0.39 0,-0.15 -0.06,-0.29 -0.16,-0.39l0 0zm-0.14 -11.44c-0.1,-0.1 -0.24,-0.16 -0.39,-0.16 -0.15,0 -0.29,0.06 -0.39,0.16l0 0c-0.1,0.1 -0.16,0.24 -0.16,0.39 0,0.15 0.06,0.29 0.16,0.39 0.1,0.1 0.24,0.16 0.39,0.16 0.15,0 0.29,-0.06 0.39,-0.16l0 0c0.1,-0.1 0.16,-0.24 0.16,-0.39 0,-0.15 -0.06,-0.29 -0.16,-0.39l0 0zm-0.25 -16.03l0 0c1.41,0 2.45,3.85 2.56,5.26l2.32 29.43 -9.56 0 2.12 -29.43c0.1,-1.4 1.15,-5.26 2.56,-5.26l-0 0zm-21.9 15.29c0.35,0 0.67,0.14 0.9,0.37l0 0c0.23,0.23 0.37,0.55 0.37,0.9 0,0.35 -0.14,0.67 -0.37,0.9 -0.23,0.23 -0.55,0.37 -0.9,0.37 -0.35,0 -0.67,-0.14 -0.9,-0.37 -0.23,-0.23 -0.37,-0.55 -0.37,-0.9 0,-0.35 0.14,-0.67 0.37,-0.9 0.23,-0.23 0.55,-0.37 0.9,-0.37l0 0.01zm0.34 -10.26c0.35,0 0.67,0.14 0.9,0.37l0 0c0.23,0.23 0.37,0.55 0.37,0.9 0,0.35 -0.14,0.67 -0.37,0.9 -0.23,0.23 -0.55,0.37 -0.9,0.37 -0.35,0 -0.67,-0.14 -0.9,-0.37 -0.23,-0.23 -0.37,-0.55 -0.37,-0.9 0,-0.35 0.14,-0.67 0.37,-0.9 0.23,-0.23 0.55,-0.37 0.9,-0.37l0 0.01zm0.39 0.88c-0.1,-0.1 -0.24,-0.16 -0.39,-0.16 -0.15,0 -0.29,0.06 -0.39,0.16l0 0c-0.1,0.1 -0.16,0.24 -0.16,0.39 0,0.15 0.06,0.29 0.16,0.39 0.1,0.1 0.24,0.16 0.39,0.16 0.15,0 0.29,-0.06 0.39,-0.16l0 0c0.1,-0.1 0.16,-0.24 0.16,-0.39 0,-0.15 -0.06,-0.29 -0.16,-0.39l0 0zm-0.59 20.82c0.35,0 0.67,0.14 0.9,0.37l0 0c0.23,0.23 0.37,0.55 0.37,0.9 0,0.35 -0.14,0.67 -0.37,0.9 -0.23,0.23 -0.55,0.37 -0.9,0.37 -0.35,0 -0.67,-0.14 -0.9,-0.37 -0.23,-0.23 -0.37,-0.55 -0.37,-0.9 0,-0.35 0.14,-0.67 0.37,-0.9 0.23,-0.23 0.55,-0.37 0.9,-0.37l0 0.01zm0.39 0.88c-0.1,-0.1 -0.24,-0.16 -0.39,-0.16 -0.15,0 -0.29,0.06 -0.39,0.16l0 0c-0.1,0.1 -0.16,0.24 -0.16,0.39 0,0.15 0.06,0.29 0.16,0.39 0.1,0.1 0.24,0.16 0.39,0.16 0.15,0 0.29,-0.06 0.39,-0.16l0 0c0.1,-0.1 0.16,-0.24 0.16,-0.39 0,-0.15 -0.06,-0.29 -0.16,-0.39l0 0zm-0.14 -11.44c-0.1,-0.1 -0.24,-0.16 -0.39,-0.16 -0.15,0 -0.29,0.06 -0.39,0.16l0 0c-0.1,0.1 -0.16,0.24 -0.16,0.39 0,0.15 0.06,0.29 0.16,0.39 0.1,0.1 0.24,0.16 0.39,0.16 0.15,0 0.29,-0.06 0.39,-0.16l0 0c0.1,-0.1 0.16,-0.24 0.16,-0.39 0,-0.15 -0.06,-0.29 -0.16,-0.39l0 0zm104.43 12.21l23.92 -8.59 -0.07 -3.65 0.55 -0.01 0.07 3.66 23.43 9.27 -0.2 0.51 -23.5 -9.29 -24.01 8.62 -0.18 -0.51 0 -0zm-238.02 13.29l0 -24.45 -3.59 0 0 24.45 3.59 0zm-7.07 0l0 -24.5 -16.05 0 0 24.5 16.05 0zm-19.9 0l0 -24.4 -3.59 0 0 24.4 3.59 0zm11.9 -53.93l1.35 4.16 4.38 -0.01 -3.55 2.57 1.36 4.16 -3.54 -2.58 -3.54 2.58 1.36 -4.16 -3.55 -2.57 4.38 0.01 1.35 -4.16 -0.01 0zm-116.67 15.25c0.13,0.06 0.39,0.05 0.6,-0.01 0.21,-0.06 0.37,-0.16 0.67,-0.47 0.31,-0.31 0.77,-0.84 2,-1.97 1.23,-1.13 3.22,-2.85 4.65,-4.01 1.44,-1.16 2.31,-1.75 3.39,-2.35 1.08,-0.6 2.36,-1.19 3.35,-1.58 0.98,-0.39 1.67,-0.57 2.3,-0.69 0.62,-0.12 1.19,-0.19 1.82,-0.24 0.63,-0.05 1.33,-0.08 2.22,0.03 0.89,0.12 1.99,0.39 3.18,0.8 1.19,0.41 2.47,0.96 3.94,1.78 1.47,0.82 3.12,1.91 4.77,3.24 1.64,1.32 3.27,2.88 4.19,3.8 0.91,0.93 1.1,1.23 1.24,1.42 0.14,0.19 0.21,0.25 0.33,0.29 0.12,0.04 0.28,0.05 0.43,0.04 0.15,-0.01 0.3,-0.04 0.41,-0.09 0.11,-0.05 0.17,-0.1 0.14,-0.25 -0.04,-0.15 -0.19,-0.4 -1.22,-1.54 -1.03,-1.14 -2.96,-3.16 -4.44,-4.61 -1.49,-1.45 -2.53,-2.31 -3.46,-3.02 -0.92,-0.71 -1.72,-1.26 -2.74,-1.85 -1.02,-0.58 -2.26,-1.2 -3.32,-1.66 -1.06,-0.45 -1.94,-0.75 -2.75,-0.92 -0.82,-0.17 -1.57,-0.23 -2.31,-0.22 -0.74,0.01 -1.47,0.09 -2.58,0.39 -1.1,0.3 -2.58,0.83 -3.87,1.5 -1.3,0.67 -2.41,1.48 -3.52,2.35 -1.11,0.87 -2.21,1.79 -3.24,2.73 -1.02,0.94 -1.97,1.9 -2.9,2.9 -0.93,1 -1.86,2.05 -2.4,2.68 -0.55,0.64 -0.72,0.86 -0.82,1 -0.1,0.14 -0.14,0.18 -0.15,0.27 -0.02,0.08 -0.02,0.21 0.11,0.27l-0 0zm12.11 -0.02c3.51,0.01 10.54,-0.02 14.08,-0.02 3.54,0 3.58,0.03 3.65,0.04 0.06,0.02 0.15,0.02 0.24,0.02 0.08,-0.01 0.16,-0.02 0.22,-0.04 0.06,-0.02 0.1,-0.04 0.07,-0.1 -0.02,-0.06 -0.1,-0.16 -0.67,-0.63 -0.57,-0.47 -1.62,-1.3 -2.43,-1.89 -0.81,-0.59 -1.39,-0.95 -1.89,-1.24 -0.51,-0.29 -0.94,-0.52 -1.5,-0.76 -0.56,-0.24 -1.24,-0.5 -1.82,-0.68 -0.58,-0.19 -1.06,-0.31 -1.51,-0.38 -0.45,-0.07 -0.86,-0.09 -1.27,-0.09 -0.41,0.01 -0.81,0.04 -1.41,0.16 -0.61,0.13 -1.41,0.34 -2.12,0.62 -0.71,0.28 -1.32,0.61 -1.93,0.96 -0.61,0.36 -1.21,0.74 -1.77,1.12 -0.56,0.39 -1.08,0.78 -1.59,1.19 -0.51,0.41 -1.02,0.84 -1.32,1.1 -0.3,0.26 -0.39,0.35 -0.45,0.41 -0.06,0.06 -0.07,0.07 -0.08,0.11 -0.01,0.04 -0.01,0.08 3.5,0.1l-0 0zm-8.25 0.85c0.1,0.04 0.31,0.03 0.48,-0.01 0.17,-0.04 0.29,-0.11 0.54,-0.34 0.25,-0.23 0.62,-0.61 1.61,-1.42 0.99,-0.81 2.6,-2.05 3.75,-2.89 1.16,-0.84 1.86,-1.26 2.74,-1.7 0.87,-0.43 1.91,-0.86 2.7,-1.14 0.79,-0.28 1.35,-0.41 1.85,-0.5 0.5,-0.09 0.96,-0.14 1.47,-0.17 0.51,-0.04 1.07,-0.06 1.79,0.03 0.72,0.08 1.6,0.28 2.56,0.58 0.96,0.3 1.99,0.69 3.18,1.28 1.19,0.59 2.52,1.38 3.84,2.33 1.33,0.95 2.64,2.07 3.38,2.74 0.74,0.67 0.89,0.89 1,1.02 0.11,0.13 0.17,0.18 0.27,0.21 0.09,0.03 0.22,0.04 0.34,0.03 0.12,-0.01 0.24,-0.03 0.33,-0.06 0.08,-0.03 0.14,-0.07 0.11,-0.18 -0.03,-0.11 -0.15,-0.29 -0.99,-1.11 -0.84,-0.82 -2.39,-2.28 -3.58,-3.32 -1.2,-1.04 -2.04,-1.67 -2.79,-2.18 -0.74,-0.51 -1.39,-0.91 -2.21,-1.33 -0.82,-0.42 -1.82,-0.87 -2.67,-1.2 -0.85,-0.33 -1.56,-0.54 -2.22,-0.66 -0.66,-0.13 -1.27,-0.17 -1.86,-0.16 -0.6,0.01 -1.19,0.06 -2.08,0.28 -0.89,0.22 -2.08,0.6 -3.12,1.08 -1.04,0.48 -1.94,1.07 -2.84,1.69 -0.89,0.63 -1.78,1.29 -2.61,1.97 -0.83,0.68 -1.59,1.37 -2.34,2.09 -0.75,0.72 -1.5,1.48 -1.94,1.94 -0.44,0.46 -0.58,0.62 -0.66,0.72 -0.08,0.1 -0.11,0.13 -0.12,0.19 -0.01,0.06 -0.01,0.15 0.09,0.19l-0.01 -0.01zm-7.71 19.91l46.89 0.29 0.97 0.64 -1.17 1.01 0.06 2.23 -1.49 -0.38 -43.39 -0.19 -1.6 0.61 0.03 -2.42 -0.9 -0.69 0.6 -1.1 0 -0zm19 -2.18c2.69,0.02 7.59,0.05 10.04,0.05 2.44,0 2.42,-0.03 2.37,-0.12 -0.05,-0.08 -0.11,-0.22 -0.43,-0.5 -0.32,-0.28 -0.89,-0.69 -1.81,-1.14 -0.92,-0.45 -2.18,-0.93 -3.37,-1.2 -1.19,-0.27 -2.3,-0.32 -3.31,-0.21 -1.01,0.1 -1.91,0.35 -2.57,0.56 -0.66,0.21 -1.09,0.39 -1.61,0.64 -0.51,0.25 -1.11,0.58 -1.62,0.92 -0.51,0.33 -0.92,0.67 -0.89,0.83 0.03,0.16 0.51,0.16 3.2,0.17l0.01 -0zm-21.79 12.52l4.81 0.02 -0.08 7.02 -6.23 -0.05 1.5 -6.99 0 -0zm18.79 0.22l-9.3 0.1 -0.05 6.72 9.52 0 -0.17 -6.82zm13 0l-11.08 0.1 -0.06 6.72 11.35 0 -0.2 -6.82zm11.14 0l-9.3 0.1 -0.05 6.72 9.52 0 -0.17 -6.82zm9.59 -0.22l-4.81 0.02 0.08 7.02 6.23 -0.05 -1.5 -6.99 0 -0zm-222.68 -31.04c1.34,-2.14 2.67,-2.31 4.01,-0.05l0 10.65 -3.9 0 -0.11 -10.59 0 0zm7.45 -7.03l2.41 0 0 16.89 -2.41 0 0 -16.89zm-8.75 44.39c1.34,-2.14 2.67,-2.31 4.01,-0.05l-0.05 0.89 -3.9 0 -0.05 -0.84 0 0zm14.16 0.07c1.34,-2.14 2.67,-2.31 4.01,-0.05l-0.05 0.89 -3.9 0 -0.05 -0.84 -0 0zm0.07 -5.74c1.34,2.14 2.67,2.31 4.01,0.05l0 -10.65 -3.9 0 -0.11 10.59 0 -0zm-14.09 -0.51c1.34,2.14 2.67,2.31 4.01,0.05l0 -10.65 -3.9 0 -0.11 10.59 0 -0zm22.34 -3.56c1.34,-2.14 2.67,-2.31 4.01,-0.05l0 10.65 -3.9 0 -0.11 -10.59 0 0zm-30.73 0c1.34,-2.14 2.67,-2.31 4.01,-0.05l0 10.65 -3.9 0 -0.11 -10.59 0 0zm22.99 -27.5c1.34,-2.14 2.67,-2.31 4.01,-0.05l0 10.65 -3.9 0 -0.11 -10.59 0 0zm87.5 -31.57c-0.26,0.29 -0.74,0.87 -1.35,1.43 -0.61,0.57 -1.35,1.12 -1.93,1.48 -0.57,0.36 -0.99,0.52 -1.33,0.63 -0.34,0.11 -0.62,0.17 -0.97,0.18 -0.35,0.02 -0.78,0.01 -1.01,0.02 -0.24,0.01 -0.28,0.06 -0.31,0.18 -0.03,0.12 -0.04,0.31 -0.01,0.45 0.03,0.14 0.09,0.23 0.33,0.5 0.24,0.27 0.64,0.74 0.86,0.98 0.21,0.25 0.22,0.29 0.19,0.35 -0.03,0.06 -0.11,0.13 -0.27,0.25 -0.15,0.13 -0.39,0.32 -0.53,0.45 -0.13,0.13 -0.17,0.22 -0.17,0.3 0,0.08 0.03,0.16 0.55,0.72 0.53,0.56 1.54,1.6 2.1,2.15 0.56,0.54 0.66,0.58 0.88,0.52 0.22,-0.06 0.55,-0.22 0.81,-0.39 0.26,-0.16 0.44,-0.32 0.56,-0.34 0.11,-0.02 0.16,0.1 0.2,0.38 0.03,0.28 0.06,0.73 0.13,1.21 0.07,0.49 0.18,1.02 0.35,1.65 0.17,0.64 0.38,1.39 0.69,2.13 0.31,0.74 0.71,1.49 1.07,2.21 0.36,0.73 0.67,1.45 0.82,1.82 0.16,0.37 0.17,0.39 -0.28,0.47 -0.44,0.08 -1.34,0.23 -2.25,0.36 -0.92,0.13 -1.85,0.25 -2.51,0.32 -0.66,0.06 -1.04,0.08 -1.25,0.07 -0.2,-0.01 -0.24,-0.03 -0.32,-0.12 -0.08,-0.08 -0.2,-0.24 -0.34,-0.32 -0.15,-0.08 -0.32,-0.08 -0.49,-0.01 -0.17,0.06 -0.34,0.2 -0.43,0.3 -0.1,0.11 -0.12,0.18 -0.22,0.2 -0.1,0.02 -0.27,-0.02 -0.56,-0.13 -0.29,-0.11 -0.69,-0.29 -1.15,-0.51 -0.46,-0.23 -0.98,-0.5 -1.26,-0.62 -0.28,-0.12 -0.33,-0.08 -0.42,-0.1 -0.09,-0.02 -0.22,-0.1 -0.35,-0.16 -0.13,-0.07 -0.24,-0.13 -0.4,-0.41 -0.16,-0.29 -0.36,-0.8 -0.62,-1.26 -0.25,-0.46 -0.54,-0.86 -1.06,-1.38 -0.52,-0.52 -1.26,-1.16 -1.86,-1.6 -0.6,-0.44 -1.05,-0.69 -1.35,-0.83 -0.29,-0.14 -0.43,-0.18 -0.6,-0.17 -0.18,0.01 -0.39,0.08 -0.53,0.18 -0.15,0.1 -0.22,0.23 -0.26,0.35 -0.03,0.12 -0.03,0.22 0.13,0.43 0.15,0.21 0.45,0.53 1.03,1.1 0.58,0.57 1.45,1.4 2.1,2.06 0.64,0.66 1.08,1.16 1.28,1.43 0.2,0.27 0.18,0.32 0.06,0.41 -0.13,0.09 -0.36,0.23 -0.53,0.38 -0.18,0.14 -0.29,0.29 -0.43,0.5 -0.14,0.21 -0.32,0.49 -0.43,0.69 -0.11,0.2 -0.16,0.32 -0.17,0.41 -0.01,0.1 0.04,0.18 0.11,0.22 0.07,0.04 0.17,0.05 0.29,-0.01 0.12,-0.06 0.27,-0.2 0.39,-0.32 0.12,-0.12 0.2,-0.22 0.25,-0.26 0.06,-0.03 0.07,0.01 0.07,0.09 0,0.08 -0.02,0.2 -0.03,0.33 -0.01,0.13 0.01,0.27 0.04,0.42 0.03,0.15 0.1,0.32 0.15,0.42 0.05,0.11 0.1,0.14 0.11,0.26 0.01,0.12 0,0.32 0.03,0.5 0.02,0.18 0.08,0.35 0.2,0.51 0.12,0.16 0.29,0.32 0.4,0.41 0.11,0.08 0.14,0.11 0.16,0.16 0.02,0.06 0.03,0.17 0.07,0.24 0.04,0.07 0.11,0.11 0.19,0.09 0.08,-0.01 0.18,-0.07 0.22,-0.17 0.05,-0.1 0.04,-0.24 0.05,-0.36 0.01,-0.11 0.02,-0.2 0.07,-0.25 0.04,-0.05 0.11,-0.07 0.2,-0.04 0.09,0.03 0.21,0.11 0.37,0.13 0.15,0.02 0.35,-0.03 0.51,-0.13 0.16,-0.1 0.28,-0.25 0.37,-0.34 0.08,-0.1 0.13,-0.14 0.2,-0.07 0.06,0.07 0.14,0.25 0.27,0.46 0.13,0.21 0.29,0.46 0.51,0.7 0.22,0.24 0.48,0.48 0.64,0.59 0.17,0.11 0.24,0.09 0.25,0.02 0.01,-0.07 -0.03,-0.18 -0.08,-0.32 -0.06,-0.13 -0.12,-0.29 -0.16,-0.46 -0.04,-0.17 -0.06,-0.34 -0.05,-0.46 0.01,-0.11 0.05,-0.15 0.15,-0.18 0.1,-0.02 0.26,-0.03 0.43,-0.06 0.17,-0.04 0.35,-0.08 0.48,-0.14 0.13,-0.06 0.22,-0.11 0.32,-0.12 0.1,-0.01 0.22,0.03 0.28,0.08 0.01,0.01 0.03,0.03 0.04,0.04 0.03,-0.06 0.08,-0.11 0.13,-0.13 0.1,-0.04 0.21,-0.02 0.32,-0.1 0.11,-0.08 0.22,-0.25 0.28,-0.52 0.06,-0.27 0.09,-0.66 0.05,-0.97 -0.04,-0.31 -0.15,-0.55 -0.27,-0.71 -0.12,-0.16 -0.25,-0.24 -0.32,-0.31 -0.06,-0.07 -0.05,-0.12 0.01,-0.19 0.06,-0.07 0.18,-0.16 0.32,-0.22 0.15,-0.06 0.32,-0.08 0.53,0.03 0.21,0.11 0.45,0.37 0.56,0.76 0.12,0.39 0.11,0.9 0.06,1.32 -0.03,0.29 -0.08,0.53 -0.13,0.73 0.12,-0.01 0.32,-0.02 0.67,-0.01 0.74,0.01 2.17,0.09 3.13,0.16 0.97,0.06 1.49,0.12 2.17,0.18 0.68,0.06 1.52,0.11 1.92,0.19 0.28,0.06 0.35,0.12 0.32,0.25 0.17,-0.04 0.32,-0.01 0.29,0.12 -0.03,0.19 -0.4,0.59 -0.55,0.88 -0.15,0.29 -0.1,0.46 -0.14,0.62 -0.04,0.16 -0.18,0.32 -0.2,0.45 -0.03,0.13 0.06,0.25 0.03,0.4 -0.03,0.15 -0.15,0.33 -0.18,0.47 -0.02,0.14 0.08,0.23 0.12,0.39 0.04,0.16 0.03,0.39 0.08,0.51 0.05,0.11 0.15,0.11 0.22,0.21 0.07,0.1 0.1,0.31 0.14,0.28 0.04,-0.03 0.09,-0.3 0.26,-0.55 0.17,-0.26 0.45,-0.5 0.61,-0.75 0.15,-0.25 0.19,-0.49 0.36,-0.76 0.17,-0.27 0.47,-0.57 0.63,-0.87 0.15,-0.29 0.17,-0.57 0.24,-0.8 0.07,-0.22 0.2,-0.39 0.27,-0.53 0.07,-0.14 0.08,-0.25 0.18,-0.36 0.11,-0.11 0.31,-0.2 0.55,-0.22 0.24,-0.03 0.51,0.02 0.62,0.13 0.11,0.11 0.06,0.27 -0.11,0.39 -0.16,0.13 -0.44,0.22 -0.57,0.34 -0.13,0.12 -0.13,0.26 -0.27,0.48 -0.14,0.22 -0.43,0.53 -0.58,0.8 -0.15,0.27 -0.18,0.51 -0.31,0.75 -0.13,0.25 -0.34,0.49 -0.5,0.72 -0.15,0.23 -0.24,0.45 -0.41,0.72 -0.16,0.27 -0.41,0.6 -0.52,0.8 -0.11,0.2 -0.08,0.29 0.06,0.35 0.14,0.06 0.39,0.1 0.56,0.17 0.17,0.07 0.26,0.18 0.4,0.22 0.14,0.04 0.34,0.02 0.52,0.1 0.18,0.08 0.34,0.25 0.57,0.39 0.23,0.13 0.54,0.22 0.77,0.34 0.23,0.12 0.39,0.28 0.57,0.43 0.18,0.15 0.37,0.3 0.61,0.39 0.24,0.08 0.53,0.11 0.73,0.18 0.2,0.06 0.3,0.16 0.52,0.28 0.22,0.11 0.54,0.24 0.76,0.3 0.22,0.06 0.33,0.06 0.4,-0.08 0.07,-0.13 0.1,-0.39 0.2,-0.44 0.03,-0.02 0.08,-0.01 0.13,0.03 -0.03,-0.17 -0.07,-0.31 -0.09,-0.43 -0.04,-0.24 -0.06,-0.42 -0.02,-0.62 0.03,-0.2 0.13,-0.41 0.27,-0.71 0.14,-0.3 0.32,-0.69 0.53,-1.02 0.2,-0.32 0.42,-0.58 0.81,-0.95 0.39,-0.36 0.93,-0.83 1.3,-1.21 0.38,-0.38 0.58,-0.66 0.81,-1.02 0.22,-0.36 0.47,-0.79 0.7,-1.31 0.23,-0.52 0.45,-1.12 0.57,-1.72 0.11,-0.6 0.13,-1.19 0.13,-1.58 0,-0.39 -0.01,-0.55 0.07,-0.71 0.08,-0.15 0.24,-0.27 0.34,-0.37 0.11,-0.09 0.15,-0.15 0.16,-0.29 0.01,-0.15 -0.01,-0.38 -0.01,-0.57 0,-0.2 0.02,-0.36 0.06,-0.47 0.04,-0.12 0.11,-0.19 0.17,-0.2 0.06,-0.01 0.11,0.03 0.17,0.11 0.06,0.08 0.12,0.22 0.2,0.25 0.08,0.03 0.17,-0.04 0.22,-0.12 0.06,-0.08 0.08,-0.17 0.06,-0.27 -0.02,-0.1 -0.08,-0.21 -0.15,-0.46 -0.07,-0.25 -0.15,-0.63 -0.27,-0.97 -0.11,-0.34 -0.25,-0.63 -0.4,-0.94 -0.15,-0.31 -0.3,-0.64 -0.43,-0.88 -0.14,-0.25 -0.26,-0.4 -0.45,-0.56 -0.18,-0.16 -0.43,-0.32 -0.62,-0.48 -0.19,-0.15 -0.34,-0.31 -0.49,-0.44 -0.15,-0.13 -0.33,-0.24 -0.53,-0.31 -0.2,-0.07 -0.44,-0.11 -0.61,-0.08 -0.16,0.01 -0.25,0.08 -0.31,0.13 -0.06,0.04 -0.08,0.06 -0.17,0.08 -0.09,0.02 -0.26,0.04 -0.42,0.05 -0.16,0.02 -0.32,0.03 -0.46,0.08 -0.14,0.05 -0.26,0.12 -0.36,0.22 -0.1,0.11 -0.17,0.25 -0.25,0.32 -0.08,0.07 -0.17,0.08 -0.28,0.05 -0.11,-0.03 -0.25,-0.1 -0.4,-0.14 -0.15,-0.04 -0.29,-0.06 -0.44,-0.01 -0.15,0.04 -0.29,0.13 -0.42,0.22 -0.13,0.08 -0.25,0.16 -0.36,0.22 -0.11,0.06 -0.2,0.09 -0.31,0.18 -0.11,0.09 -0.22,0.24 -0.29,0.39 -0.08,0.15 -0.13,0.3 -0.21,0.45 -0.08,0.15 -0.2,0.29 -0.22,0.49 -0.03,0.2 0.03,0.46 0.15,0.76 0.13,0.3 0.32,0.64 0.46,0.93 0.13,0.29 0.19,0.52 0.21,0.75 0.02,0.23 0.01,0.46 -0.02,0.64 -0.02,0.18 -0.05,0.32 -0.13,0.41 -0.08,0.1 -0.23,0.17 -0.39,0.25 -0.15,0.08 -0.32,0.18 -0.47,0.27 -0.15,0.09 -0.28,0.18 -0.54,0.22 -0.26,0.06 -0.66,0.08 -0.95,0.11 -0.3,0.03 -0.5,0.06 -0.64,0.06 -0.15,0.01 -0.24,-0.01 -0.31,-0.08 -0.07,-0.06 -0.11,-0.17 -0.27,-0.44 -0.16,-0.28 -0.44,-0.73 -0.7,-1.22 -0.26,-0.49 -0.5,-1.01 -0.78,-1.49 -0.28,-0.48 -0.59,-0.94 -0.78,-1.24 -0.18,-0.3 -0.24,-0.46 -0.3,-0.66 -0.06,-0.2 -0.13,-0.46 -0.22,-0.71 -0.09,-0.26 -0.2,-0.53 -0.34,-0.81 -0.13,-0.27 -0.28,-0.55 -0.41,-0.92 -0.13,-0.37 -0.26,-0.85 -0.4,-1.32 -0.14,-0.47 -0.29,-0.93 -0.38,-1.3 -0.09,-0.38 -0.13,-0.67 -0.13,-0.85 0.01,-0.18 0.05,-0.24 0.24,-0.36 0.19,-0.13 0.53,-0.32 0.89,-0.5 0.36,-0.18 0.75,-0.35 1,-0.51 0.25,-0.16 0.36,-0.32 0.38,-0.48 0.02,-0.16 -0.04,-0.33 -0.15,-0.53 -0.11,-0.2 -0.27,-0.44 -0.41,-0.64 -0.15,-0.2 -0.28,-0.38 -0.36,-0.52 -0.08,-0.14 -0.08,-0.25 0.03,-0.41 0.13,-0.17 0.38,-0.39 0.54,-0.55 0.15,-0.16 0.21,-0.27 0.23,-0.41 0.02,-0.13 0.01,-0.29 -0.06,-0.5 -0.06,-0.21 -0.18,-0.46 -0.33,-0.74 -0.15,-0.28 -0.36,-0.6 -0.55,-0.88 -0.18,-0.28 -0.35,-0.53 -0.64,-0.85 -0.29,-0.32 -0.69,-0.71 -0.91,-0.93 -0.22,-0.21 -0.25,-0.25 -0.28,-0.25 -0.04,-0.01 -0.08,0 -0.34,0.29l-0.03 -0.01zm7.23 65.78c-0.03,-0.05 -0.09,-0.12 -0.15,-0.15 -0.06,-0.03 -0.13,-0.03 -0.21,0.02 -0.08,0.05 -0.18,0.15 -0.23,0.25 -0.06,0.1 -0.08,0.18 -0.08,0.27 0,0.08 0.03,0.15 0.1,0.18 0.07,0.02 0.18,-0.01 0.29,-0.05 0.11,-0.04 0.2,-0.11 0.25,-0.18 0.06,-0.07 0.06,-0.14 0.07,-0.2 0.01,-0.05 0,-0.08 -0.03,-0.13l0 -0zm2.4 -0.44c-0.03,-0.01 -0.12,0.03 -0.16,0.08 -0.03,0.04 -0.03,0.08 0.01,0.09 0.04,0.01 0.11,-0.01 0.14,-0.05 0.03,-0.04 0.05,-0.11 0.01,-0.11l0 -0.01zm-0.54 0.21c-0.05,-0.01 -0.12,0.03 -0.15,0.09 -0.03,0.06 -0.02,0.13 0.01,0.16 0.04,0.03 0.1,0.04 0.14,0.02 0.04,-0.02 0.07,-0.07 0.07,-0.13 0,-0.06 -0.02,-0.13 -0.07,-0.14l0 -0.01zm-0.48 0.22c-0.06,-0.01 -0.15,-0.01 -0.21,0.02 -0.06,0.03 -0.08,0.08 -0.09,0.13 -0.01,0.06 0.01,0.11 0.08,0.14 0.06,0.02 0.18,0.01 0.24,-0.03 0.06,-0.04 0.07,-0.1 0.07,-0.15 -0.01,-0.06 -0.03,-0.1 -0.08,-0.11zm-0.61 0.22c-0.06,-0.03 -0.16,-0.01 -0.22,0.03 -0.06,0.04 -0.08,0.11 -0.09,0.18 0,0.07 0.01,0.14 0.08,0.15 0.06,0.01 0.18,-0.01 0.25,-0.06 0.06,-0.04 0.08,-0.09 0.08,-0.15 -0.01,-0.06 -0.03,-0.13 -0.1,-0.15l0.01 0zm-14.15 -61.49c0.32,0.4 0.95,1.16 1.36,1.69 0.41,0.53 0.62,0.81 0.91,0.92 0.29,0.11 0.66,0.06 1.14,-0.16 0.48,-0.22 1.07,-0.6 1.44,-0.84 0.37,-0.24 0.51,-0.34 0.58,-0.43 0.07,-0.09 0.06,-0.16 -0.01,-0.27 -0.07,-0.11 -0.21,-0.24 -0.3,-0.39 -0.09,-0.15 -0.15,-0.33 -0.11,-0.44 0.03,-0.11 0.14,-0.14 0.27,-0.13 0.13,0.02 0.27,0.09 0.44,0.23 0.17,0.14 0.36,0.34 0.53,0.41 0.17,0.07 0.3,0.01 0.59,-0.18 0.28,-0.2 0.71,-0.54 1.04,-0.81 0.33,-0.27 0.55,-0.46 0.59,-0.76 0.03,-0.29 -0.11,-0.69 -0.25,-0.99 -0.13,-0.29 -0.25,-0.5 -0.44,-0.76 -0.2,-0.27 -0.47,-0.62 -0.7,-0.85 -0.23,-0.23 -0.42,-0.35 -0.67,-0.28 -0.25,0.07 -0.57,0.33 -0.96,0.69 -0.39,0.36 -0.83,0.82 -1.34,1.23 -0.5,0.41 -1.07,0.77 -1.66,1.02 -0.6,0.25 -1.22,0.39 -1.69,0.48 -0.47,0.08 -0.79,0.11 -0.95,0.14 -0.15,0.03 -0.14,0.08 0.18,0.48l0.01 -0.01zm4.31 4.17c-0.02,0.12 -0.05,0.32 -0.08,0.45 -0.03,0.13 -0.07,0.2 -0.13,0.22 -0.06,0.02 -0.13,-0.01 -0.19,-0.08 -0.06,-0.08 -0.09,-0.21 -0.1,-0.39 -0.01,-0.18 0.02,-0.41 0.13,-0.62 0.11,-0.21 0.29,-0.39 0.55,-0.56 0.26,-0.18 0.6,-0.33 0.89,-0.42 0.29,-0.09 0.55,-0.11 0.75,-0.08 0.2,0.02 0.36,0.08 0.53,0.18 0.17,0.11 0.34,0.26 0.43,0.38 0.09,0.12 0.1,0.21 0.07,0.29 -0.03,0.08 -0.09,0.15 -0.16,0.2 -0.06,0.05 -0.13,0.08 -0.22,0.05 -0.08,-0.03 -0.17,-0.11 -0.27,-0.2 -0.1,-0.09 -0.2,-0.18 -0.35,-0.25 -0.15,-0.06 -0.33,-0.1 -0.5,-0.07 -0.18,0.02 -0.34,0.11 -0.51,0.19 -0.16,0.09 -0.32,0.19 -0.45,0.28 -0.13,0.09 -0.22,0.18 -0.29,0.23 -0.06,0.06 -0.08,0.1 -0.1,0.21l0.01 0zm4.32 38.88c-0.32,0.29 -0.84,0.9 -1.31,1.36 -0.47,0.46 -0.89,0.74 -1.29,0.88 -0.39,0.13 -0.76,0.11 -1.09,-0.01 -0.33,-0.13 -0.62,-0.35 -0.85,-0.6 -0.24,-0.24 -0.43,-0.49 -0.55,-0.55 -0.13,-0.06 -0.19,0.06 -0.16,0.29 0.03,0.22 0.15,0.54 0.48,0.81 0.32,0.27 0.85,0.48 1.32,0.59 0.48,0.11 0.9,0.12 1.28,0.05 0.39,-0.08 0.73,-0.24 1.19,-0.6 0.46,-0.36 1.05,-0.94 1.37,-1.29 0.32,-0.35 0.38,-0.48 0.36,-0.63 -0.01,-0.15 -0.1,-0.3 -0.2,-0.41 -0.1,-0.11 -0.22,-0.16 -0.54,0.13l0 0zm0.29 -2.47c0.65,0.01 2.05,0.57 3.03,0.96 0.99,0.39 1.56,0.6 2.16,0.97 0.6,0.38 1.21,0.93 1.66,1.63 0.45,0.7 0.72,1.55 0.9,2.45 0.18,0.9 0.26,1.84 0.07,2.59 -0.19,0.74 -0.64,1.29 -1.04,1.45 -0.39,0.15 -0.71,-0.08 -1.22,-0.69 -0.51,-0.61 -1.21,-1.59 -1.74,-2.52 -0.53,-0.93 -0.9,-1.82 -1.34,-2.57 -0.44,-0.76 -0.96,-1.39 -1.46,-1.91 -0.5,-0.52 -1,-0.91 -1.3,-1.37 -0.29,-0.46 -0.39,-0.99 0.27,-0.97l0.01 0zm2.99 -3.9c0.11,-0.05 0.39,0.04 0.69,0.06 0.31,0.02 0.65,-0.03 1.15,0.05 0.5,0.08 1.16,0.27 1.7,0.39 0.54,0.12 0.97,0.15 1.14,0.27 0.18,0.13 0.1,0.34 0.03,0.48 -0.06,0.15 -0.11,0.23 -0.46,0.25 -0.34,0.02 -0.97,-0.03 -1.6,-0.11 -0.64,-0.08 -1.3,-0.2 -1.74,-0.37 -0.45,-0.18 -0.7,-0.4 -0.84,-0.6 -0.15,-0.2 -0.18,-0.38 -0.07,-0.43l-0 0.01zm-3.31 -15.3c-0.06,0.19 -0.11,0.38 -0.16,0.57 0.06,-0.08 0.12,-0.18 0.15,-0.3 0.01,-0.08 0.02,-0.18 0.01,-0.27zm-0.26 0.99c-0.05,0.21 -0.09,0.41 -0.13,0.6 -0.13,0.67 -0.21,1.18 -0.24,1.64 -0.03,0.46 -0.01,0.85 -0.1,1.18 -0.06,0.22 -0.15,0.42 -0.25,0.6 0.22,-0.3 0.5,-0.6 0.67,-0.83 0.23,-0.31 0.25,-0.46 0.31,-0.62 0.06,-0.17 0.15,-0.36 0.14,-0.55 -0.01,-0.19 -0.12,-0.39 -0.15,-0.55 -0.03,-0.16 0.01,-0.28 -0.02,-0.38 -0.03,-0.1 -0.15,-0.18 -0.18,-0.3 -0.03,-0.13 0.03,-0.3 0.01,-0.48 -0.01,-0.1 -0.03,-0.2 -0.05,-0.3l-0.01 -0.01zm-1.12 4.8c-0.04,0.1 -0.08,0.22 -0.11,0.35 -0.06,0.21 -0.13,0.47 -0.18,0.75 0.06,-0.14 0.12,-0.29 0.15,-0.44 0.06,-0.21 0.08,-0.43 0.14,-0.66l0 -0zm-0.41 1.96c-0.03,0.51 -0.01,0.99 -0.01,1.32 0.01,0.36 -0.01,0.55 -0.08,0.7 -0.07,0.15 -0.18,0.25 -0.58,0.58 -0.4,0.33 -1.09,0.88 -1.43,1.2 -0.35,0.32 -0.36,0.41 -0.35,0.66 0,0.06 0.01,0.13 0.01,0.21 0.07,-0.17 0.16,-0.34 0.25,-0.48 0.15,-0.23 0.29,-0.36 0.54,-0.61 0.25,-0.25 0.62,-0.61 1,-0.92 0.37,-0.3 0.75,-0.55 1.63,-0.9 0.88,-0.35 2.24,-0.81 3.46,-1.09 1.23,-0.27 2.31,-0.36 3.09,-0.32 0.78,0.03 1.26,0.19 1.77,0.45 0.17,0.08 0.34,0.18 0.5,0.29 -0.15,-0.13 -0.25,-0.22 -0.3,-0.29 -0.08,-0.11 -0.04,-0.18 0.04,-0.27 0.03,-0.03 0.06,-0.07 0.1,-0.11 -0.1,0.02 -0.18,0.01 -0.25,-0.02 -0.11,-0.06 -0.12,-0.21 -0.13,-0.39 -0.01,-0.18 -0.04,-0.38 -0.06,-0.58 -0.01,-0.21 -0.02,-0.42 -0.11,-0.53 -0.08,-0.11 -0.25,-0.1 -0.4,-0.21 -0.15,-0.11 -0.29,-0.33 -0.46,-0.43 -0.17,-0.1 -0.35,-0.06 -0.57,-0.18 -0.22,-0.12 -0.46,-0.38 -0.69,-0.58 -0.22,-0.2 -0.42,-0.35 -0.74,-0.43 -0.32,-0.08 -0.74,-0.1 -1.01,-0.22 -0.27,-0.12 -0.36,-0.34 -0.53,-0.44 -0.17,-0.1 -0.41,-0.06 -0.61,-0.13 -0.2,-0.07 -0.34,-0.24 -0.56,-0.29 -0.22,-0.06 -0.51,-0.01 -0.74,-0.06 -0.23,-0.04 -0.39,-0.18 -0.47,-0.11 -0.08,0.06 -0.07,0.32 -0.19,0.56 -0.12,0.25 -0.36,0.48 -0.53,0.72 -0.17,0.24 -0.27,0.47 -0.44,0.8 -0.18,0.33 -0.43,0.76 -0.55,1.11 -0.13,0.36 -0.13,0.65 -0.18,0.88 -0.06,0.23 -0.16,0.4 -0.27,0.35 -0.06,-0.03 -0.12,-0.11 -0.15,-0.23l-0 -0.01zm10.2 20.89c0.12,-0.11 0.23,-0.22 0.32,-0.33 0.2,-0.26 0.24,-0.48 0.25,-0.74 0.01,-0.14 0,-0.29 -0.01,-0.46 0.03,0.5 -0.2,1.06 -0.55,1.54l0 -0.01zm0.55 -1.56c-0.01,-0.14 -0.03,-0.29 -0.05,-0.45 -0.01,-0.09 -0.03,-0.19 -0.05,-0.29 0.04,0.25 0.08,0.5 0.09,0.74l0.01 -0zm-3.1 -33.39c0.1,0.07 0.43,0.12 0.69,0.23 0.27,0.11 0.48,0.28 0.63,0.54 0.15,0.26 0.26,0.6 0.29,0.9 0.03,0.3 -0.01,0.55 -0.09,0.78 -0.08,0.22 -0.21,0.41 -0.43,0.57 -0.22,0.15 -0.52,0.27 -0.83,0.32 -0.31,0.05 -0.62,0.03 -0.86,0.05 -0.23,0.02 -0.38,0.09 -0.43,0.15 -0.05,0.06 -0.01,0.12 0.18,0.16 0.19,0.05 0.52,0.09 0.86,0.08 0.34,-0.01 0.71,-0.06 1.06,-0.18 0.35,-0.13 0.69,-0.34 0.93,-0.56 0.25,-0.22 0.41,-0.46 0.45,-0.85 0.04,-0.4 -0.04,-0.96 -0.16,-1.34 -0.13,-0.38 -0.29,-0.57 -0.56,-0.78 -0.27,-0.2 -0.63,-0.41 -0.91,-0.46 -0.28,-0.06 -0.48,0.04 -0.64,0.13 -0.16,0.09 -0.29,0.18 -0.2,0.26l0.01 -0.01zm4.69 -6.66c-0.05,0.04 0.11,0.12 0.28,0.33 0.17,0.22 0.35,0.57 0.46,0.95 0.11,0.39 0.16,0.8 0.2,1.23 0.03,0.43 0.06,0.88 0.03,1.25 -0.04,0.36 -0.12,0.63 -0.17,0.78 -0.05,0.15 -0.06,0.19 -0.07,0.26 -0.01,0.07 -0.02,0.16 0.05,0.24 0.07,0.08 0.22,0.13 0.33,0.16 0.1,0.03 0.15,0.03 0.22,-0.05 0.06,-0.08 0.15,-0.24 0.23,-0.55 0.08,-0.3 0.18,-0.75 0.22,-1.22 0.04,-0.47 0.04,-0.96 -0.03,-1.39 -0.06,-0.43 -0.17,-0.83 -0.24,-1.06 -0.06,-0.23 -0.08,-0.31 -0.22,-0.46 -0.15,-0.14 -0.41,-0.34 -0.69,-0.44 -0.27,-0.1 -0.54,-0.08 -0.59,-0.04l-0.01 0.01z"/>
 </g>
</svg>
