<?xml version="1.0" encoding="UTF-8"?>
<!DOCTYPE svg PUBLIC "-//W3C//DTD SVG 1.1//EN" "http://www.w3.org/Graphics/SVG/1.1/DTD/svg11.dtd">
<!-- Creator: CorelDRAW 2018 (64-Bit) -->
<svg xmlns="http://www.w3.org/2000/svg" xml:space="preserve" width="2.92299in" height="2.92289in" version="1.1" style="shape-rendering:geometricPrecision; text-rendering:geometricPrecision; image-rendering:optimizeQuality; fill-rule:evenodd; clip-rule:evenodd"
viewBox="0 0 20.81 20.81"
 xmlns:xlink="http://www.w3.org/1999/xlink">
 <defs>
  <style type="text/css">
   <![CDATA[
    .fil0 {fill:#9933FF;fill-rule:nonzero}
    .fil1 {fill:white;fill-rule:nonzero}
   ]]>
  </style>
 </defs>
 <g id="Layer_x0020_1">
  <metadata id="CorelCorpID_0Corel-Layer"/>
  <path class="fil0" d="M20.81 10.4c0,5.75 -4.66,10.4 -10.4,10.4 -5.75,0 -10.4,-4.66 -10.4,-10.4 0,-5.75 4.66,-10.4 10.4,-10.4 5.75,0 10.4,4.66 10.4,10.4z"/>
  <path class="fil1" d="M7.17 9.06l2.61 -4.52c0.34,-0.59 0.91,-0.59 1.25,0l2.61 4.52c0.34,0.59 0.06,1.08 -0.62,1.08l-0.8 0 0 4.75c0,1 -0.81,1.81 -1.81,1.81 -1,0 -1.81,-0.81 -1.81,-1.81l0 -4.75 -0.8 0c-0.68,0 -0.97,-0.49 -0.62,-1.08z"/>
 </g>
</svg>
