<?xml version="1.0" encoding="UTF-8"?>
<!DOCTYPE svg PUBLIC "-//W3C//DTD SVG 1.0//EN" "http://www.w3.org/TR/2001/REC-SVG-20010904/DTD/svg10.dtd">
<!-- Creator: CorelDRAW 2018 (64-Bit) -->
<svg xmlns="http://www.w3.org/2000/svg" xml:space="preserve" width="0.208287in" height="0.165492in" version="1.0" style="shape-rendering:geometricPrecision; text-rendering:geometricPrecision; image-rendering:optimizeQuality; fill-rule:evenodd; clip-rule:evenodd"
viewBox="0 0 225.86 179.46"
 xmlns:xlink="http://www.w3.org/1999/xlink">
 <defs>
  <style type="text/css">
   <![CDATA[
    .fil3 {fill:#6666FF}
    .fil1 {fill:#9933FF}
    .fil2 {fill:#99CC00}
    .fil0 {fill:#FF6600}
   ]]>
  </style>
 </defs>
 <g id="Layer_x0020_1">
  <metadata id="CorelCorpID_0Corel-Layer"/>
  <g id="_2240573534384">
   <path class="fil0" d="M159.54 13.11l1.23 3.07 65.08 162.97 -38.37 0 -16.21 -40.58 -56.06 0 -0.54 0 6.05 -18.19 4.39 -12.13 1.39 0 32.67 0 -16.91 -42.34 -0.96 -2.4 18.24 -50.41z"/>
   <path class="fil1" d="M18.67 92.28l33.02 -92.28 -39.16 0.09 -12.53 36.52 18.67 55.67z"/>
   <path class="fil2" d="M49.57 173.12l-25.39 -70.98 -0.52 -1.46 18.67 -55.67 0.96 2.81 24.59 71.66 -18.31 53.64z"/>
   <path class="fil3" d="M104.83 34.56l11.36 -34.49 0.41 0 -11.77 34.49z"/>
   <path class="fil1" d="M221.54 149.15l0.53 0 3.8 0 0 9.99 0 0.94 -4.32 -10.93zm-58.93 -149.07l2.82 0 60.2 -0.05 0 30.32 -48.68 0.05 -2.35 0 -11.99 -30.32zm27.73 70.15l1.74 0 33.61 0 0 30.32 -22.08 0 -1.27 0 -11.99 -30.32z"/>
   <path class="fil2" d="M104.83 34.56l11.77 -34.49 2.45 0 35.72 0 -63.8 179.38 -34.95 0 -0.63 0 49.44 -144.89z"/>
  </g>
 </g>
</svg>
