<?xml version="1.0" encoding="UTF-8"?>
<!DOCTYPE svg PUBLIC "-//W3C//DTD SVG 1.1//EN" "http://www.w3.org/Graphics/SVG/1.1/DTD/svg11.dtd">
<!-- Creator: CorelDRAW 2018 (64-Bit) -->
<svg xmlns="http://www.w3.org/2000/svg" xml:space="preserve" width="3.62266in" height="3.89989in" version="1.1" style="shape-rendering:geometricPrecision; text-rendering:geometricPrecision; image-rendering:optimizeQuality; fill-rule:evenodd; clip-rule:evenodd"
viewBox="0 0 41.29 44.45"
 xmlns:xlink="http://www.w3.org/1999/xlink">
 <defs>
  <style type="text/css">
   <![CDATA[
    .fil0 {fill:black;fill-rule:nonzero}
    .fil4 {fill:#373634;fill-rule:nonzero}
    .fil1 {fill:#9933FF;fill-rule:nonzero}
    .fil5 {fill:#99CC00;fill-rule:nonzero}
    .fil3 {fill:#CCCCCC;fill-rule:nonzero}
    .fil2 {fill:#E6E6E6;fill-rule:nonzero}
    .fil7 {fill:#E6E6E6;fill-rule:nonzero}
    .fil6 {fill:#FF6600;fill-rule:nonzero}
   ]]>
  </style>
 </defs>
 <g id="Layer_x0020_1">
  <metadata id="CorelCorpID_0Corel-Layer"/>
  <path class="fil0" d="M31.32 44.03l-22.11 0c6.14,-1.2 7.29,-5.81 7.29,-5.81l3.77 0.08 3.77 -0.08c0,0 1.15,4.61 7.29,5.81z"/>
  <path class="fil0" d="M-0 34.18l0 3.41c0,0.9 0.84,1.68 1.84,1.68l36.9 0c0.99,0 1.82,-0.78 1.82,-1.68l0 -3.41 -40.56 0z"/>
  <path class="fil1" d="M40.56 13.91c0,-1.17 -0.83,-2.1 -1.82,-2.1l-36.9 0c-1,0 -1.84,0.93 -1.84,2.1l0 20.27 40.56 0 0 -20.27z"/>
  <path class="fil2" d="M38.89 15.07c0,-1.02 -0.75,-1.83 -1.66,-1.83l-33.88 0c-0.91,0 -1.68,0.81 -1.68,1.83l0 17.69 37.22 0 0 -17.69z"/>
  <path class="fil3" d="M21.8 36.71c0,0.84 -0.68,1.52 -1.52,1.52 -0.84,0 -1.52,-0.68 -1.52,-1.52 0,-0.84 0.68,-1.52 1.52,-1.52 0.84,0 1.52,0.68 1.52,1.52z"/>
  <path class="fil1" d="M5.28 34.18l-5.27 0 0 -20.41c0,0 0.05,-0.81 0.57,-1.39 0.33,-0.35 0.77,-0.57 1.25,-0.57l16.66 0 -0.84 1.42 -14.31 0c-0.91,0 -1.68,0.81 -1.68,1.83l0 17.69 4.45 0 -0.84 1.42z"/>
  <path class="fil4" d="M32.54 42.87l-24.29 0c-0.27,0 -0.49,0.22 -0.49,0.49l0 0.6c0,0.27 0.22,0.49 0.49,0.49l24.29 0c0.27,0 0.49,-0.22 0.49,-0.49l0 -0.6c0,-0.27 -0.22,-0.49 -0.49,-0.49z"/>
  <path class="fil5" d="M21.52 17.81l-0.03 -0.02c-0.03,-0.01 -0.07,-0.03 -0.1,-0.05 -0.01,-0.01 -0.03,-0.02 -0.05,-0.03 -0.01,-0.01 -0.03,-0.02 -0.04,-0.03l-0.02 -0.01c-0.04,-0.03 -0.08,-0.07 -0.11,-0.11 -0.04,-0.04 -0.07,-0.08 -0.1,-0.12 -0.01,-0.02 -0.02,-0.03 -0.03,-0.05 -0.04,-0.05 -0.07,-0.11 -0.1,-0.17 -0.06,-0.14 -0.09,-0.29 -0.09,-0.45 0,-0.33 0.15,-0.64 0.38,-0.85 0.02,-0.02 0.04,-0.03 0.06,-0.05l0.02 -0.02c0.01,-0.01 0.03,-0.02 0.04,-0.03 0.05,-0.03 0.1,-0.06 0.15,-0.09 0.01,-0 0.03,-0.01 0.05,-0.02 0.14,-0.06 0.29,-0.09 0.45,-0.09 0.19,0 0.37,0.04 0.52,0.12 0.01,0.01 0.03,0.02 0.05,0.03 0.02,0.01 0.05,0.03 0.07,0.04 0.01,0.01 0.03,0.02 0.04,0.03l0.02 0.02c0.01,0.01 0.03,0.02 0.04,0.03 0.02,0.02 0.04,0.04 0.06,0.06 0.01,0.01 0.03,0.03 0.04,0.04 0.03,0.03 0.06,0.07 0.09,0.1 0.01,0.01 0.02,0.03 0.03,0.05 0.01,0.01 0.02,0.03 0.03,0.05 0.01,0.02 0.02,0.05 0.04,0.07 0.07,0.15 0.11,0.32 0.11,0.5 0,0.1 -0.01,0.2 -0.04,0.29 -0,0.01 -0.01,0.03 -0.01,0.05 -0.01,0.03 -0.02,0.05 -0.03,0.08 -0,0.01 -0.01,0.03 -0.02,0.05l-0.01 0.03c-0.01,0.02 -0.02,0.04 -0.03,0.06 -0.01,0.02 -0.02,0.03 -0.03,0.05l-0.02 0.04 -0.02 0.03 -0.01 0.02c-0.01,0.01 -0.02,0.03 -0.04,0.04l-0.02 0.02c-0.01,0.01 -0.02,0.03 -0.04,0.04l-0.02 0.02c-0.03,0.02 -0.05,0.05 -0.08,0.07l-0.02 0.01c-0.01,0.01 -0.03,0.02 -0.04,0.03 -0.02,0.01 -0.03,0.02 -0.05,0.03l-0.02 0.01c-0.02,0.01 -0.03,0.02 -0.05,0.03 -0.16,0.08 -0.33,0.12 -0.52,0.12 -0.15,0 -0.3,-0.03 -0.43,-0.08l-0.03 -0.01zm3.34 -1.64l-0.46 0c-0.06,-0.26 -0.16,-0.5 -0.3,-0.72l0 0 0.32 -0.32c0.07,-0.07 0.07,-0.19 0,-0.26l-0.57 -0.56c-0.07,-0.07 -0.19,-0.07 -0.26,0l-0.32 0.32c-0.23,-0.14 -0.47,-0.24 -0.72,-0.3l0 -0.46c0,-0.1 -0.09,-0.19 -0.19,-0.19l-0.8 0c-0.1,0 -0.17,0.09 -0.17,0.19l0 0.46c-0.26,0.06 -0.5,0.16 -0.72,0.3l-0 -0 -0.32 -0.32c-0.07,-0.07 -0.19,-0.07 -0.26,0l-0.56 0.57c-0.07,0.07 -0.07,0.19 0,0.26l0.32 0.32c-0.14,0.22 -0.23,0.47 -0.3,0.72l-0.46 0c-0.1,0 -0.18,0.09 -0.18,0.19l0 0.8c0,0.1 0.08,0.18 0.18,0.18l0.46 0c0.06,0.26 0.16,0.5 0.3,0.72l-0 0 -0.32 0.32c-0.08,0.07 -0.08,0.19 0,0.26l0.56 0.56c0.07,0.07 0.19,0.07 0.26,0l0.33 -0.32c0.22,0.14 0.47,0.23 0.72,0.3l0 0.46c0,0.1 0.08,0.19 0.18,0.19l0.8 0c0.1,0 0.19,-0.09 0.19,-0.19l0 -0.46c0.26,-0.06 0.5,-0.17 0.71,-0.3l0 0 0.32 0.32c0.08,0.08 0.19,0.08 0.26,0l0.56 -0.56c0.07,-0.07 0.07,-0.19 0,-0.26l-0.32 -0.32c0.14,-0.23 0.23,-0.47 0.3,-0.72l0.46 0c0.1,0 0.2,-0.08 0.2,-0.19l0 -0.8c0,-0.1 -0.09,-0.18 -0.2,-0.18z"/>
  <polygon class="fil1" points="2.88,15.85 17.62,15.85 17.62,14.12 2.88,14.12 "/>
  <polygon class="fil1" points="2.88,18.23 17.62,18.23 17.62,16.5 2.88,16.5 "/>
  <polygon class="fil1" points="2.91,32.38 4.64,32.38 4.64,25.78 2.91,25.78 "/>
  <polygon class="fil1" points="5.51,32.38 7.24,32.38 7.24,25.78 5.51,25.78 "/>
  <polygon class="fil1" points="8.11,32.38 9.83,32.38 9.83,25.78 8.11,25.78 "/>
  <polygon class="fil1" points="10.71,32.38 12.43,32.38 12.43,25.78 10.71,25.78 "/>
  <polygon class="fil1" points="13.3,32.38 15.03,32.38 15.03,25.78 13.3,25.78 "/>
  <polygon class="fil1" points="15.9,32.38 17.63,32.38 17.63,25.78 15.9,25.78 "/>
  <polygon class="fil6" points="26.23,19.82 32.36,19.82 32.36,13.69 26.23,13.69 "/>
  <polygon class="fil6" points="2.91,25.15 9.72,25.15 9.72,18.86 2.91,18.86 "/>
  <polygon class="fil6" points="10.82,25.15 17.63,25.15 17.63,18.86 10.82,18.86 "/>
  <polygon class="fil1" points="18.92,22.71 32.36,22.71 32.36,21.54 18.92,21.54 "/>
  <polygon class="fil1" points="18.92,24.62 32.36,24.62 32.36,23.45 18.92,23.45 "/>
  <polygon class="fil1" points="18.92,26.54 32.36,26.54 32.36,25.36 18.92,25.36 "/>
  <polygon class="fil5" points="18.92,32.38 32.36,32.38 32.36,27.41 18.92,27.41 "/>
  <g id="_1989132275952">
   <path class="fil7" d="M41.29 12.77c0,7.05 -5.72,12.77 -12.77,12.77 -7.05,0 -12.77,-5.72 -12.77,-12.77 0,-7.05 5.71,-12.77 12.77,-12.77 7.05,0 12.77,5.72 12.77,12.77z"/>
   <g>
    <path class="fil1" d="M30.3 23.75c-0.41,0.07 -0.83,0.11 -1.25,0.13 -0.17,0.01 -0.35,0.01 -0.52,0.01 -0.18,0 -0.35,-0 -0.52,-0.01 -0.42,-0.02 -0.84,-0.06 -1.25,-0.13 -5.26,-0.85 -9.3,-5.39 -9.35,-10.87 -0,-0.04 -0,-0.08 -0,-0.12 0,-0.04 0,-0.08 0,-0.12 0.03,-3.07 1.31,-5.84 3.35,-7.84 0.06,-0.06 0.12,-0.11 0.18,-0.17 1.58,-1.48 3.59,-2.51 5.83,-2.87 0.41,-0.07 0.83,-0.11 1.25,-0.13 0.17,-0.01 0.35,-0.01 0.52,-0.01 0.18,0 0.35,0 0.52,0.01 0.42,0.02 0.84,0.06 1.25,0.13 2.35,0.38 4.45,1.49 6.06,3.1 0.06,0.06 0.11,0.12 0.17,0.17 1.9,1.98 3.09,4.65 3.12,7.6 0,0.04 0,0.08 0,0.12 0,0.04 -0,0.08 -0,0.12 -0.06,5.48 -4.1,10.02 -9.35,10.87zm6.41 -18.88c-0.05,-0.05 -0.1,-0.1 -0.15,-0.15 -0.01,-0.01 -0.01,-0.02 -0.02,-0.02 -2.14,-2.13 -4.99,-3.31 -8.02,-3.31 -2.91,0 -5.66,1.09 -7.77,3.07 -0.06,0.06 -0.12,0.11 -0.18,0.17 -0.03,0.03 -0.06,0.06 -0.09,0.09 -2.15,2.15 -3.33,5 -3.33,8.04 0,3.04 1.18,5.89 3.33,8.04 2.15,2.15 5,3.33 8.04,3.33 3.04,0 5.89,-1.18 8.04,-3.33 2.15,-2.15 3.33,-5 3.33,-8.04 0,-2.97 -1.13,-5.76 -3.18,-7.89z"/>
    <path class="fil1" d="M28.52 2.15c-0.17,0 -0.34,0 -0.5,0.01 -0.4,0.02 -0.8,0.06 -1.2,0.12 -2.08,0.34 -4,1.28 -5.56,2.73 -0.06,0.05 -0.11,0.11 -0.17,0.16 -2.03,1.99 -3.17,4.64 -3.2,7.47 -0,0.04 -0,0.08 -0,0.11 0,0.04 0,0.08 0,0.12 0.05,5.18 3.81,9.54 8.92,10.37 0.39,0.06 0.8,0.11 1.2,0.12 0.33,0.02 0.67,0.02 1,0 0.4,-0.02 0.8,-0.06 1.2,-0.12l0 0c5.11,-0.82 8.87,-5.18 8.92,-10.37 0,-0.04 0,-0.08 0,-0.11 0,-0.04 -0,-0.08 -0,-0.12 -0.03,-2.71 -1.08,-5.29 -2.97,-7.25 -0.05,-0.06 -0.11,-0.11 -0.16,-0.17 -1.59,-1.58 -3.59,-2.6 -5.78,-2.95 -0.39,-0.06 -0.8,-0.11 -1.2,-0.12 -0.16,-0.01 -0.33,-0.01 -0.5,-0.01zm0 22.5c-3.17,0 -6.16,-1.24 -8.4,-3.48 -2.24,-2.24 -3.48,-5.23 -3.48,-8.4 0,-3.17 1.24,-6.16 3.48,-8.4 0.03,-0.03 0.06,-0.06 0.09,-0.09 0.06,-0.06 0.12,-0.12 0.19,-0.18 2.2,-2.07 5.09,-3.21 8.12,-3.21 3.16,0 6.14,1.23 8.38,3.45 0.01,0.01 0.02,0.02 0.03,0.03 0.05,0.05 0.1,0.11 0.15,0.16 2.14,2.22 3.33,5.15 3.33,8.25 0,3.17 -1.24,6.16 -3.48,8.4 -2.24,2.25 -5.23,3.48 -8.4,3.48z"/>
    <path class="fil1" d="M36.9 4.69c-0.05,-0.05 -0.1,-0.1 -0.15,-0.15 -0.01,-0.01 -0.02,-0.02 -0.03,-0.03l-0.18 -0.18 -0.18 0.18c-0.06,0.06 -0.12,0.11 -0.17,0.16 -0.63,0.59 -1.33,1.11 -2.08,1.53 -0.07,0.04 -0.14,0.08 -0.21,0.11 -1.03,0.56 -2.14,0.94 -3.29,1.14 -0.07,0.01 -0.15,0.02 -0.23,0.04 -0.53,0.08 -1.07,0.12 -1.62,0.12 -0.7,0 -1.4,-0.07 -2.08,-0.2 -0.08,-0.02 -0.16,-0.03 -0.23,-0.05 -1.13,-0.24 -2.21,-0.67 -3.21,-1.26 -0.07,-0.04 -0.14,-0.08 -0.2,-0.12 -0.7,-0.43 -1.35,-0.95 -1.94,-1.53 -0.06,-0.06 -0.12,-0.12 -0.17,-0.17l-0.18 -0.19 -0.19 0.18c-0.06,0.05 -0.12,0.11 -0.18,0.17l-0.19 0.18 0.18 0.19c0.05,0.05 0.1,0.1 0.15,0.16 0.01,0.01 0.02,0.02 0.02,0.02 0.64,0.64 1.35,1.2 2.11,1.67 0.07,0.05 0.14,0.09 0.21,0.13 1.07,0.63 2.22,1.08 3.44,1.33 0.09,0.02 0.17,0.04 0.24,0.05 0.72,0.14 1.46,0.21 2.2,0.21 0.58,0 1.16,-0.04 1.72,-0.13 0.09,-0.01 0.17,-0.03 0.24,-0.04 1.23,-0.21 2.42,-0.61 3.52,-1.2 0.08,-0.04 0.15,-0.08 0.22,-0.12 0.81,-0.46 1.57,-1.02 2.26,-1.66 0.06,-0.05 0.12,-0.11 0.18,-0.17l0.19 -0.18 -0.18 -0.19z"/>
    <path class="fil1" d="M36.9 20.47c-0.06,-0.06 -0.12,-0.12 -0.18,-0.17 -0.69,-0.64 -1.45,-1.2 -2.26,-1.66 -0.07,-0.04 -0.14,-0.08 -0.22,-0.12 -1.1,-0.59 -2.28,-0.99 -3.52,-1.2 -0.07,-0.01 -0.15,-0.02 -0.24,-0.04 -0.56,-0.08 -1.14,-0.13 -1.72,-0.13 -0.74,0 -1.48,0.07 -2.2,0.21 -0.07,0.01 -0.15,0.03 -0.24,0.05 -1.21,0.26 -2.37,0.71 -3.44,1.33 -0.07,0.04 -0.14,0.08 -0.21,0.13 -0.76,0.47 -1.47,1.03 -2.11,1.67 -0.01,0.01 -0.02,0.02 -0.02,0.02 -0.05,0.05 -0.1,0.1 -0.15,0.15l-0.18 0.19 0.19 0.18c0.06,0.06 0.12,0.12 0.18,0.17l0.19 0.18 0.18 -0.19c0.05,-0.05 0.1,-0.1 0.17,-0.17 0.59,-0.58 1.24,-1.1 1.94,-1.53 0.07,-0.04 0.14,-0.08 0.2,-0.12 1,-0.59 2.08,-1.02 3.21,-1.26 0.07,-0.02 0.15,-0.03 0.23,-0.05 0.68,-0.13 1.38,-0.2 2.08,-0.2 0.54,0 1.09,0.04 1.62,0.12 0.08,0.01 0.16,0.02 0.23,0.04 1.15,0.2 2.26,0.58 3.29,1.14 0.06,0.03 0.13,0.07 0.21,0.11 0.75,0.43 1.45,0.94 2.08,1.53 0.06,0.05 0.11,0.11 0.17,0.16l0.18 0.18 0.18 -0.18c0.01,-0.01 0.02,-0.02 0.03,-0.03 0.05,-0.05 0.1,-0.1 0.15,-0.15l0.18 -0.19 -0.19 -0.18z"/>
    <path class="fil1" d="M28.52 23.63c-1.41,0 -2.75,-1.11 -3.77,-3.13 -1.04,-2.06 -1.61,-4.81 -1.61,-7.73 0,-2.92 0.57,-5.67 1.61,-7.73 1.02,-2.02 2.35,-3.13 3.77,-3.13 1.41,0 2.75,1.11 3.77,3.13 1.04,2.06 1.61,4.81 1.61,7.73 0,2.92 -0.57,5.67 -1.61,7.73 -1.02,2.02 -2.35,3.13 -3.77,3.13zm4.31 -19.02c-1.14,-2.25 -2.67,-3.48 -4.31,-3.48 -1.64,0 -3.17,1.24 -4.31,3.48 -1.11,2.18 -1.72,5.08 -1.72,8.15 0,3.07 0.61,5.97 1.72,8.15 1.14,2.25 2.67,3.48 4.31,3.48 1.64,0 3.17,-1.24 4.31,-3.48 1.11,-2.18 1.72,-5.08 1.72,-8.15 0,-3.07 -0.61,-5.97 -1.72,-8.15z"/>
    <path class="fil1" d="M39.77 12.41l-22.5 0c-0.21,0 -0.38,0.17 -0.38,0.38 0,0.21 0.17,0.38 0.38,0.38l22.5 0c0.21,0 0.38,-0.17 0.38,-0.38 0,-0.21 -0.17,-0.38 -0.38,-0.38z"/>
    <path class="fil1" d="M28.9 24.04l0 -22.5c0,-0.21 -0.17,-0.38 -0.38,-0.38 -0.21,0 -0.38,0.17 -0.38,0.38l0 22.5c0,0.21 0.17,0.38 0.38,0.38 0.21,0 0.38,-0.17 0.38,-0.38z"/>
   </g>
  </g>
 </g>
</svg>
