<?xml version="1.0" encoding="UTF-8"?>
<!DOCTYPE svg PUBLIC "-//W3C//DTD SVG 1.1//EN" "http://www.w3.org/Graphics/SVG/1.1/DTD/svg11.dtd">
<!-- Creator: CorelDRAW 2018 (64-Bit) -->
<svg xmlns="http://www.w3.org/2000/svg" xml:space="preserve" width="3.62266in" height="3.89989in" version="1.1" style="shape-rendering:geometricPrecision; text-rendering:geometricPrecision; image-rendering:optimizeQuality; fill-rule:evenodd; clip-rule:evenodd"
viewBox="0 0 40.66 43.77"
 xmlns:xlink="http://www.w3.org/1999/xlink">
 <defs>
  <style type="text/css">
   <![CDATA[
    .fil11 {fill:#EFEFEF;fill-rule:nonzero}
    .fil9 {fill:#4B565A;fill-rule:nonzero}
    .fil8 {fill:#434959;fill-rule:nonzero}
    .fil10 {fill:#324255;fill-rule:nonzero}
    .fil0 {fill:black;fill-rule:nonzero}
    .fil4 {fill:#373634;fill-rule:nonzero}
    .fil1 {fill:#9933FF;fill-rule:nonzero}
    .fil5 {fill:#99CC00;fill-rule:nonzero}
    .fil3 {fill:#CCCCCC;fill-rule:nonzero}
    .fil2 {fill:#E6E6E6;fill-rule:nonzero}
    .fil7 {fill:#E6E6E6;fill-rule:nonzero}
    .fil6 {fill:#FF6600;fill-rule:nonzero}
   ]]>
  </style>
 </defs>
 <g id="Layer_x0020_1">
  <metadata id="CorelCorpID_0Corel-Layer"/>
  <path class="fil0" d="M30.84 43.35l-21.77 0c6.05,-1.18 7.17,-5.72 7.17,-5.72l3.71 0.08 3.71 -0.08c0,0 1.13,4.54 7.17,5.72z"/>
  <path class="fil0" d="M-0 33.66l0 3.36c0,0.89 0.83,1.65 1.81,1.65l36.34 0c0.98,0 1.79,-0.76 1.79,-1.65l0 -3.36 -39.94 0z"/>
  <path class="fil1" d="M39.94 13.7c0,-1.15 -0.81,-2.07 -1.79,-2.07l-36.34 0c-0.98,0 -1.81,0.92 -1.81,2.07l0 19.96 39.94 0 0 -19.96z"/>
  <path class="fil2" d="M38.3 14.83c0,-1.01 -0.74,-1.81 -1.64,-1.81l-33.36 0c-0.9,0 -1.65,0.8 -1.65,1.81l0 17.42 36.65 0 0 -17.42z"/>
  <path class="fil3" d="M21.47 36.15c0,0.83 -0.67,1.5 -1.5,1.5 -0.83,0 -1.5,-0.67 -1.5,-1.5 0,-0.83 0.67,-1.5 1.5,-1.5 0.83,0 1.5,0.67 1.5,1.5z"/>
  <path class="fil1" d="M5.2 33.66l-5.19 0 0 -20.1c0,0 0.05,-0.79 0.56,-1.37 0.33,-0.35 0.76,-0.56 1.23,-0.56l16.41 0 -0.83 1.4 -14.09 0c-0.9,0 -1.65,0.8 -1.65,1.81l0 17.42 4.38 0 -0.83 1.4z"/>
  <path class="fil4" d="M32.05 42.22l-23.92 0c-0.26,0 -0.48,0.22 -0.48,0.48l0 0.59c0,0.26 0.22,0.48 0.48,0.48l23.92 0c0.27,0 0.48,-0.22 0.48,-0.48l0 -0.59c0,-0.27 -0.22,-0.48 -0.48,-0.48z"/>
  <path class="fil5" d="M21.19 17.54l-0.03 -0.02c-0.03,-0.01 -0.07,-0.03 -0.1,-0.05 -0.01,-0.01 -0.03,-0.02 -0.05,-0.03 -0.01,-0.01 -0.03,-0.02 -0.04,-0.03l-0.02 -0.01c-0.04,-0.03 -0.08,-0.07 -0.11,-0.11 -0.04,-0.04 -0.07,-0.08 -0.1,-0.12 -0.01,-0.02 -0.02,-0.03 -0.03,-0.05 -0.04,-0.05 -0.07,-0.11 -0.09,-0.17 -0.06,-0.14 -0.09,-0.29 -0.09,-0.45 0,-0.33 0.15,-0.63 0.37,-0.84 0.02,-0.02 0.04,-0.03 0.06,-0.05l0.02 -0.02c0.01,-0.01 0.03,-0.02 0.04,-0.03 0.05,-0.03 0.09,-0.06 0.15,-0.08 0.01,-0 0.03,-0.01 0.05,-0.02 0.14,-0.06 0.29,-0.09 0.44,-0.09 0.19,0 0.36,0.04 0.52,0.12 0.01,0.01 0.03,0.02 0.05,0.03 0.02,0.01 0.05,0.03 0.07,0.04 0.01,0.01 0.03,0.02 0.04,0.03l0.02 0.02c0.01,0.01 0.03,0.02 0.04,0.03 0.02,0.02 0.04,0.04 0.06,0.06 0.01,0.01 0.03,0.03 0.04,0.04 0.03,0.03 0.06,0.07 0.08,0.1 0.01,0.01 0.02,0.03 0.03,0.05 0.01,0.01 0.02,0.03 0.03,0.05 0.01,0.02 0.02,0.05 0.04,0.07 0.07,0.15 0.11,0.31 0.11,0.49 0,0.1 -0.01,0.19 -0.04,0.29 -0,0.01 -0.01,0.03 -0.01,0.05 -0.01,0.03 -0.02,0.05 -0.03,0.08 -0,0.01 -0.01,0.03 -0.02,0.05l-0.01 0.03c-0.01,0.02 -0.02,0.04 -0.03,0.06 -0.01,0.02 -0.02,0.03 -0.03,0.05l-0.02 0.04 -0.02 0.03 -0.01 0.02c-0.01,0.01 -0.02,0.03 -0.04,0.04l-0.02 0.02c-0.01,0.01 -0.02,0.03 -0.04,0.04l-0.02 0.02c-0.03,0.02 -0.05,0.05 -0.08,0.07l-0.02 0.01c-0.01,0.01 -0.03,0.02 -0.04,0.03 -0.02,0.01 -0.03,0.02 -0.05,0.03l-0.02 0.01c-0.02,0.01 -0.03,0.02 -0.05,0.03 -0.15,0.08 -0.33,0.12 -0.52,0.12 -0.15,0 -0.29,-0.03 -0.42,-0.08l-0.03 -0.01zm3.29 -1.62l-0.45 0c-0.06,-0.26 -0.16,-0.49 -0.3,-0.7l0 0 0.32 -0.32c0.07,-0.07 0.07,-0.19 0,-0.26l-0.56 -0.55c-0.07,-0.07 -0.18,-0.07 -0.25,0l-0.31 0.32c-0.23,-0.14 -0.46,-0.23 -0.7,-0.29l0 -0.45c0,-0.1 -0.09,-0.19 -0.19,-0.19l-0.79 0c-0.1,0 -0.17,0.08 -0.17,0.19l0 0.45c-0.26,0.06 -0.49,0.16 -0.71,0.3l-0 -0 -0.32 -0.32c-0.07,-0.07 -0.19,-0.07 -0.26,0l-0.55 0.56c-0.07,0.07 -0.07,0.18 0,0.25l0.32 0.32c-0.14,0.22 -0.23,0.46 -0.29,0.7l-0.45 0c-0.1,0 -0.18,0.08 -0.18,0.18l0 0.78c0,0.1 0.08,0.18 0.18,0.18l0.45 0c0.06,0.26 0.16,0.49 0.3,0.7l-0 0 -0.31 0.32c-0.08,0.07 -0.08,0.19 0,0.26l0.55 0.55c0.07,0.07 0.18,0.07 0.25,0l0.32 -0.32c0.22,0.14 0.46,0.23 0.71,0.29l0 0.45c0,0.1 0.08,0.18 0.17,0.18l0.79 0c0.1,0 0.18,-0.08 0.18,-0.18l0 -0.45c0.26,-0.06 0.49,-0.16 0.7,-0.3l0 0 0.31 0.32c0.08,0.08 0.19,0.08 0.26,0l0.55 -0.55c0.07,-0.07 0.07,-0.18 0,-0.26l-0.32 -0.31c0.14,-0.23 0.23,-0.46 0.29,-0.71l0.45 0c0.1,0 0.19,-0.08 0.19,-0.18l0 -0.78c0,-0.1 -0.09,-0.18 -0.19,-0.18z"/>
  <polygon class="fil1" points="2.84,15.61 17.36,15.61 17.36,13.91 2.84,13.91 "/>
  <polygon class="fil1" points="2.84,17.95 17.36,17.95 17.36,16.25 2.84,16.25 "/>
  <polygon class="fil1" points="2.87,31.89 4.57,31.89 4.57,25.39 2.87,25.39 "/>
  <polygon class="fil1" points="5.43,31.89 7.13,31.89 7.13,25.39 5.43,25.39 "/>
  <polygon class="fil1" points="7.98,31.89 9.68,31.89 9.68,25.39 7.98,25.39 "/>
  <polygon class="fil1" points="10.54,31.89 12.24,31.89 12.24,25.39 10.54,25.39 "/>
  <polygon class="fil1" points="13.1,31.89 14.8,31.89 14.8,25.39 13.1,25.39 "/>
  <polygon class="fil1" points="15.66,31.89 17.36,31.89 17.36,25.39 15.66,25.39 "/>
  <polygon class="fil6" points="25.83,19.51 31.86,19.51 31.86,13.48 25.83,13.48 "/>
  <polygon class="fil6" points="2.87,24.77 9.57,24.77 9.57,18.57 2.87,18.57 "/>
  <polygon class="fil6" points="10.65,24.77 17.36,24.77 17.36,18.57 10.65,18.57 "/>
  <polygon class="fil1" points="18.63,22.36 31.86,22.36 31.86,21.21 18.63,21.21 "/>
  <polygon class="fil1" points="18.63,24.25 31.86,24.25 31.86,23.09 18.63,23.09 "/>
  <polygon class="fil1" points="18.63,26.13 31.86,26.13 31.86,24.98 18.63,24.98 "/>
  <polygon class="fil5" points="18.63,31.89 31.86,31.89 31.86,26.99 18.63,26.99 "/>
  <path class="fil7" d="M40.66 12.57c0,6.94 -5.63,12.57 -12.57,12.57 -6.94,0 -12.57,-5.63 -12.57,-12.57 0,-6.94 5.63,-12.57 12.57,-12.57 6.94,0 12.57,5.63 12.57,12.57z"/>
  <path class="fil5" d="M39.2 12.57c0,6.14 -4.97,11.11 -11.11,11.11 -6.14,0 -11.11,-4.97 -11.11,-11.11 0,-6.14 4.97,-11.11 11.11,-11.11 6.14,0 11.11,4.97 11.11,11.11z"/>
  <g id="_1989128608208">
   <polygon class="fil6" points="30.05,12.43 30.31,12.14 33.98,15.38 33.73,15.66 33.71,15.68 33.68,15.7 30.7,17.23 28.89,15.63 30.03,12.44 30.04,12.43 "/>
   <path class="fil8" d="M28.9 15.62l1.81 1.59 -2.57 1.31c-0.12,0.06 -0.26,-0.06 -0.21,-0.19l0.98 -2.72z"/>
   <path class="fil1" d="M37.8 10.31l0.43 -0.48c0.01,0.01 0.01,0.02 0.02,0.03 0.09,0.13 0.16,0.26 0.24,0.4 0,0 0,0.01 0,0.01l-4.73 5.37c-0.01,0.01 -0.01,0.02 -0.02,0.02l-0.01 0.01 -0 0 0 0 -0.03 0.01c-0.05,0.01 -0.1,-0.03 -0.09,-0.08l0.03 -0.51c0,-0.01 -0,-0.03 0.01,-0.04 0,-0 0,-0.01 0,-0.01 -0,0 -0,0.01 -0,0.01 -0.01,0.01 -0.02,0.02 -0.04,0.02l-0.5 0.09c-0.05,0.01 -0.09,-0.03 -0.09,-0.08l0.03 -0.5c0,-0.02 0.01,-0.03 0.03,-0.04 -0.01,0.01 -0.03,0.02 -0.05,0.02l-0.5 0.09c-0.05,0.01 -0.1,-0.03 -0.09,-0.08l0.03 -0.5c0,-0.02 0.01,-0.04 0.02,-0.05 -0.01,0.01 -0.03,0.02 -0.05,0.03l-0.5 0.09c-0.05,0.01 -0.09,-0.03 -0.09,-0.08l0.03 -0.51c0,-0.02 0.01,-0.04 0.02,-0.06 -0.01,0.01 -0.03,0.02 -0.05,0.03l-0.5 0.09c-0.05,0.01 -0.1,-0.03 -0.09,-0.08l0.02 -0.51c0,-0.01 0,-0.02 0,-0.03 -0.01,0.01 -0.02,0.01 -0.03,0.01l-0.5 0.09c-0.05,0.01 -0.09,-0.03 -0.09,-0.08l0.03 -0.51c0,-0.01 0,-0.02 0,-0.02 -0.01,0 -0.02,0 -0.03,0l-0.5 0.09c-0.05,0.01 -0.1,-0.03 -0.1,-0.08l0 -0.04 0 -0.01 0 -0.01 0 -0c0,-0 2.33,-2.63 4.76,-5.39 0.16,0.06 0.31,0.13 0.47,0.21 0.17,0.08 0.33,0.16 0.5,0.26 0.07,0.04 0.14,0.09 0.18,0.11 0.04,0.03 0.04,0.03 0.05,0.04 0.13,0.08 0.25,0.17 0.38,0.26 0.08,0.06 0.16,0.12 0.23,0.17 0.07,0.06 0.09,0.07 0.14,0.11 0.06,0.05 0.12,0.1 0.17,0.15 0.06,0.05 0.11,0.1 0.17,0.15 0.04,0.04 0.09,0.09 0.13,0.12 0.06,0.06 0.13,0.13 0.2,0.2 0.1,0.11 0.21,0.22 0.3,0.34l0.01 0.01c0.01,0.01 0.01,0.02 0.04,0.05 -0,0 0.03,0.04 0.05,0.06 0.03,0.04 0.06,0.07 0.08,0.11 0.03,0.04 0.06,0.07 0.08,0.11l-0.01 -0c0.09,0.12 0.17,0.23 0.24,0.35l-0.43 0.49z"/>
  </g>
  <g id="_1989128612112">
   <path class="fil9" d="M23.88 8.83c0,0 -1.83,7.33 -1.89,8.32l0 1.23c0,0 0.01,0.67 0.18,0.99l0.52 0 0 -1.1c0,0 0.02,-1.23 0.27,-1.61l1.54 -6.67 0.28 -1.17 -0.9 0z"/>
   <path class="fil9" d="M25.75 8.83c0,0 1.82,7.33 1.87,8.32l0 1.23c0,0 0.01,0.67 -0.17,0.99l-0.48 0 0 -1.1c0,0 -0.04,-1.23 -0.29,-1.61l-1.54 -6.67 -0.29 -1.17 0.9 0z"/>
   <polygon class="fil9" points="22.44,20.23 22.66,20.23 22.66,19.34 22.44,19.34 "/>
   <polygon class="fil9" points="26.98,20.23 27.2,20.23 27.2,19.34 26.98,19.34 "/>
   <polygon class="fil9" points="21.67,12.96 28,12.96 28,12.73 21.67,12.73 "/>
   <path class="fil10" d="M24.84 5.61c-0.58,0 -1.12,0.23 -1.53,0.64 -0.41,0.41 -0.64,0.95 -0.64,1.53 0,0.58 0.23,1.12 0.64,1.53 0.41,0.41 0.95,0.64 1.53,0.64 0.58,0 1.12,-0.22 1.53,-0.64 0.41,-0.41 0.64,-0.95 0.64,-1.53 0,-0.58 -0.22,-1.12 -0.64,-1.53 -0.41,-0.41 -0.95,-0.64 -1.53,-0.64zm0 0.5c0.92,0 1.67,0.75 1.67,1.67 0,0.92 -0.75,1.67 -1.67,1.67 -0.92,0 -1.67,-0.75 -1.67,-1.67 0,-0.92 0.75,-1.67 1.67,-1.67z"/>
   <path class="fil11" d="M24.87 5.93l-0.07 0c-0.11,0 -0.21,-0.09 -0.21,-0.21l0 -0.7c0,-0.11 0.09,-0.21 0.21,-0.21l0.07 0c0.11,0 0.21,0.09 0.21,0.21l0 0.7c0,0.12 -0.09,0.21 -0.21,0.21z"/>
   <path class="fil10" d="M24.85 5.17l0 0c-0.2,0 -0.36,-0.16 -0.36,-0.36l0 -1.62c0,-0.2 0.16,-0.36 0.36,-0.36 0.2,0 0.36,0.16 0.36,0.36l0 1.62c0,0.2 -0.16,0.36 -0.36,0.36z"/>
   <path class="fil10" d="M25.6 9.39c0,0.42 -0.34,0.77 -0.77,0.77 -0.42,0 -0.77,-0.34 -0.77,-0.77 0,-0.42 0.34,-0.77 0.77,-0.77 0.42,0 0.77,0.34 0.77,0.77z"/>
  </g>
 </g>
</svg>
