<?xml version="1.0" encoding="UTF-8"?>
<!DOCTYPE svg PUBLIC "-//W3C//DTD SVG 1.1//EN" "http://www.w3.org/Graphics/SVG/1.1/DTD/svg11.dtd">
<!-- Creator: CorelDRAW 2018 (64-Bit) -->
<svg xmlns="http://www.w3.org/2000/svg" xml:space="preserve" width="5.76994in" height="4.99306in" version="1.1" style="shape-rendering:geometricPrecision; text-rendering:geometricPrecision; image-rendering:optimizeQuality; fill-rule:evenodd; clip-rule:evenodd"
viewBox="0 0 61.8 53.48"
 xmlns:xlink="http://www.w3.org/1999/xlink">
 <defs>
  <style type="text/css">
   <![CDATA[
    .fil9 {fill:none}
    .fil6 {fill:#606062}
    .fil5 {fill:#373435}
    .fil0 {fill:#9933FF}
    .fil2 {fill:#99CC00}
    .fil1 {fill:#FF6600}
    .fil4 {fill:#9933FF;fill-rule:nonzero}
    .fil7 {fill:#E6E6E6;fill-rule:nonzero}
    .fil8 {fill:#FF6600;fill-rule:nonzero}
    .fil3 {fill:white;fill-rule:nonzero}
   ]]>
  </style>
 </defs>
 <g id="Layer_x0020_1">
  <metadata id="CorelCorpID_0Corel-Layer"/>
  <polygon class="fil0" points="-0,27.3 61.8,27.3 61.8,33.56 -0,33.56 "/>
  <polygon class="fil1" points="-0,27.3 30.9,27.3 30.9,32.34 -0,32.34 "/>
  <polygon class="fil0" points="-0,32.34 31.93,32.34 31.93,39.72 -0,39.72 "/>
  <polygon class="fil1" points="61.8,32.34 30.9,32.34 30.9,39.72 61.8,39.72 "/>
  <polygon class="fil0" points="-0,48.8 61.8,48.8 61.8,39.34 -0,39.34 "/>
  <polygon class="fil2" points="-0,48.8 61.8,48.8 61.8,53.48 -0,53.48 "/>
  <path class="fil3" d="M2.77 31.27l0 -2.9 1.99 0 0 0.49 -1.41 0 0 0.69 1.22 0 0 0.49 -1.22 0 0 1.23 -0.59 0zm2.48 0l0 -2.9 1.23 0c0.31,0 0.54,0.03 0.68,0.08 0.14,0.05 0.25,0.14 0.34,0.28 0.08,0.13 0.13,0.29 0.13,0.46 0,0.22 -0.06,0.4 -0.19,0.54 -0.13,0.14 -0.32,0.23 -0.57,0.27 0.13,0.07 0.23,0.15 0.31,0.24 0.08,0.09 0.19,0.25 0.33,0.47l0.35 0.57 -0.7 0 -0.42 -0.63c-0.15,-0.23 -0.25,-0.37 -0.31,-0.43 -0.06,-0.06 -0.11,-0.1 -0.18,-0.12 -0.06,-0.02 -0.16,-0.03 -0.3,-0.03l-0.12 0 0 1.21 -0.59 0zm0.59 -1.67l0.43 0c0.28,0 0.46,-0.01 0.53,-0.04 0.07,-0.02 0.12,-0.06 0.16,-0.12 0.04,-0.06 0.06,-0.13 0.06,-0.22 0,-0.1 -0.03,-0.18 -0.08,-0.24 -0.05,-0.06 -0.13,-0.1 -0.22,-0.11 -0.05,-0.01 -0.19,-0.01 -0.43,-0.01l-0.46 0 0 0.74zm2.22 0.24c0,-0.3 0.04,-0.54 0.13,-0.75 0.07,-0.15 0.16,-0.28 0.27,-0.4 0.11,-0.12 0.24,-0.2 0.38,-0.26 0.18,-0.08 0.39,-0.11 0.63,-0.11 0.43,0 0.77,0.13 1.03,0.4 0.26,0.27 0.39,0.64 0.39,1.11 0,0.47 -0.13,0.84 -0.38,1.1 -0.25,0.27 -0.6,0.4 -1.02,0.4 -0.43,0 -0.78,-0.13 -1.03,-0.4 -0.25,-0.26 -0.38,-0.63 -0.38,-1.09zm0.6 -0.02c0,0.33 0.08,0.58 0.23,0.75 0.15,0.17 0.35,0.25 0.58,0.25 0.23,0 0.43,-0.08 0.58,-0.25 0.15,-0.17 0.23,-0.42 0.23,-0.76 0,-0.33 -0.07,-0.58 -0.22,-0.75 -0.15,-0.16 -0.34,-0.25 -0.58,-0.25 -0.24,0 -0.44,0.08 -0.59,0.25 -0.15,0.17 -0.22,0.42 -0.22,0.75zm2.67 1.45l0 -2.9 0.57 0 1.19 1.95 0 -1.95 0.54 0 0 2.9 -0.59 0 -1.18 -1.91 0 1.91 -0.54 0zm3.58 0l0 -2.41 -0.86 0 0 -0.49 2.3 0 0 0.49 -0.86 0 0 2.41 -0.59 0zm2.95 0l0 -2.9 2.15 0 0 0.49 -1.56 0 0 0.64 1.45 0 0 0.49 -1.45 0 0 0.79 1.62 0 0 0.49 -2.21 0zm2.7 0l0 -2.9 0.57 0 1.19 1.95 0 -1.95 0.54 0 0 2.9 -0.59 0 -1.18 -1.91 0 1.91 -0.54 0zm2.93 -2.9l1.07 0c0.24,0 0.43,0.02 0.55,0.06 0.17,0.05 0.32,0.14 0.44,0.27 0.12,0.13 0.21,0.28 0.28,0.47 0.06,0.19 0.09,0.41 0.09,0.69 0,0.24 -0.03,0.44 -0.09,0.62 -0.07,0.21 -0.18,0.38 -0.31,0.51 -0.1,0.1 -0.24,0.18 -0.41,0.23 -0.13,0.04 -0.3,0.06 -0.52,0.06l-1.1 0 0 -2.9zm0.59 0.49l0 1.92 0.44 0c0.16,0 0.28,-0.01 0.35,-0.03 0.1,-0.02 0.17,-0.06 0.24,-0.12 0.06,-0.06 0.11,-0.15 0.15,-0.28 0.04,-0.13 0.06,-0.31 0.06,-0.53 0,-0.22 -0.02,-0.4 -0.06,-0.52 -0.04,-0.12 -0.09,-0.21 -0.17,-0.28 -0.07,-0.07 -0.16,-0.11 -0.27,-0.14 -0.08,-0.02 -0.24,-0.03 -0.48,-0.03l-0.26 0z"/>
  <path class="fil4" d="M55.87 22.59c0,0.61 -0.5,1.1 -1.1,1.1l-16.72 0c-0.61,0 -1.1,-0.49 -1.1,-1.1l0 -9.83c0,-0.61 0.49,-1.1 1.1,-1.1l16.72 0c0.61,0 1.1,0.49 1.1,1.1l0 9.83zm1.11 -10.7c0,-0.61 -0.5,-1.1 -1.1,-1.1l-18.92 0c-0.61,0 -1.1,0.5 -1.1,1.1l0 11.5c0,0.61 0.5,1.1 1.1,1.1l18.92 0c0.61,0 1.1,-0.49 1.1,-1.1l0 -11.5z"/>
  <polygon class="fil5" points="37.7,12.2 55.05,12.2 55.05,23.06 37.7,23.06 "/>
  <polygon class="fil6" points="41.56,12.2 42.11,12.2 42.11,23.06 41.56,23.06 "/>
  <polygon class="fil7" points="44.91,13.3 45.64,13.3 45.64,13.04 44.91,13.04 "/>
  <polygon class="fil7" points="39.33,13.43 39.48,13.43 39.48,13.17 39.33,13.17 "/>
  <polygon class="fil7" points="44.91,21.74 45.64,21.74 45.64,22 44.91,22 "/>
  <polygon class="fil7" points="39.33,21.87 39.48,21.87 39.48,22.13 39.33,22.13 "/>
  <polygon class="fil7" points="44.91,17.36 45.64,17.36 45.64,17.63 44.91,17.63 "/>
  <polygon class="fil7" points="39.33,17.49 39.48,17.49 39.48,17.76 39.33,17.76 "/>
  <polygon class="fil7" points="44.91,17.68 45.64,17.68 45.64,17.41 44.91,17.41 "/>
  <polygon class="fil7" points="39.33,17.81 39.48,17.81 39.48,17.54 39.33,17.54 "/>
  <polygon class="fil7" points="44.91,13.3 46.95,13.3 46.95,13.04 44.91,13.04 "/>
  <polygon class="fil7" points="39.33,13.43 39.75,13.43 39.75,13.17 39.33,13.17 "/>
  <polygon class="fil7" points="44.91,21.74 46.95,21.74 46.95,22 44.91,22 "/>
  <polygon class="fil7" points="39.33,21.87 39.75,21.87 39.75,22.13 39.33,22.13 "/>
  <polygon class="fil7" points="44.91,17.36 46.95,17.36 46.95,17.63 44.91,17.63 "/>
  <polygon class="fil7" points="39.33,17.49 39.75,17.49 39.75,17.76 39.33,17.76 "/>
  <polygon class="fil7" points="44.91,17.68 46.95,17.68 46.95,17.41 44.91,17.41 "/>
  <polygon class="fil7" points="39.33,17.81 39.75,17.81 39.75,17.54 39.33,17.54 "/>
  <polygon class="fil7" points="45.27,15.19 52.13,15.19 52.13,15.46 45.27,15.46 "/>
  <polygon class="fil7" points="39.4,15.33 40.84,15.33 40.84,15.59 39.4,15.59 "/>
  <polygon class="fil7" points="45.27,19.84 52.13,19.84 52.13,19.57 45.27,19.57 "/>
  <polygon class="fil7" points="39.4,19.97 40.84,19.97 40.84,19.71 39.4,19.71 "/>
  <polygon class="fil7" points="45.24,13.73 50.36,13.73 50.36,13.47 45.24,13.47 "/>
  <polygon class="fil7" points="39.39,13.87 40.47,13.87 40.47,13.6 39.39,13.6 "/>
  <polygon class="fil7" points="45.24,21.3 50.36,21.3 50.36,21.57 45.24,21.57 "/>
  <polygon class="fil7" points="39.39,21.43 40.47,21.43 40.47,21.7 39.39,21.7 "/>
  <polygon class="fil7" points="45.24,16.93 50.36,16.93 50.36,17.19 45.24,17.19 "/>
  <polygon class="fil7" points="39.39,17.06 40.47,17.06 40.47,17.32 39.39,17.32 "/>
  <polygon class="fil7" points="45.24,18.11 50.36,18.11 50.36,17.84 45.24,17.84 "/>
  <polygon class="fil7" points="39.39,18.24 40.47,18.24 40.47,17.97 39.39,17.97 "/>
  <polygon class="fil7" points="45.62,14.76 50.25,14.76 50.25,15.03 45.62,15.03 "/>
  <polygon class="fil7" points="39.47,14.89 40.44,14.89 40.44,15.16 39.47,15.16 "/>
  <polygon class="fil7" points="45.62,20.28 50.25,20.28 50.25,20.01 45.62,20.01 "/>
  <polygon class="fil7" points="39.47,20.41 40.44,20.41 40.44,20.14 39.47,20.14 "/>
  <polygon class="fil7" points="45.62,15.91 50.25,15.91 50.25,15.64 45.62,15.64 "/>
  <polygon class="fil7" points="39.47,16.04 40.44,16.04 40.44,15.77 39.47,15.77 "/>
  <polygon class="fil7" points="45.62,19.13 50.25,19.13 50.25,19.4 45.62,19.4 "/>
  <polygon class="fil7" points="39.47,19.26 40.44,19.26 40.44,19.53 39.47,19.53 "/>
  <polygon class="fil7" points="45.62,14.17 49.42,14.17 49.42,13.9 45.62,13.9 "/>
  <polygon class="fil7" points="39.47,14.3 40.27,14.3 40.27,14.03 39.47,14.03 "/>
  <polygon class="fil7" points="45.62,20.87 49.42,20.87 49.42,21.14 45.62,21.14 "/>
  <polygon class="fil7" points="39.47,21 40.27,21 40.27,21.27 39.47,21.27 "/>
  <polygon class="fil7" points="45.62,16.5 49.42,16.5 49.42,16.76 45.62,16.76 "/>
  <polygon class="fil7" points="39.47,16.63 40.27,16.63 40.27,16.89 39.47,16.89 "/>
  <polygon class="fil7" points="45.62,18.54 49.42,18.54 49.42,18.28 45.62,18.28 "/>
  <polygon class="fil7" points="39.47,18.67 40.27,18.67 40.27,18.41 39.47,18.41 "/>
  <polygon class="fil7" points="45.85,14.32 51.01,14.32 51.01,14.59 45.85,14.59 "/>
  <polygon class="fil7" points="39.52,14.45 40.6,14.45 40.6,14.72 39.52,14.72 "/>
  <polygon class="fil7" points="45.85,20.72 51.01,20.72 51.01,20.45 45.85,20.45 "/>
  <polygon class="fil7" points="39.52,20.85 40.6,20.85 40.6,20.58 39.52,20.58 "/>
  <polygon class="fil7" points="45.85,16.34 51.01,16.34 51.01,16.08 45.85,16.08 "/>
  <polygon class="fil7" points="39.52,16.47 40.6,16.47 40.6,16.21 39.52,16.21 "/>
  <polygon class="fil7" points="45.85,18.69 51.01,18.69 51.01,18.96 45.85,18.96 "/>
  <polygon class="fil7" points="39.52,18.83 40.6,18.83 40.6,19.09 39.52,19.09 "/>
  <path class="fil4" d="M45.57 9l0.69 1.19c0.09,0.16 0.24,0.16 0.33,0l0.69 -1.19c0.09,-0.16 0.02,-0.28 -0.16,-0.28l-0.21 0 0 -1.25c0,-0.26 -0.21,-0.48 -0.48,-0.48 -0.26,0 -0.48,0.21 -0.48,0.48l0 1.25 -0.21 0c-0.18,0 -0.25,0.13 -0.16,0.28z"/>
  <path class="fil4" d="M41.68 3.3c0,1.82 -1.48,3.3 -3.3,3.3 -1.82,0 -3.3,-1.48 -3.3,-3.3 0,-1.82 1.48,-3.3 3.3,-3.3 1.82,0 3.3,1.48 3.3,3.3z"/>
  <path class="fil3" d="M36.61 3.95l0 -1.31 0.42 0c0.16,0 0.26,0.01 0.31,0.02 0.07,0.02 0.14,0.06 0.19,0.13 0.05,0.07 0.08,0.15 0.08,0.25 0,0.08 -0.01,0.15 -0.04,0.2 -0.03,0.05 -0.07,0.1 -0.11,0.13 -0.04,0.03 -0.09,0.05 -0.14,0.06 -0.06,0.01 -0.15,0.02 -0.27,0.02l-0.17 0 0 0.49 -0.26 0zm0.26 -1.08l0 0.37 0.14 0c0.1,0 0.17,-0.01 0.21,-0.02 0.03,-0.01 0.06,-0.03 0.08,-0.06 0.02,-0.03 0.03,-0.06 0.03,-0.1 0,-0.05 -0.01,-0.09 -0.04,-0.12 -0.03,-0.03 -0.06,-0.05 -0.11,-0.06 -0.03,-0.01 -0.09,-0.01 -0.19,-0.01l-0.13 0zm0.95 1.08l0 -1.31 0.26 0 0 0.51 0.51 0 0 -0.51 0.26 0 0 1.31 -0.26 0 0 -0.57 -0.51 0 0 0.57 -0.26 0zm1.32 0l0 -1.31 0.42 0c0.16,0 0.26,0.01 0.31,0.02 0.07,0.02 0.14,0.06 0.19,0.13 0.05,0.07 0.08,0.15 0.08,0.25 0,0.08 -0.01,0.15 -0.04,0.2 -0.03,0.05 -0.07,0.1 -0.11,0.13 -0.04,0.03 -0.09,0.05 -0.14,0.06 -0.06,0.01 -0.15,0.02 -0.27,0.02l-0.17 0 0 0.49 -0.26 0zm0.26 -1.08l0 0.37 0.14 0c0.1,0 0.17,-0.01 0.21,-0.02 0.03,-0.01 0.06,-0.03 0.08,-0.06 0.02,-0.03 0.03,-0.06 0.03,-0.1 0,-0.05 -0.01,-0.09 -0.04,-0.12 -0.03,-0.03 -0.06,-0.05 -0.11,-0.06 -0.03,-0.01 -0.09,-0.01 -0.19,-0.01l-0.13 0z"/>
  <path class="fil4" d="M49.7 3.3c0,1.82 -1.48,3.3 -3.3,3.3 -1.82,0 -3.3,-1.48 -3.3,-3.3 0,-1.82 1.48,-3.3 3.3,-3.3 1.82,0 3.3,1.48 3.3,3.3z"/>
  <path class="fil3" d="M43.88 3.95l0 -1.31 0.26 0 0.54 0.87 0 -0.87 0.24 0 0 1.31 -0.26 0 -0.53 -0.86 0 0.86 -0.24 0zm1.26 -0.64c0,-0.13 0.02,-0.24 0.06,-0.34 0.03,-0.07 0.07,-0.13 0.12,-0.18 0.05,-0.05 0.11,-0.09 0.17,-0.12 0.08,-0.03 0.18,-0.05 0.28,-0.05 0.19,0 0.35,0.06 0.46,0.18 0.12,0.12 0.17,0.29 0.17,0.5 0,0.21 -0.06,0.38 -0.17,0.5 -0.11,0.12 -0.27,0.18 -0.46,0.18 -0.19,0 -0.35,-0.06 -0.46,-0.18 -0.11,-0.12 -0.17,-0.28 -0.17,-0.49zm0.27 -0.01c0,0.15 0.03,0.26 0.1,0.34 0.07,0.08 0.16,0.11 0.26,0.11 0.11,0 0.19,-0.04 0.26,-0.11 0.07,-0.08 0.1,-0.19 0.1,-0.34 0,-0.15 -0.03,-0.26 -0.1,-0.34 -0.07,-0.07 -0.15,-0.11 -0.26,-0.11 -0.11,0 -0.2,0.04 -0.26,0.11 -0.07,0.07 -0.1,0.19 -0.1,0.34zm1.2 -0.65l0.48 0c0.11,0 0.19,0.01 0.25,0.02 0.08,0.02 0.14,0.06 0.2,0.12 0.05,0.06 0.1,0.13 0.12,0.21 0.03,0.08 0.04,0.19 0.04,0.31 0,0.11 -0.01,0.2 -0.04,0.28 -0.03,0.1 -0.08,0.17 -0.14,0.23 -0.05,0.04 -0.11,0.08 -0.18,0.1 -0.06,0.02 -0.14,0.03 -0.23,0.03l-0.49 0 0 -1.31zm0.26 0.22l0 0.86 0.2 0c0.07,0 0.13,-0 0.16,-0.01 0.04,-0.01 0.08,-0.03 0.11,-0.05 0.03,-0.03 0.05,-0.07 0.07,-0.13 0.02,-0.06 0.03,-0.14 0.03,-0.24 0,-0.1 -0.01,-0.18 -0.03,-0.23 -0.02,-0.05 -0.04,-0.1 -0.07,-0.13 -0.03,-0.03 -0.07,-0.05 -0.12,-0.06 -0.04,-0.01 -0.11,-0.01 -0.22,-0.01l-0.12 0zm1.05 1.08l0 -1.31 0.97 0 0 0.22 -0.7 0 0 0.29 0.65 0 0 0.22 -0.65 0 0 0.35 0.73 0 0 0.22 -0.99 0z"/>
  <path class="fil4" d="M57.76 3.3c0,1.82 -1.48,3.3 -3.3,3.3 -1.82,0 -3.3,-1.48 -3.3,-3.3 0,-1.82 1.48,-3.3 3.3,-3.3 1.82,0 3.3,1.48 3.3,3.3z"/>
  <path class="fil3" d="M52 3.74l0 -0.88 0.28 0c0.11,0 0.18,0 0.21,0.01 0.05,0.01 0.09,0.04 0.13,0.09 0.03,0.04 0.05,0.1 0.05,0.17 0,0.05 -0.01,0.1 -0.03,0.14 -0.02,0.04 -0.04,0.07 -0.07,0.09 -0.03,0.02 -0.06,0.03 -0.09,0.04 -0.04,0.01 -0.1,0.01 -0.18,0.01l-0.12 0 0 0.33 -0.18 0zm0.18 -0.73l0 0.25 0.1 0c0.07,0 0.12,-0 0.14,-0.01 0.02,-0.01 0.04,-0.02 0.06,-0.04 0.01,-0.02 0.02,-0.04 0.02,-0.07 0,-0.03 -0.01,-0.06 -0.03,-0.08 -0.02,-0.02 -0.04,-0.03 -0.07,-0.04 -0.02,-0 -0.06,-0.01 -0.13,-0.01l-0.09 0zm0.87 0.73l0 -0.37 -0.32 -0.51 0.21 0 0.21 0.35 0.2 -0.35 0.2 0 -0.32 0.51 0 0.37 -0.18 0zm0.79 0l0 -0.73 -0.26 0 0 -0.15 0.7 0 0 0.15 -0.26 0 0 0.73 -0.18 0zm0.55 0l0 -0.88 0.18 0 0 0.35 0.35 0 0 -0.35 0.18 0 0 0.88 -0.18 0 0 -0.38 -0.35 0 0 0.38 -0.18 0zm0.85 -0.43c0,-0.09 0.01,-0.17 0.04,-0.23 0.02,-0.04 0.05,-0.09 0.08,-0.12 0.03,-0.04 0.07,-0.06 0.11,-0.08 0.05,-0.02 0.12,-0.03 0.19,-0.03 0.13,0 0.23,0.04 0.31,0.12 0.08,0.08 0.12,0.19 0.12,0.34 0,0.14 -0.04,0.25 -0.12,0.33 -0.08,0.08 -0.18,0.12 -0.31,0.12 -0.13,0 -0.24,-0.04 -0.31,-0.12 -0.08,-0.08 -0.12,-0.19 -0.12,-0.33zm0.18 -0.01c0,0.1 0.02,0.18 0.07,0.23 0.05,0.05 0.1,0.08 0.18,0.08 0.07,0 0.13,-0.03 0.17,-0.08 0.05,-0.05 0.07,-0.13 0.07,-0.23 0,-0.1 -0.02,-0.18 -0.07,-0.23 -0.04,-0.05 -0.1,-0.07 -0.18,-0.07 -0.07,0 -0.13,0.03 -0.18,0.08 -0.04,0.05 -0.07,0.13 -0.07,0.23zm0.81 0.44l0 -0.88 0.17 0 0.36 0.59 0 -0.59 0.16 0 0 0.88 -0.18 0 -0.36 -0.58 0 0.58 -0.16 0z"/>
  <path class="fil3" d="M36.62 28.37l1.16 0c0.23,0 0.4,0.01 0.51,0.03 0.11,0.02 0.21,0.06 0.3,0.12 0.09,0.06 0.16,0.14 0.22,0.24 0.06,0.1 0.09,0.21 0.09,0.34 0,0.14 -0.04,0.26 -0.11,0.37 -0.07,0.11 -0.17,0.2 -0.3,0.25 0.18,0.05 0.31,0.14 0.41,0.26 0.09,0.12 0.14,0.27 0.14,0.44 0,0.13 -0.03,0.26 -0.09,0.39 -0.06,0.12 -0.15,0.23 -0.25,0.3 -0.11,0.07 -0.24,0.12 -0.39,0.14 -0.1,0.01 -0.33,0.02 -0.71,0.02l-0.99 0 0 -2.9zm0.59 0.48l0 0.67 0.38 0c0.23,0 0.37,-0 0.43,-0.01 0.1,-0.01 0.18,-0.05 0.24,-0.1 0.06,-0.06 0.09,-0.13 0.09,-0.23 0,-0.09 -0.03,-0.16 -0.07,-0.22 -0.05,-0.06 -0.12,-0.09 -0.22,-0.1 -0.06,-0.01 -0.23,-0.01 -0.5,-0.01l-0.34 0zm0 1.15l0 0.78 0.54 0c0.21,0 0.35,-0.01 0.4,-0.02 0.09,-0.02 0.16,-0.05 0.21,-0.12 0.05,-0.06 0.08,-0.14 0.08,-0.25 0,-0.09 -0.02,-0.16 -0.06,-0.22 -0.04,-0.06 -0.1,-0.11 -0.18,-0.13 -0.08,-0.03 -0.25,-0.04 -0.52,-0.04l-0.47 0zm4.96 1.27l-0.63 0 -0.25 -0.66 -1.16 0 -0.24 0.66 -0.62 0 1.13 -2.9 0.62 0 1.16 2.9zm-1.07 -1.15l-0.4 -1.07 -0.39 1.07 0.8 0zm3.24 0.08l0.57 0.17c-0.09,0.32 -0.23,0.56 -0.44,0.71 -0.2,0.15 -0.46,0.23 -0.77,0.23 -0.39,0 -0.7,-0.13 -0.95,-0.4 -0.25,-0.26 -0.37,-0.62 -0.37,-1.08 0,-0.48 0.13,-0.86 0.37,-1.13 0.25,-0.27 0.58,-0.4 0.98,-0.4 0.36,0 0.64,0.11 0.87,0.32 0.13,0.12 0.23,0.3 0.3,0.54l-0.58 0.14c-0.03,-0.15 -0.11,-0.27 -0.21,-0.36 -0.11,-0.09 -0.24,-0.13 -0.4,-0.13 -0.22,0 -0.39,0.08 -0.52,0.23 -0.13,0.15 -0.2,0.4 -0.2,0.75 0,0.37 0.07,0.63 0.2,0.78 0.13,0.16 0.3,0.23 0.52,0.23 0.16,0 0.29,-0.05 0.4,-0.15 0.11,-0.1 0.19,-0.25 0.24,-0.47zm1.08 1.07l0 -2.9 0.59 0 0 1.29 1.18 -1.29 0.79 0 -1.1 1.13 1.15 1.77 -0.76 0 -0.8 -1.36 -0.47 0.49 0 0.88 -0.59 0zm4.05 0l0 -2.9 2.15 0 0 0.49 -1.56 0 0 0.64 1.45 0 0 0.49 -1.45 0 0 0.79 1.62 0 0 0.49 -2.21 0zm2.7 0l0 -2.9 0.57 0 1.19 1.95 0 -1.95 0.54 0 0 2.9 -0.59 0 -1.18 -1.91 0 1.91 -0.54 0zm2.93 -2.9l1.07 0c0.24,0 0.43,0.02 0.55,0.06 0.17,0.05 0.32,0.14 0.44,0.27 0.12,0.13 0.21,0.28 0.28,0.47 0.06,0.19 0.09,0.41 0.09,0.69 0,0.24 -0.03,0.44 -0.09,0.62 -0.07,0.21 -0.18,0.38 -0.31,0.51 -0.1,0.1 -0.24,0.18 -0.41,0.23 -0.13,0.04 -0.3,0.06 -0.52,0.06l-1.1 0 0 -2.9zm0.59 0.49l0 1.92 0.44 0c0.16,0 0.28,-0.01 0.35,-0.03 0.1,-0.02 0.17,-0.06 0.24,-0.12 0.06,-0.06 0.11,-0.15 0.15,-0.28 0.04,-0.13 0.06,-0.31 0.06,-0.53 0,-0.22 -0.02,-0.4 -0.06,-0.52 -0.04,-0.12 -0.09,-0.21 -0.17,-0.28 -0.07,-0.07 -0.16,-0.11 -0.27,-0.14 -0.08,-0.02 -0.24,-0.03 -0.48,-0.03l-0.26 0z"/>
  <path class="fil8" d="M24.12 22.59c0,0.61 -0.5,1.1 -1.1,1.1l-16.72 0c-0.61,0 -1.1,-0.49 -1.1,-1.1l0 -9.83c0,-0.61 0.49,-1.1 1.1,-1.1l16.72 0c0.61,0 1.1,0.49 1.1,1.1l0 9.83zm1.11 -10.7c0,-0.61 -0.5,-1.1 -1.1,-1.1l-18.92 0c-0.61,0 -1.1,0.5 -1.1,1.1l0 11.5c0,0.61 0.5,1.1 1.1,1.1l18.92 0c0.61,0 1.1,-0.49 1.1,-1.1l0 -11.5z"/>
  <polygon class="fil9" points="5.95,12.2 23.3,12.2 23.3,23.06 5.95,23.06 "/>
  <polygon class="fil0" points="18.96,17.63 23.3,17.63 23.3,23.06 18.96,23.06 "/>
  <polygon class="fil1" points="5.95,17.63 16.79,17.63 16.79,23.06 5.95,23.06 "/>
  <polygon class="fil2" points="5.95,12.2 23.3,12.2 23.3,13.41 5.95,13.41 "/>
  <path class="fil4" d="M8.92 17.03l-2.77 0 0.12 -0.75c0.02,-0.16 0.07,-0.31 0.13,-0.43l0 -0c0.11,-0.22 0.29,-0.38 0.51,-0.46l0 -0c0.02,0.01 0.03,0.03 0.05,0.04 0,0 0,0 0.01,0 0,0 0,0 0.01,0.01 0,0 0,0 0.01,0.01 0,0 0.01,0 0.01,0.01 0,0 0.01,0 0.01,0.01 0.06,0.04 0.12,0.08 0.19,0.1l0 0c0.03,0.01 0.06,0.02 0.1,0.03 0,0 0.01,0 0.01,0 0,0 0.01,0 0.01,0l0 0 0 0c0,0 0.01,0 0.01,0l0 0c0.04,0.01 0.09,0.02 0.13,0.02l0 0c0.03,0 0.05,0 0.08,0 0.03,0 0.05,-0 0.08,-0l0 -0c0.04,-0 0.07,-0.01 0.11,-0.02l0 -0c0.01,-0 0.02,-0 0.02,-0.01 0.01,-0 0.02,-0 0.02,-0.01 0,-0 0.01,-0 0.01,-0l0 -0c0.01,-0 0.03,-0.01 0.04,-0.01 0.01,-0 0.02,-0.01 0.02,-0.01 0.01,-0 0.02,-0.01 0.02,-0.01 0.1,-0.04 0.19,-0.1 0.27,-0.18l0 0 0 0c0.23,0.08 0.4,0.24 0.52,0.46 0.07,0.12 0.11,0.28 0.13,0.44l0.12 0.75z"/>
  <path class="fil4" d="M8.24 14.78c0,0.21 -0.1,0.41 -0.27,0.53 -0.1,0.07 -0.22,0.13 -0.35,0.14 -0.03,0 -0.07,0.01 -0.1,0.01 -0.03,0 -0.07,-0 -0.1,-0.01 -0.13,-0.02 -0.25,-0.07 -0.35,-0.14 -0.16,-0.12 -0.27,-0.32 -0.27,-0.53 0,-0.06 0.01,-0.13 0.03,-0.19 0.09,-0.28 0.36,-0.49 0.69,-0.49 0.33,0 0.6,0.21 0.69,0.49 0.02,0.06 0.03,0.12 0.03,0.19z"/>
  <polygon class="fil4" points="12.54,14.04 23.34,14.04 23.34,13.62 12.54,13.62 "/>
  <polygon class="fil4" points="12.54,17.02 23.34,17.02 23.34,17.44 12.54,17.44 "/>
  <polygon class="fil4" points="12.54,14.72 23.34,14.72 23.34,14.3 12.54,14.3 "/>
  <polygon class="fil4" points="12.54,16.33 23.34,16.33 23.34,16.75 12.54,16.75 "/>
  <polygon class="fil4" points="12.54,15.4 23.34,15.4 23.34,14.99 12.54,14.99 "/>
  <polygon class="fil4" points="12.54,15.64 23.34,15.64 23.34,16.07 12.54,16.07 "/>
  <path class="fil8" d="M13.82 9l0.69 1.19c0.09,0.16 0.24,0.16 0.33,0l0.69 -1.19c0.09,-0.16 0.02,-0.28 -0.16,-0.28l-0.21 0 0 -1.25c0,-0.26 -0.21,-0.48 -0.48,-0.48 -0.26,0 -0.48,0.21 -0.48,0.48l0 1.25 -0.21 0c-0.18,0 -0.25,0.13 -0.16,0.28z"/>
  <path class="fil8" d="M9.93 3.3c0,1.82 -1.48,3.3 -3.3,3.3 -1.82,0 -3.3,-1.48 -3.3,-3.3 0,-1.82 1.48,-3.3 3.3,-3.3 1.82,0 3.3,1.48 3.3,3.3z"/>
  <path class="fil3" d="M4.19 3.95l0 -1.31 0.26 0 0 0.51 0.51 0 0 -0.51 0.26 0 0 1.31 -0.26 0 0 -0.57 -0.51 0 0 0.57 -0.26 0zm1.61 0l0 -1.08 -0.39 0 0 -0.22 1.04 0 0 0.22 -0.38 0 0 1.08 -0.26 0zm0.82 0l0 -1.31 0.4 0 0.23 0.89 0.23 -0.89 0.4 0 0 1.31 -0.24 0 -0 -1.03 -0.26 1.03 -0.25 0 -0.26 -1.03 -0 1.03 -0.24 0zm1.53 0l0 -1.29 0.26 0 0 1.07 0.65 0 0 0.22 -0.92 0z"/>
  <path class="fil8" d="M17.95 3.3c0,1.82 -1.48,3.3 -3.3,3.3 -1.82,0 -3.3,-1.48 -3.3,-3.3 0,-1.82 1.48,-3.3 3.3,-3.3 1.82,0 3.3,1.48 3.3,3.3z"/>
  <path class="fil3" d="M13.75 3.47l0.26 0.08c-0.04,0.14 -0.1,0.25 -0.2,0.32 -0.09,0.07 -0.21,0.1 -0.35,0.1 -0.17,0 -0.32,-0.06 -0.43,-0.18 -0.11,-0.12 -0.17,-0.28 -0.17,-0.49 0,-0.22 0.06,-0.39 0.17,-0.51 0.11,-0.12 0.26,-0.18 0.44,-0.18 0.16,0 0.29,0.05 0.39,0.14 0.06,0.06 0.1,0.14 0.13,0.24l-0.26 0.06c-0.02,-0.07 -0.05,-0.12 -0.1,-0.16 -0.05,-0.04 -0.11,-0.06 -0.18,-0.06 -0.1,0 -0.18,0.03 -0.24,0.1 -0.06,0.07 -0.09,0.18 -0.09,0.34 0,0.16 0.03,0.28 0.09,0.35 0.06,0.07 0.14,0.11 0.23,0.11 0.07,0 0.13,-0.02 0.18,-0.07 0.05,-0.04 0.09,-0.11 0.11,-0.21zm0.41 0.06l0.26 -0.03c0.02,0.09 0.05,0.15 0.09,0.19 0.05,0.04 0.11,0.06 0.19,0.06 0.08,0 0.15,-0.02 0.19,-0.05 0.04,-0.04 0.06,-0.08 0.06,-0.13 0,-0.03 -0.01,-0.06 -0.03,-0.08 -0.02,-0.02 -0.05,-0.04 -0.09,-0.06 -0.03,-0.01 -0.1,-0.03 -0.21,-0.06 -0.14,-0.04 -0.24,-0.08 -0.3,-0.13 -0.08,-0.07 -0.12,-0.16 -0.12,-0.26 0,-0.07 0.02,-0.13 0.06,-0.19 0.04,-0.06 0.09,-0.1 0.16,-0.13 0.07,-0.03 0.16,-0.05 0.26,-0.05 0.16,0 0.29,0.04 0.37,0.11 0.08,0.07 0.13,0.17 0.13,0.29l-0.26 0.01c-0.01,-0.07 -0.04,-0.12 -0.07,-0.15 -0.04,-0.03 -0.09,-0.04 -0.17,-0.04 -0.08,0 -0.14,0.02 -0.18,0.05 -0.03,0.02 -0.04,0.05 -0.04,0.08 0,0.03 0.01,0.06 0.04,0.08 0.03,0.03 0.11,0.06 0.24,0.09 0.13,0.03 0.22,0.06 0.28,0.09 0.06,0.03 0.11,0.08 0.14,0.13 0.03,0.06 0.05,0.13 0.05,0.21 0,0.07 -0.02,0.14 -0.06,0.21 -0.04,0.07 -0.1,0.11 -0.18,0.15 -0.08,0.03 -0.17,0.05 -0.28,0.05 -0.17,0 -0.29,-0.04 -0.38,-0.11 -0.09,-0.08 -0.14,-0.19 -0.16,-0.33zm1.22 0l0.26 -0.03c0.02,0.09 0.05,0.15 0.09,0.19 0.05,0.04 0.11,0.06 0.19,0.06 0.08,0 0.15,-0.02 0.19,-0.05 0.04,-0.04 0.06,-0.08 0.06,-0.13 0,-0.03 -0.01,-0.06 -0.03,-0.08 -0.02,-0.02 -0.05,-0.04 -0.09,-0.06 -0.03,-0.01 -0.1,-0.03 -0.21,-0.06 -0.14,-0.04 -0.24,-0.08 -0.3,-0.13 -0.08,-0.07 -0.12,-0.16 -0.12,-0.26 0,-0.07 0.02,-0.13 0.06,-0.19 0.04,-0.06 0.09,-0.1 0.16,-0.13 0.07,-0.03 0.16,-0.05 0.26,-0.05 0.16,0 0.29,0.04 0.37,0.11 0.08,0.07 0.13,0.17 0.13,0.29l-0.26 0.01c-0.01,-0.07 -0.04,-0.12 -0.07,-0.15 -0.04,-0.03 -0.09,-0.04 -0.17,-0.04 -0.08,0 -0.14,0.02 -0.18,0.05 -0.03,0.02 -0.04,0.05 -0.04,0.08 0,0.03 0.01,0.06 0.04,0.08 0.03,0.03 0.11,0.06 0.24,0.09 0.13,0.03 0.22,0.06 0.28,0.09 0.06,0.03 0.11,0.08 0.14,0.13 0.03,0.06 0.05,0.13 0.05,0.21 0,0.07 -0.02,0.14 -0.06,0.21 -0.04,0.07 -0.1,0.11 -0.18,0.15 -0.08,0.03 -0.17,0.05 -0.28,0.05 -0.17,0 -0.29,-0.04 -0.38,-0.11 -0.09,-0.08 -0.14,-0.19 -0.16,-0.33z"/>
  <path class="fil8" d="M26.01 3.3c0,1.82 -1.48,3.3 -3.3,3.3 -1.82,0 -3.3,-1.48 -3.3,-3.3 0,-1.82 1.48,-3.3 3.3,-3.3 1.82,0 3.3,1.48 3.3,3.3z"/>
  <path class="fil3" d="M22.23 2.65l0.26 0 0 0.83c0,0.11 -0.01,0.19 -0.03,0.25 -0.03,0.08 -0.07,0.14 -0.14,0.18 -0.07,0.05 -0.16,0.07 -0.27,0.07 -0.13,0 -0.23,-0.04 -0.3,-0.11 -0.07,-0.07 -0.1,-0.18 -0.11,-0.32l0.25 -0.03c0,0.07 0.01,0.13 0.03,0.16 0.03,0.05 0.07,0.07 0.13,0.07 0.06,0 0.1,-0.02 0.12,-0.05 0.02,-0.03 0.04,-0.1 0.04,-0.21l0 -0.84zm0.48 0.88l0.26 -0.03c0.02,0.09 0.05,0.15 0.09,0.19 0.05,0.04 0.11,0.06 0.19,0.06 0.08,0 0.15,-0.02 0.19,-0.05 0.04,-0.04 0.06,-0.08 0.06,-0.13 0,-0.03 -0.01,-0.06 -0.03,-0.08 -0.02,-0.02 -0.05,-0.04 -0.09,-0.06 -0.03,-0.01 -0.1,-0.03 -0.21,-0.06 -0.14,-0.04 -0.24,-0.08 -0.3,-0.13 -0.08,-0.07 -0.12,-0.16 -0.12,-0.26 0,-0.07 0.02,-0.13 0.06,-0.19 0.04,-0.06 0.09,-0.1 0.16,-0.13 0.07,-0.03 0.16,-0.05 0.26,-0.05 0.16,0 0.29,0.04 0.37,0.11 0.08,0.07 0.13,0.17 0.13,0.29l-0.26 0.01c-0.01,-0.07 -0.04,-0.12 -0.07,-0.15 -0.04,-0.03 -0.09,-0.04 -0.17,-0.04 -0.08,0 -0.14,0.02 -0.18,0.05 -0.03,0.02 -0.04,0.05 -0.04,0.08 0,0.03 0.01,0.06 0.04,0.08 0.03,0.03 0.11,0.06 0.24,0.09 0.13,0.03 0.22,0.06 0.28,0.09 0.06,0.03 0.11,0.08 0.14,0.13 0.03,0.06 0.05,0.13 0.05,0.21 0,0.07 -0.02,0.14 -0.06,0.21 -0.04,0.07 -0.1,0.11 -0.18,0.15 -0.08,0.03 -0.17,0.05 -0.28,0.05 -0.17,0 -0.29,-0.04 -0.38,-0.11 -0.09,-0.08 -0.14,-0.19 -0.16,-0.33z"/>
  <polygon class="fil2" points="11.02,20.25 12.74,22.41 14.57,21.91 16.79,22.99 5.93,22.99 7.42,22.04 9.17,22.05 "/>
  <path class="fil2" d="M15.2 18.05c0.46,0 0.83,0.37 0.83,0.83 0,0.46 -0.37,0.83 -0.83,0.83 -0.46,0 -0.83,-0.37 -0.83,-0.83 0,-0.46 0.37,-0.83 0.83,-0.83z"/>
  <path class="fil3" d="M1.91 37.48l-0.68 -2.9 0.6 0 0.43 1.99 0.53 -1.99 0.7 0 0.51 2.03 0.44 -2.03 0.59 0 -0.7 2.9 -0.63 0 -0.57 -2.17 -0.58 2.17 -0.64 0zm3.43 0l0 -2.9 2.15 0 0 0.49 -1.56 0 0 0.64 1.45 0 0 0.49 -1.45 0 0 0.79 1.62 0 0 0.49 -2.21 0zm2.7 -2.9l1.16 0c0.23,0 0.4,0.01 0.51,0.03 0.11,0.02 0.21,0.06 0.3,0.12 0.09,0.06 0.16,0.14 0.22,0.24 0.06,0.1 0.09,0.21 0.09,0.34 0,0.14 -0.04,0.26 -0.11,0.37 -0.07,0.11 -0.17,0.2 -0.3,0.25 0.18,0.05 0.31,0.14 0.41,0.26 0.09,0.12 0.14,0.27 0.14,0.44 0,0.13 -0.03,0.26 -0.09,0.39 -0.06,0.12 -0.15,0.23 -0.25,0.3 -0.11,0.07 -0.24,0.12 -0.39,0.14 -0.1,0.01 -0.33,0.02 -0.71,0.02l-0.99 0 0 -2.9zm0.59 0.48l0 0.67 0.38 0c0.23,0 0.37,-0 0.43,-0.01 0.1,-0.01 0.18,-0.05 0.24,-0.1 0.06,-0.06 0.09,-0.13 0.09,-0.23 0,-0.09 -0.03,-0.16 -0.07,-0.22 -0.05,-0.06 -0.12,-0.09 -0.22,-0.1 -0.06,-0.01 -0.23,-0.01 -0.5,-0.01l-0.34 0zm0 1.15l0 0.78 0.54 0c0.21,0 0.35,-0.01 0.4,-0.02 0.09,-0.02 0.16,-0.05 0.21,-0.12 0.05,-0.06 0.08,-0.14 0.08,-0.25 0,-0.09 -0.02,-0.16 -0.06,-0.22 -0.04,-0.06 -0.1,-0.11 -0.18,-0.13 -0.08,-0.03 -0.25,-0.04 -0.52,-0.04l-0.47 0zm3.47 -1.63l1.07 0c0.24,0 0.43,0.02 0.55,0.06 0.17,0.05 0.32,0.14 0.44,0.27 0.12,0.13 0.21,0.28 0.28,0.47 0.06,0.19 0.09,0.41 0.09,0.69 0,0.24 -0.03,0.44 -0.09,0.62 -0.07,0.21 -0.18,0.38 -0.31,0.51 -0.1,0.1 -0.24,0.18 -0.41,0.23 -0.13,0.04 -0.3,0.06 -0.52,0.06l-1.1 0 0 -2.9zm0.59 0.49l0 1.92 0.44 0c0.16,0 0.28,-0.01 0.35,-0.03 0.1,-0.02 0.17,-0.06 0.24,-0.12 0.06,-0.06 0.11,-0.15 0.15,-0.28 0.04,-0.13 0.06,-0.31 0.06,-0.53 0,-0.22 -0.02,-0.4 -0.06,-0.52 -0.04,-0.12 -0.09,-0.21 -0.17,-0.28 -0.07,-0.07 -0.16,-0.11 -0.27,-0.14 -0.08,-0.02 -0.24,-0.03 -0.48,-0.03l-0.26 0zm2.34 2.41l0 -2.9 2.15 0 0 0.49 -1.56 0 0 0.64 1.45 0 0 0.49 -1.45 0 0 0.79 1.62 0 0 0.49 -2.21 0zm2.55 -0.94l0.57 -0.06c0.03,0.19 0.1,0.33 0.21,0.42 0.1,0.09 0.25,0.13 0.42,0.13 0.19,0 0.33,-0.04 0.43,-0.12 0.1,-0.08 0.14,-0.17 0.14,-0.28 0,-0.07 -0.02,-0.13 -0.06,-0.18 -0.04,-0.05 -0.11,-0.09 -0.21,-0.13 -0.07,-0.02 -0.22,-0.07 -0.47,-0.13 -0.31,-0.08 -0.53,-0.17 -0.66,-0.29 -0.18,-0.16 -0.27,-0.36 -0.27,-0.59 0,-0.15 0.04,-0.29 0.12,-0.42 0.08,-0.13 0.2,-0.23 0.36,-0.29 0.16,-0.07 0.35,-0.1 0.57,-0.1 0.36,0 0.64,0.08 0.82,0.24 0.18,0.16 0.28,0.38 0.29,0.65l-0.59 0.02c-0.03,-0.15 -0.08,-0.26 -0.16,-0.32 -0.08,-0.07 -0.2,-0.1 -0.37,-0.1 -0.17,0 -0.3,0.04 -0.4,0.11 -0.06,0.05 -0.09,0.11 -0.09,0.18 0,0.07 0.03,0.13 0.09,0.18 0.07,0.06 0.25,0.13 0.54,0.2 0.28,0.07 0.49,0.14 0.63,0.21 0.14,0.07 0.24,0.17 0.32,0.3 0.08,0.13 0.12,0.28 0.12,0.46 0,0.17 -0.05,0.32 -0.14,0.47 -0.09,0.15 -0.22,0.25 -0.39,0.32 -0.17,0.07 -0.38,0.11 -0.63,0.11 -0.37,0 -0.65,-0.08 -0.85,-0.25 -0.2,-0.17 -0.31,-0.42 -0.35,-0.74zm2.84 0.94l0 -2.9 0.59 0 0 2.9 -0.59 0zm2.5 -1.07l0 -0.49 1.26 0 0 1.16c-0.12,0.12 -0.3,0.22 -0.53,0.32 -0.23,0.09 -0.47,0.14 -0.71,0.14 -0.3,0 -0.57,-0.06 -0.79,-0.19 -0.23,-0.13 -0.39,-0.31 -0.51,-0.55 -0.11,-0.24 -0.17,-0.5 -0.17,-0.78 0,-0.3 0.06,-0.57 0.19,-0.81 0.13,-0.24 0.31,-0.42 0.56,-0.54 0.19,-0.1 0.42,-0.14 0.69,-0.14 0.36,0 0.64,0.08 0.84,0.23 0.2,0.15 0.33,0.36 0.39,0.63l-0.58 0.11c-0.04,-0.14 -0.12,-0.26 -0.23,-0.34 -0.11,-0.08 -0.25,-0.12 -0.42,-0.12 -0.26,0 -0.46,0.08 -0.61,0.24 -0.15,0.16 -0.23,0.4 -0.23,0.72 0,0.35 0.08,0.6 0.23,0.78 0.15,0.17 0.35,0.26 0.6,0.26 0.12,0 0.25,-0.02 0.37,-0.07 0.12,-0.05 0.23,-0.11 0.32,-0.18l0 -0.37 -0.67 0zm1.8 1.07l0 -2.9 0.57 0 1.19 1.95 0 -1.95 0.54 0 0 2.9 -0.59 0 -1.18 -1.91 0 1.91 -0.54 0z"/>
  <path class="fil3" d="M27.79 43.58l-0.68 -2.9 0.6 0 0.43 1.99 0.53 -1.99 0.7 0 0.51 2.03 0.44 -2.03 0.59 0 -0.7 2.9 -0.63 0 -0.57 -2.17 -0.58 2.17 -0.64 0zm3.43 0l0 -2.9 2.15 0 0 0.49 -1.56 0 0 0.64 1.45 0 0 0.49 -1.45 0 0 0.79 1.62 0 0 0.49 -2.21 0zm2.7 -2.9l1.16 0c0.23,0 0.4,0.01 0.51,0.03 0.11,0.02 0.21,0.06 0.3,0.12 0.09,0.06 0.16,0.14 0.22,0.24 0.06,0.1 0.09,0.21 0.09,0.34 0,0.14 -0.04,0.26 -0.11,0.37 -0.07,0.11 -0.17,0.2 -0.3,0.25 0.18,0.05 0.31,0.14 0.41,0.26 0.09,0.12 0.14,0.27 0.14,0.44 0,0.13 -0.03,0.26 -0.09,0.39 -0.06,0.12 -0.15,0.23 -0.25,0.3 -0.11,0.07 -0.24,0.12 -0.39,0.14 -0.1,0.01 -0.33,0.02 -0.71,0.02l-0.99 0 0 -2.9zm0.59 0.48l0 0.67 0.38 0c0.23,0 0.37,-0 0.43,-0.01 0.1,-0.01 0.18,-0.05 0.24,-0.1 0.06,-0.06 0.09,-0.13 0.09,-0.23 0,-0.09 -0.03,-0.16 -0.07,-0.22 -0.05,-0.06 -0.12,-0.09 -0.22,-0.1 -0.06,-0.01 -0.23,-0.01 -0.5,-0.01l-0.34 0zm0 1.15l0 0.78 0.54 0c0.21,0 0.35,-0.01 0.4,-0.02 0.09,-0.02 0.16,-0.05 0.21,-0.12 0.05,-0.06 0.08,-0.14 0.08,-0.25 0,-0.09 -0.02,-0.16 -0.06,-0.22 -0.04,-0.06 -0.1,-0.11 -0.18,-0.13 -0.08,-0.03 -0.25,-0.04 -0.52,-0.04l-0.47 0zm-17.82 2.9l1.07 0c0.24,0 0.43,0.02 0.55,0.06 0.17,0.05 0.32,0.14 0.44,0.27 0.12,0.13 0.21,0.28 0.28,0.47 0.06,0.19 0.09,0.41 0.09,0.69 0,0.24 -0.03,0.44 -0.09,0.62 -0.07,0.21 -0.18,0.38 -0.31,0.51 -0.1,0.1 -0.24,0.18 -0.41,0.23 -0.13,0.04 -0.3,0.06 -0.52,0.06l-1.1 0 0 -2.9zm0.59 0.49l0 1.92 0.44 0c0.16,0 0.28,-0.01 0.35,-0.03 0.1,-0.02 0.17,-0.06 0.24,-0.12 0.06,-0.06 0.11,-0.15 0.15,-0.28 0.04,-0.13 0.06,-0.31 0.06,-0.53 0,-0.22 -0.02,-0.4 -0.06,-0.52 -0.04,-0.12 -0.09,-0.21 -0.17,-0.28 -0.07,-0.07 -0.16,-0.11 -0.27,-0.14 -0.08,-0.02 -0.24,-0.03 -0.48,-0.03l-0.26 0zm2.34 2.41l0 -2.9 2.15 0 0 0.49 -1.56 0 0 0.64 1.45 0 0 0.49 -1.45 0 0 0.79 1.62 0 0 0.49 -2.21 0zm3.45 0l-1.04 -2.9 0.64 0 0.74 2.15 0.71 -2.15 0.62 0 -1.03 2.9 -0.63 0zm1.96 0l0 -2.9 2.15 0 0 0.49 -1.56 0 0 0.64 1.45 0 0 0.49 -1.45 0 0 0.79 1.62 0 0 0.49 -2.21 0zm2.72 0l0 -2.88 0.59 0 0 2.39 1.46 0 0 0.49 -2.04 0zm2.34 -1.43c0,-0.3 0.04,-0.54 0.13,-0.75 0.07,-0.15 0.16,-0.28 0.27,-0.4 0.11,-0.12 0.24,-0.2 0.38,-0.26 0.18,-0.08 0.39,-0.11 0.63,-0.11 0.43,0 0.77,0.13 1.03,0.4 0.26,0.27 0.39,0.64 0.39,1.11 0,0.47 -0.13,0.84 -0.38,1.1 -0.25,0.27 -0.6,0.4 -1.02,0.4 -0.43,0 -0.78,-0.13 -1.03,-0.4 -0.25,-0.26 -0.38,-0.63 -0.38,-1.09zm0.6 -0.02c0,0.33 0.08,0.58 0.23,0.75 0.15,0.17 0.35,0.25 0.58,0.25 0.23,0 0.43,-0.08 0.58,-0.25 0.15,-0.17 0.23,-0.42 0.23,-0.76 0,-0.33 -0.07,-0.58 -0.22,-0.75 -0.15,-0.16 -0.34,-0.25 -0.58,-0.25 -0.24,0 -0.44,0.08 -0.59,0.25 -0.15,0.17 -0.22,0.42 -0.22,0.75zm2.67 1.45l0 -2.9 0.94 0c0.36,0 0.59,0.01 0.7,0.04 0.17,0.04 0.31,0.14 0.42,0.28 0.11,0.15 0.17,0.33 0.17,0.57 0,0.18 -0.03,0.33 -0.1,0.45 -0.06,0.12 -0.15,0.22 -0.25,0.29 -0.1,0.07 -0.2,0.11 -0.3,0.14 -0.14,0.03 -0.34,0.04 -0.61,0.04l-0.38 0 0 1.09 -0.59 0zm0.59 -2.41l0 0.83 0.32 0c0.23,0 0.38,-0.02 0.46,-0.05 0.08,-0.03 0.14,-0.08 0.18,-0.14 0.04,-0.06 0.07,-0.14 0.07,-0.23 0,-0.11 -0.03,-0.19 -0.09,-0.26 -0.06,-0.07 -0.14,-0.11 -0.24,-0.13 -0.07,-0.01 -0.21,-0.02 -0.42,-0.02l-0.28 0zm2.11 2.41l0 -2.9 0.88 0 0.52 1.98 0.51 -1.98 0.88 0 0 2.9 -0.54 0 -0 -2.29 -0.57 2.29 -0.56 0 -0.57 -2.29 -0 2.29 -0.54 0zm3.39 0l0 -2.9 2.15 0 0 0.49 -1.56 0 0 0.64 1.45 0 0 0.49 -1.45 0 0 0.79 1.62 0 0 0.49 -2.21 0zm2.7 0l0 -2.9 0.57 0 1.19 1.95 0 -1.95 0.54 0 0 2.9 -0.59 0 -1.18 -1.91 0 1.91 -0.54 0zm3.58 0l0 -2.41 -0.86 0 0 -0.49 2.3 0 0 0.49 -0.86 0 0 2.41 -0.59 0z"/>
  <path class="fil4" d="M18.51 52.59l0 -2.9 1.99 0 0 0.49 -1.41 0 0 0.69 1.22 0 0 0.49 -1.22 0 0 1.23 -0.59 0zm2.48 -2.9l0.59 0 0 1.57c0,0.25 0.01,0.41 0.02,0.49 0.03,0.12 0.08,0.21 0.18,0.29 0.09,0.07 0.22,0.11 0.38,0.11 0.16,0 0.29,-0.03 0.37,-0.1 0.08,-0.07 0.13,-0.15 0.15,-0.25 0.02,-0.1 0.03,-0.26 0.03,-0.49l0 -1.61 0.59 0 0 1.53c0,0.35 -0.02,0.6 -0.05,0.74 -0.03,0.14 -0.09,0.27 -0.18,0.36 -0.08,0.1 -0.2,0.18 -0.34,0.24 -0.14,0.06 -0.33,0.09 -0.56,0.09 -0.28,0 -0.49,-0.03 -0.63,-0.1 -0.14,-0.06 -0.26,-0.15 -0.34,-0.25 -0.08,-0.1 -0.14,-0.21 -0.16,-0.32 -0.04,-0.17 -0.06,-0.41 -0.06,-0.74l0 -1.55zm2.94 2.9l0 -2.88 0.59 0 0 2.39 1.46 0 0 0.49 -2.04 0zm2.48 0l0 -2.88 0.59 0 0 2.39 1.46 0 0 0.49 -2.04 0zm3.36 -0.94l0.57 -0.06c0.03,0.19 0.1,0.33 0.21,0.42 0.1,0.09 0.25,0.13 0.42,0.13 0.19,0 0.33,-0.04 0.43,-0.12 0.1,-0.08 0.14,-0.17 0.14,-0.28 0,-0.07 -0.02,-0.13 -0.06,-0.18 -0.04,-0.05 -0.11,-0.09 -0.21,-0.13 -0.07,-0.02 -0.22,-0.07 -0.47,-0.13 -0.31,-0.08 -0.53,-0.17 -0.66,-0.29 -0.18,-0.16 -0.27,-0.36 -0.27,-0.59 0,-0.15 0.04,-0.29 0.12,-0.42 0.08,-0.13 0.2,-0.23 0.36,-0.29 0.16,-0.07 0.35,-0.1 0.57,-0.1 0.36,0 0.64,0.08 0.82,0.24 0.18,0.16 0.28,0.38 0.29,0.65l-0.59 0.02c-0.03,-0.15 -0.08,-0.26 -0.16,-0.32 -0.08,-0.07 -0.2,-0.1 -0.37,-0.1 -0.17,0 -0.3,0.04 -0.4,0.11 -0.06,0.05 -0.09,0.11 -0.09,0.18 0,0.07 0.03,0.13 0.09,0.18 0.07,0.06 0.25,0.13 0.54,0.2 0.28,0.07 0.49,0.14 0.63,0.21 0.14,0.07 0.24,0.17 0.32,0.3 0.08,0.13 0.12,0.28 0.12,0.46 0,0.17 -0.05,0.32 -0.14,0.47 -0.09,0.15 -0.22,0.25 -0.39,0.32 -0.17,0.07 -0.38,0.11 -0.63,0.11 -0.37,0 -0.65,-0.08 -0.85,-0.25 -0.2,-0.17 -0.31,-0.42 -0.35,-0.74zm3.51 0.94l0 -2.41 -0.86 0 0 -0.49 2.3 0 0 0.49 -0.86 0 0 2.41 -0.59 0zm4.14 0l-0.63 0 -0.25 -0.66 -1.16 0 -0.24 0.66 -0.62 0 1.13 -2.9 0.62 0 1.16 2.9zm-1.07 -1.15l-0.4 -1.07 -0.39 1.07 0.8 0zm3.24 0.08l0.57 0.17c-0.09,0.32 -0.23,0.56 -0.44,0.71 -0.2,0.15 -0.46,0.23 -0.77,0.23 -0.39,0 -0.7,-0.13 -0.95,-0.4 -0.25,-0.26 -0.37,-0.62 -0.37,-1.08 0,-0.48 0.13,-0.86 0.37,-1.13 0.25,-0.27 0.58,-0.4 0.98,-0.4 0.36,0 0.64,0.11 0.87,0.32 0.13,0.12 0.23,0.3 0.3,0.54l-0.58 0.14c-0.03,-0.15 -0.11,-0.27 -0.21,-0.36 -0.11,-0.09 -0.24,-0.13 -0.4,-0.13 -0.22,0 -0.39,0.08 -0.52,0.23 -0.13,0.15 -0.2,0.4 -0.2,0.75 0,0.37 0.07,0.63 0.2,0.78 0.13,0.16 0.3,0.23 0.52,0.23 0.16,0 0.29,-0.05 0.4,-0.15 0.11,-0.1 0.19,-0.25 0.24,-0.47zm1.08 1.07l0 -2.9 0.59 0 0 1.29 1.18 -1.29 0.79 0 -1.1 1.13 1.15 1.77 -0.76 0 -0.8 -1.36 -0.47 0.49 0 0.88 -0.59 0z"/>
 </g>
</svg>
