<?xml version="1.0" encoding="UTF-8"?>
<!DOCTYPE svg PUBLIC "-//W3C//DTD SVG 1.1//EN" "http://www.w3.org/Graphics/SVG/1.1/DTD/svg11.dtd">
<!-- Creator: CorelDRAW 2018 (64-Bit) -->
<svg xmlns="http://www.w3.org/2000/svg" xml:space="preserve" width="10.4234in" height="0.889685in" version="1.1" style="shape-rendering:geometricPrecision; text-rendering:geometricPrecision; image-rendering:optimizeQuality; fill-rule:evenodd; clip-rule:evenodd"
viewBox="0 0 7669.66 654.64"
 xmlns:xlink="http://www.w3.org/1999/xlink">
 <defs>
  <style type="text/css">
   <![CDATA[
    .fil4 {fill:#9933FF}
    .fil3 {fill:#99CC00}
    .fil1 {fill:#FF6600}
    .fil5 {fill:#9933FF;fill-opacity:0.501961}
    .fil2 {fill:#99CC00;fill-opacity:0.501961}
    .fil0 {fill:#FF6600;fill-opacity:0.501961}
   ]]>
  </style>
 </defs>
 <g id="Layer_x0020_1">
  <metadata id="CorelCorpID_0Corel-Layer"/>
  <path class="fil0" d="M816.91 73.04c1261.44,48.65 2981.01,797.15 3559.96,394.84 568.21,-394.84 1055.5,-394.84 2783.83,-394.84l-6343.79 0z"/>
  <path class="fil1" d="M448.99 73.04c1261.44,48.65 2981.01,797.15 3559.96,394.84 568.21,-394.84 1055.5,-394.84 2783.83,-394.84l-6343.79 0z"/>
  <path class="fil2" d="M6774.37 73.04c-1386.27,346.97 -2295.99,-312.71 -3784.42,398.75 -1209.07,577.92 -1011.64,-398.75 -2559.37,-398.75l6343.79 0z"/>
  <path class="fil3" d="M7191.35 73.04c-1386.27,346.97 -2295.99,-312.71 -3784.42,398.75 -1209.07,577.92 -1011.64,-398.75 -2559.37,-398.75l6343.79 0z"/>
  <path class="fil4" d="M7669.66 97.56c-1502.67,72.61 -2116.7,752.41 -2775.26,358.47 -719.2,-430.21 -2062.44,-261.77 -4343.42,-402.17l7118.68 43.7z"/>
  <path class="fil5" d="M7597.15 62.78c-1483.77,287.11 -2665.39,740.32 -3242.36,417.79 -731.51,-408.93 -2062.44,-261.77 -4343.42,-402.17l7585.78 -15.61z"/>
  <rect class="fil4" x="-0" width="7669.66" height="97.56"/>
 </g>
</svg>
