<?xml version="1.0" encoding="UTF-8"?>
<!DOCTYPE svg PUBLIC "-//W3C//DTD SVG 1.1//EN" "http://www.w3.org/Graphics/SVG/1.1/DTD/svg11.dtd">
<!-- Creator: CorelDRAW 2018 (64-Bit) -->
<svg xmlns="http://www.w3.org/2000/svg" xml:space="preserve" width="16.5301in" height="2.51976in" version="1.1" style="shape-rendering:geometricPrecision; text-rendering:geometricPrecision; image-rendering:optimizeQuality; fill-rule:evenodd; clip-rule:evenodd"
viewBox="0 0 590.54 90.02"
 xmlns:xlink="http://www.w3.org/1999/xlink">
 <defs>
  <style type="text/css">
   <![CDATA[
    .fil0 {fill:#9933FF}
    .fil1 {fill:#9933FF;fill-rule:nonzero}
   ]]>
  </style>
 </defs>
 <g id="Layer_x0020_1">
  <metadata id="CorelCorpID_0Corel-Layer"/>
  <g id="_1827066871376">
   <polygon class="fil0" points="90.41,46.69 90.36,90.02 41.59,83.33 41.57,83.33 41.57,46.69 "/>
   <polygon class="fil0" points="41.57,6.56 41.75,6.53 90.46,0 90.41,42.56 90.41,42.59 41.57,42.59 41.57,42.47 "/>
   <polygon class="fil0" points="37.46,46.69 37.46,83.33 -0,78.19 -0,46.69 "/>
   <polygon class="fil0" points="-0,11.58 37.46,6.56 37.46,42.47 37.46,42.59 -0,42.59 -0,42.4 "/>
  </g>
  <path class="fil1" d="M123.17 86.75l-18.35 -69.68 9.57 0 10.45 45.69c1.14,4.79 2.14,9.54 3,14.24 1.83,-7.43 2.9,-11.71 3.21,-12.85l13.17 -47.09 11.11 0 9.99 35.28c2.45,8.76 4.27,16.98 5.43,24.66 0.92,-4.4 2.11,-9.44 3.55,-15.13l10.88 -44.8 9.26 0 -19.08 69.68 -8.97 0 -14.61 -53.09c-1.23,-4.44 -1.98,-7.17 -2.25,-8.18 -0.79,3.18 -1.51,5.9 -2.12,8.16l-14.61 53.11 -9.64 0zm81.4 0l0 -69.68 9.25 0 0 69.68 -9.25 0zm25.39 0l0 -69.68 9.47 0 36.56 54.7 0 -54.7 8.86 0 0 69.68 -9.47 0 -36.56 -54.7 0 54.7 -8.86 0zm70.38 0l0 -69.68 24.01 0c5.42,0 9.55,0.32 12.41,0.99 3.99,0.92 7.4,2.6 10.22,5 3.68,3.11 6.42,7.07 8.24,11.91 1.83,4.83 2.74,10.37 2.74,16.58 0,5.29 -0.62,9.98 -1.85,14.06 -1.23,4.09 -2.82,7.48 -4.75,10.15 -1.95,2.68 -4.06,4.79 -6.36,6.31 -2.29,1.54 -5.06,2.71 -8.3,3.5 -3.26,0.79 -6.99,1.18 -11.21,1.18l-25.14 0zm9.25 -8.18l14.86 0c4.59,0 8.19,-0.42 10.8,-1.28 2.61,-0.86 4.69,-2.06 6.25,-3.62 2.17,-2.19 3.88,-5.14 5.09,-8.84 1.22,-3.7 1.83,-8.18 1.83,-13.45 0,-7.3 -1.2,-12.91 -3.58,-16.84 -2.38,-3.93 -5.29,-6.55 -8.71,-7.88 -2.47,-0.96 -6.44,-1.43 -11.92,-1.43l-14.61 0 0 53.33zm58.22 -25.74c0,-11.55 3.11,-20.6 9.33,-27.14 6.21,-6.54 14.23,-9.8 24.06,-9.8 6.44,0 12.23,1.54 17.4,4.61 5.16,3.07 9.1,7.35 11.81,12.85 2.71,5.48 4.07,11.71 4.07,18.67 0,7.06 -1.43,13.38 -4.28,18.95 -2.85,5.58 -6.89,9.8 -12.12,12.65 -5.24,2.87 -10.88,4.3 -16.93,4.3 -6.57,0 -12.43,-1.59 -17.6,-4.75 -5.16,-3.16 -9.08,-7.48 -11.74,-12.96 -2.66,-5.47 -3.99,-11.26 -3.99,-17.37zm9.54 0.16c0,8.39 2.25,14.99 6.76,19.81 4.51,4.82 10.17,7.23 16.98,7.23 6.94,0 12.64,-2.43 17.13,-7.3 4.48,-4.87 6.72,-11.78 6.72,-20.73 0,-5.66 -0.96,-10.61 -2.87,-14.83 -1.91,-4.22 -4.72,-7.49 -8.4,-9.81 -3.7,-2.32 -7.83,-3.49 -12.43,-3.49 -6.52,0 -12.13,2.24 -16.84,6.72 -4.7,4.48 -7.06,11.94 -7.06,22.4zm81.01 33.76l-18.35 -69.68 9.57 0 10.45 45.69c1.14,4.79 2.14,9.54 3,14.24 1.83,-7.43 2.9,-11.71 3.21,-12.85l13.17 -47.09 11.11 0 9.99 35.28c2.45,8.76 4.27,16.98 5.43,24.66 0.92,-4.4 2.11,-9.44 3.55,-15.13l10.88 -44.8 9.26 0 -19.08 69.68 -8.97 0 -14.61 -53.09c-1.23,-4.44 -1.98,-7.17 -2.25,-8.18 -0.79,3.18 -1.51,5.9 -2.12,8.16l-14.61 53.11 -9.64 0zm76.82 -22.38l8.66 -0.78c0.41,3.5 1.36,6.37 2.87,8.63 1.51,2.24 3.84,4.06 7.01,5.45 3.16,1.38 6.73,2.08 10.69,2.08 3.52,0 6.62,-0.52 9.31,-1.57 2.69,-1.05 4.69,-2.5 6,-4.33 1.31,-1.83 1.98,-3.83 1.98,-5.97 0,-2.17 -0.63,-4.07 -1.9,-5.71 -1.27,-1.62 -3.36,-2.98 -6.28,-4.1 -1.87,-0.71 -6,-1.85 -12.41,-3.39 -6.41,-1.54 -10.88,-2.98 -13.45,-4.35 -3.33,-1.75 -5.79,-3.93 -7.41,-6.5 -1.64,-2.58 -2.45,-5.48 -2.45,-8.68 0,-3.54 1.01,-6.83 3,-9.88 2,-3.07 4.9,-5.39 8.74,-6.97 3.83,-1.59 8.09,-2.38 12.78,-2.38 5.16,0 9.72,0.83 13.66,2.5 3.94,1.65 6.97,4.1 9.1,7.35 2.12,3.23 3.26,6.89 3.42,10.98l-8.86 0.68c-0.47,-4.4 -2.08,-7.72 -4.82,-9.96 -2.74,-2.25 -6.8,-3.37 -12.15,-3.37 -5.58,0 -9.65,1.02 -12.2,3.07 -2.55,2.04 -3.83,4.51 -3.83,7.4 0,2.5 0.91,4.56 2.71,6.18 1.78,1.61 6.41,3.28 13.9,4.96 7.49,1.7 12.64,3.18 15.43,4.44 4.04,1.87 7.04,4.22 8.97,7.09 1.93,2.85 2.89,6.15 2.89,9.88 0,3.71 -1.05,7.19 -3.18,10.46 -2.12,3.28 -5.16,5.82 -9.13,7.64 -3.97,1.82 -8.43,2.73 -13.41,2.73 -6.29,0 -11.57,-0.92 -15.82,-2.76 -4.27,-1.83 -7.59,-4.59 -10.01,-8.29 -2.43,-3.68 -3.7,-7.85 -3.83,-12.51z"/>
 </g>
</svg>
